<?xml version="1.0" encoding="UTF-8" standalone="no"?> <svg xmlns:inkscape="http://www.inkscape.org/namespaces/inkscape" xmlns:sodipodi="http://sodipodi.sourceforge.net/DTD/sodipodi-0.dtd" xmlns="http://www.w3.org/2000/svg" xmlns:svg="http://www.w3.org/2000/svg" width="211.66667mm" height="211.66667mm" viewBox="0 0 211.66667 211.66667" version="1.1" id="svg47458" inkscape:version="1.1.1 (3bf5ae0d25, 2021-09-20)" sodipodi:docname="f_area.svg"><defs id="defs47455"><rect x="2079.7087" y="-1772.8665" width="1324.6021" height="399.70044" id="rect131360-5"></rect></defs><g inkscape:label="Слой 1" inkscape:groupmode="layer" id="layer1" transform="translate(25.903292,9.0131912)"><path id="path54014" style="fill:#ffffff;fill-rule:evenodd;stroke-width:0.292306;stroke-linecap:round;stroke-linejoin:round;paint-order:stroke fill markers;stop-color:#000000" d="m 80.06628,33.4211 c -1.04189,0 -2.08467,0 -2.87511,0.029 -1.58085,0.038 -0.28659,0.07 2.87511,0.07 3.16172,0 4.45483,-0.032 2.87398,-0.07 -0.79042,-0.023 -1.83203,-0.029 -2.87398,-0.029 z m -1.06707,4.0893 c -5.62036,0.023 -9.34059,0.519 -14.1496,1.7483 -1.85982,0.4729 -4.65005,1.3276 -6.19988,1.899 l -2.81802,1.0379 1.91636,-0.1149 c 1.05387,-0.063 3.1484,-0.2636 4.65397,-0.4462 8.392,-1.0176 17.81992,-0.9687 22.43591,0.115 0.57891,0.1353 1.73539,0.6948 2.56989,1.243 2.56579,1.6856 6.88446,2.8195 12.29731,3.2291 2.98372,0.2261 4.56511,0.643 8.2013,2.161 1.44259,0.6024 3.06233,1.1942 3.93406,1.4387 0.0559,0.023 0.005,-0.056 -0.11295,-0.16 -0.89909,-0.7879 -5.88995,-4.0993 -8.06268,-5.3495 -1.78716,-1.0289 -2.77073,-1.7381 -2.98694,-2.1563 -0.69404,-1.342 -3.33718,-2.7365 -7.0224,-3.7034 -1.93956,-0.5093 -2.94001,-0.6071 -8.29215,-0.8111 -2.40623,-0.092 -4.49074,-0.1375 -6.36415,-0.1308 z m 10.95993,2.3398 c 0.26209,0 0.58448,0 0.99019,0 2.07561,0.038 5.53722,0.7755 7.30083,1.5521 1.13564,0.4998 1.81228,1.2413 1.53772,1.6856 -0.22227,0.3596 -2.08397,0.2187 -4.73093,-0.358 -5.44399,-1.1856 -6.64789,-1.4906 -6.78585,-1.7135 -0.0791,-0.1285 0.0737,-0.4509 0.34017,-0.7176 0.3182,-0.3178 0.56151,-0.4294 1.34787,-0.4522 z m -16.76841,4.2666 c -6.84555,0 -11.48814,0.4258 -14.60159,1.3289 -4.68477,1.3594 -7.83574,2.8528 -8.01604,3.8001 -0.0728,0.3828 -0.034,0.3875 0.5813,0.07 0.36283,-0.1871 1.32241,-0.4569 2.13185,-0.5976 1.23909,-0.2164 1.71345,-0.1961 3.00212,0.1285 1.7568,0.4407 2.93241,0.3864 7.54655,-0.3501 2.03757,-0.3251 4.5737,-0.5262 7.67475,-0.6085 6.5487,-0.1735 9.72859,0.2392 17.00956,2.2088 12.40251,3.3549 16.04788,4.7262 20.51488,7.7234 0.74398,0.4993 2.87459,2.4723 4.73439,4.3828 4.02842,4.1383 7.64051,7.2763 8.8537,7.6914 0.0343,0.023 -0.77138,-1.0695 -1.78937,-2.4025 v 0 c -1.01797,-1.333 -2.64104,-3.4618 -3.60786,-4.7316 -0.96686,-1.2699 -2.10448,-2.9949 -2.52796,-3.8329 -1.17628,-2.328 -4.64169,-5.5436 -7.59434,-7.0484 -2.14606,-1.0933 -5.62217,-2.1817 -10.04663,-3.145 C 92.59936,47.7636 90.66427,47.2285 86.37807,45.7821 82.1766,44.3639 80.20938,44.115 73.19073,44.1186 Z m -17.50348,6.4478 c -1.71613,-0.1014 -5.76536,0.6513 -6.95484,1.3747 -0.93106,0.5667 -4.05984,2.8862 -4.05984,3.0104 0,0.2074 1.37638,0.056 2.22157,-0.241 0.50914,-0.1803 2.28826,-0.587 3.95268,-0.9042 1.66453,-0.3178 3.36555,-0.7205 3.78028,-0.8936 1.66363,-0.6955 2.54127,-1.9015 1.63681,-2.2487 -0.13481,-0.052 -0.33153,-0.083 -0.57666,-0.097 z m 17.96133,0.2209 c -0.74821,0 -1.50021,0 -2.26238,0.034 -6.20775,0.221 -9.26018,0.9579 -13.75117,3.3234 -1.61186,0.8487 -4.05353,1.9946 -5.42633,2.5458 -4.58873,1.8425 -5.47619,2.4459 -7.95902,5.4111 -1.32902,1.587 -2.47925,3.1236 -6.87091,9.1859 l -0.7479,1.0318 0.92148,-0.4436 c 1.02196,-0.4926 1.9683,-1.1924 7.23318,-5.3484 4.63926,-3.6624 5.52954,-4.251 10.14444,-6.7019 2.10782,-1.1195 4.39031,-2.3506 5.07229,-2.7354 5.05015,-2.8493 13.73508,-3.4846 22.99388,-1.6831 6.46603,1.2579 12.40313,3.2149 17.69693,5.8351 4.13315,2.0453 6.63314,3.8711 9.12622,6.6649 2.48998,2.7895 2.80759,3.0621 9.13327,7.8016 5.02129,3.7618 5.95659,4.4013 6.16733,4.223 0.044,-0.036 -0.88205,-1.4822 -2.0573,-3.2108 -2.89957,-4.2652 -4.21364,-5.8597 -6.23021,-7.5559 -0.9415,-0.7921 -3.20924,-2.8695 -5.03964,-4.6155 -3.74404,-3.5722 -5.93714,-5.1372 -9.66328,-6.8944 -3.1539,-1.487 -6.11377,-2.5391 -11.243,-3.9969 C 83.93128,51.6796 78.88571,50.825 73.64858,50.7866 Z m 0.0327,6.424 c -4.20318,-0.079 -8.08522,0.4109 -10.83533,1.4398 -1.21515,0.4545 -2.48925,1.4845 -3.29448,2.6619 -0.20221,0.296 -1.31274,0.8887 -2.76214,1.4757 -3.3782,1.3695 -4.52818,2.1281 -7.67236,5.061 -1.62653,1.5167 -3.85108,3.2954 -5.45551,4.3626 -3.22461,2.1447 -4.0178,2.8706 -5.7514,5.2611 -1.50511,2.0751 -3.66518,5.5317 -3.53682,5.6604 0.0476,0.047 1.04511,-0.5552 2.21691,-1.3384 4.0777,-2.7264 9.50613,-5.1187 11.61115,-5.1187 0.47806,0 1.56868,0.1984 2.42429,0.4437 1.80705,0.5165 3.56587,0.7683 8.69989,1.243 4.79415,0.4432 7.47815,0.9931 12.24719,2.5093 2.12924,0.677 5.24132,1.6276 6.91516,2.1132 11.2519,3.2616 15.73845,5.7362 26.07413,14.3802 4.11668,3.4426 6.24968,5.5368 7.51864,7.3811 1.02317,1.4874 2.36574,4.4453 2.91352,6.4203 0.46746,1.6849 1.24958,7.0924 1.92455,13.3004 0.52755,4.8522 0.76489,6.4805 1.19524,8.2281 l 0.38793,1.5782 0.4322,-6.3631 c 0.38017,-5.6018 0.39615,-6.7064 0.13751,-9.2438 h 0.001 c -0.16163,-1.5848 -0.23037,-3.2878 -0.15262,-3.7828 0.0778,-0.4951 0.20515,-1.3199 0.28308,-1.8335 0.0999,-0.658 5.9e-4,-1.3571 -0.33319,-2.3675 -0.2606,-0.7883 -0.63852,-2.2444 -0.84111,-3.2363 -0.20267,-0.9919 -0.62522,-2.3107 -0.93783,-2.9311 -1.21242,-2.4042 -3.68808,-5.0733 -6.59128,-7.1061 -2.05372,-1.4373 -3.28494,-2.4669 -7.09577,-5.9354 C 98.64834,87.1449 96.17459,85.429 91.47001,83.1958 87.88655,81.4954 84.84552,80.5463 80.65217,79.8211 76.09374,79.0318 74.49999,78.6103 70.54155,77.1454 66.61256,75.6907 64.95946,75.4012 58.13939,74.97 55.01013,74.7716 52.14605,74.5358 51.77404,74.4445 50.84375,74.2179 50.74879,73.4562 51.5831,72.9118 c 0.56978,-0.3722 1.19254,-0.4062 6.9455,-0.379 4.38039,0.023 7.10545,0.1398 8.87812,0.3873 l 2.55706,0.356 0.93663,0.9914 c 1.07392,1.138 2.52952,1.7643 5.67106,2.4383 1.67493,0.3596 2.52314,0.4103 4.86251,0.2917 2.8132,-0.142 2.85096,-0.1375 5.18525,0.6441 5.17935,1.737 10.76107,4.4735 13.77676,6.7519 0.82889,0.6263 2.50287,2.2523 3.71969,3.6128 2.40604,2.6899 5.53127,5.7319 6.92453,6.7412 1.0408,0.7545 2.0681,0.844 2.27286,0.1983 0.2907,-0.9161 -1.12128,-3.0145 -4.51425,-6.7125 -2.23521,-2.4358 -2.89113,-3.4171 -2.67009,-3.9933 0.20356,-0.5302 0.77999,-0.4288 2.01537,0.3544 3.66797,2.3262 6.42624,5.9794 7.168,9.4943 0.44985,2.1317 0.94168,2.9616 3.79192,6.4001 1.32568,1.5997 2.3971,2.5386 6.8558,6.0082 l 0.51839,0.4024 -0.51958,-1.3043 c -2.41243,-6.0558 -2.38833,-6.0117 -4.92078,-9.2302 -2.2413,-2.8481 -3.80873,-5.884 -3.95619,-7.6615 -0.0996,-1.2018 -0.19117,-1.3815 -1.21039,-2.3745 -3.18334,-3.1004 -6.00495,-4.6471 -9.2043,-5.0454 -1.55973,-0.1939 -3.00741,-0.7455 -7.63048,-2.9079 -2.02701,-0.9482 -5.83153,-2.6238 -8.4541,-3.7242 -2.62256,-1.1005 -5.86706,-2.5575 -7.20992,-3.2387 -4.04882,-2.0519 -7.43038,-2.6924 -12.54895,-2.3763 -1.42582,0.088 -4.87569,0.1713 -7.66538,0.1826 -3.02017,0.023 -5.97936,0.151 -7.31478,0.3399 -2.86402,0.4058 -3.61072,0.1308 -2.59555,-0.9597 0.65777,-0.706 2.01823,-1.3492 3.64985,-1.7254 1.87407,-0.4324 17.74611,-0.5422 20.12461,-0.1398 4.01542,0.6799 7.68752,1.9933 19.20316,6.8681 3.07678,1.3027 7.46271,2.9829 9.74608,3.7338 4.55167,1.4971 6.01372,2.2095 10.59177,5.1631 1.68637,1.0884 3.7756,2.3959 4.64349,2.9054 0.86796,0.5099 2.18715,1.4189 2.93106,2.0201 0.74391,0.6012 1.68207,1.3253 2.08528,1.6098 l 0.73394,0.5183 -0.71767,-1.1993 c -2.21075,-3.6976 -3.77616,-6.0369 -4.57823,-6.8408 -1.13178,-1.1346 -8.3834,-5.9843 -10.9005,-7.2907 -1.67521,-0.8688 -2.11868,-0.996 -4.07154,-1.166 -2.5185,-0.2186 -3.7277,-0.6222 -9.9802,-3.3294 -6.7074,-2.9042 -12.32341,-4.8463 -16.4026,-5.6735 -3.51689,-0.7128 -6.76878,-0.9281 -13.02426,-0.8595 -5.85864,0.063 -5.91335,0.061 -6.41659,-0.4403 -0.701,-0.6973 -0.4079,-0.9024 1.85584,-1.3014 3.60052,-0.634 5.74495,-0.8195 9.45475,-0.8154 8.83123,0 16.92326,2.2248 28.74184,7.8626 4.57043,2.18 6.26417,2.7032 6.67056,2.0618 0.35476,-0.5606 0.2225,-0.8791 -0.8353,-2.0099 -3.63905,-3.8901 -15.37884,-8.7937 -25.33432,-10.5823 -2.57754,-0.463 -5.21574,-0.7146 -7.73761,-0.7617 z m 0.007,14.5142 c 3.12516,-0.056 7.95671,1.3874 7.95671,2.7145 0,0.5875 -0.97401,0.5505 -4.17056,-0.1623 -1.36387,-0.3041 -3.3404,-0.6777 -4.3931,-0.8285 -1.51011,-0.2164 -1.92978,-0.3573 -1.98972,-0.6686 -0.0534,-0.2769 0.18012,-0.5023 0.78638,-0.757 0.45902,-0.1916 1.08913,-0.285 1.81029,-0.2981 z m -23.27934,8.8769 c -2.49016,0.036 -4.18803,0.3544 -6.20453,1.0296 -2.67835,0.8977 -5.7996,2.5021 -6.65661,3.4232 -0.88293,0.9477 -1.89071,2.4586 -1.89071,2.8337 0,0.6794 2.19313,0.291 6.57036,-1.1626 5.90452,-1.9606 7.69097,-2.2545 13.60556,-2.2403 8.64793,0.022 13.8014,1.1824 17.719,3.9928 0.60051,0.4306 2.44917,1.2453 4.39536,1.9361 4.34227,1.5412 9.34095,3.9951 13.16639,6.4645 1.67384,1.08 4.26461,2.7347 5.7572,3.6752 4.9577,3.1243 6.99156,4.7569 8.94573,7.1773 2.33305,2.8899 3.7021,5.6859 4.79613,9.7962 0.90196,3.389 1.24881,6.4643 1.39214,12.352 0.14112,5.8024 -0.0252,7.7504 -1.04732,12.2865 -0.2234,0.9919 -0.46883,2.2093 -0.54523,2.7054 -0.12962,0.8423 -0.0922,0.8048 0.55339,-0.5642 0.38024,-0.8057 1.23414,-2.8344 1.8977,-4.508 2.22336,-5.6086 2.53339,-7.5493 2.04567,-12.7748 C 113.34478,110.2609 111.23844,106.11 100.01751,97.6797 92.60103,92.1083 87.41876,89.2787 79.72863,86.5999 78.36476,86.1251 75.62667,85.1255 73.64284,84.3787 67.48096,82.0592 64.31466,81.4221 55.98791,80.8256 53.68283,80.661 51.90306,80.5792 50.40894,80.6002 Z m 7.51048,6.7055 c -0.53437,0 -1.0745,0.023 -1.61814,0.032 -5.53411,0.1781 -8.62723,0.8122 -14.58292,2.9877 -4.17676,1.5257 -4.21659,1.5464 -4.4,2.3082 -0.0814,0.337 -0.45177,1.2205 -0.82252,1.963 -1.38551,2.774 -3.28422,7.1039 -3.11506,7.1039 0.0965,0 1.23157,-0.9241 2.52213,-2.053 3.36533,-2.9449 4.6987,-3.9343 6.79985,-5.0432 5.78075,-3.0508 12.86686,-4.233 22.18777,-3.7023 4.68685,0.2674 5.92051,0.1984 6.3805,-0.3548 1.41683,-1.7077 -5.33557,-3.2812 -13.35161,-3.2399 z m 61.28497,0.1917 c -1.62023,0 -0.758,1.509 4.19734,7.3441 2.10448,2.4777 2.78843,3.1577 3.47735,3.4606 0.018,0 -0.15442,-0.4819 -0.38556,-1.0904 -0.86862,-2.2857 -2.45467,-5.7104 -3.13724,-6.7738 -1.01404,-1.5807 -2.93442,-2.9405 -4.15189,-2.9405 z m -83.76865,4.1691 c -0.45634,0.059 -1.19428,0.5643 -1.88838,1.3855 l -0.64422,0.7618 1.0077,-0.4313 c 0.55419,-0.2374 1.22483,-0.5679 1.48996,-0.7336 0.26513,-0.1645 0.48116,-0.4217 0.48116,-0.5707 0,-0.3186 -0.17245,-0.4464 -0.44622,-0.4117 z m 33.81054,1.7852 c -11.25111,-0.052 -15.54225,0.3747 -20.44265,2.0244 -3.86458,1.3014 -6.76502,2.9065 -10.13513,5.6072 -1.19191,0.9549 -1.61129,1.4746 -2.22271,2.7564 -0.81638,1.7106 -2.42924,6.2007 -2.22741,6.2007 0.0681,0 1.15825,-1.039 2.42311,-2.31 6.10737,-6.1369 12.63656,-9.3573 21.1766,-10.4441 4.18433,-0.5327 13.78045,-0.346 16.65538,0.324 5.00948,1.1673 9.83584,4.0778 11.88025,7.1645 1.08938,1.6452 1.55312,3.1792 2.18197,7.2147 0.63367,4.0662 1.03701,5.518 3.43197,12.3659 2.47273,7.071 3.22403,11.4949 2.75396,16.2177 -0.73413,7.3757 -2.89186,12.3938 -7.49187,17.4248 -0.76663,0.8386 -1.60102,1.7638 -1.85457,2.0555 -0.69332,0.7969 2.95904,-1.4524 5.11183,-3.1481 2.20445,-1.7363 4.33005,-4.0242 5.0431,-5.4282 1.16657,-2.2972 2.10676,-6.7146 2.46272,-11.5733 0.30294,-4.134 -0.61273,-9.5349 -2.48371,-14.6466 -2.96625,-8.1046 -3.51547,-10.4939 -2.74931,-11.9757 0.60116,-1.1623 0.93345,-1.3229 2.02475,-0.9822 1.5673,0.4889 2.36959,1.0908 3.40629,2.5528 1.30839,1.8442 2.43876,4.1394 3.76868,7.6543 0.6026,1.5932 1.27088,3.194 1.48529,3.5567 0.41376,0.7009 1.02263,1.018 1.44802,0.755 0.46674,-0.2886 0.0647,-3.2553 -0.78518,-5.7957 -1.83284,-5.4773 -4.33118,-8.938 -7.592,-10.5173 -1.76314,-0.8542 -1.95897,-1.0224 -2.13884,-1.8414 -0.19951,-0.9083 0.2335,-1.4069 1.07522,-1.2387 1.19579,0.2391 3.87961,2.0052 5.48812,3.6114 2.62371,2.6191 4.64255,6.5784 5.52656,10.8388 0.52267,2.5195 0.53072,3.4131 0.0431,4.783 -0.3234,0.9092 -0.38729,2.0395 -0.4031,7.1659 -0.0158,5.0826 -0.10054,6.6243 -0.51723,9.3489 -0.60035,3.9248 -0.64138,5.6926 -0.1445,6.1895 0.4056,0.4056 0.90502,0.4617 1.11371,0.124 0.0785,-0.1263 0.009,-0.2052 -0.15488,-0.1691 -0.68078,0.142 -0.42812,-1.3718 0.67335,-4.026 2.15047,-5.1827 2.28832,-5.9593 2.45573,-13.8434 0.13977,-6.5781 -0.0412,-8.9891 -0.93196,-12.4153 -1.94021,-7.4616 -6.72852,-13.0438 -12.65261,-14.7492 -1.91612,-0.5516 -2.73112,-1.0115 -5.39137,-3.0395 -4.60968,-3.5142 -8.37901,-5.6615 -12.36137,-7.0423 l -2.07365,-0.7186 z m -4.96038,6.2533 c -0.48193,0 -0.97049,0.023 -1.4643,0.036 -9.20288,0.3668 -16.24992,3.0025 -22.79361,8.5252 -2.13341,1.8007 -2.59674,2.6513 -3.66612,6.7328 l -0.67912,2.5927 0.94479,-1.1272 c 0.51976,-0.6204 1.96021,-2.1497 3.20011,-3.3998 2.42305,-2.4421 4.56022,-4.0016 7.70034,-5.6175 5.47131,-2.8152 10.96248,-4.1753 16.81386,-4.1656 6.12765,0 10.01234,1.1421 15.70247,4.5772 1.16549,0.7031 2.38811,1.2787 2.7167,1.2787 2.03022,0 1.19481,-2.7066 -1.49586,-4.845 -3.87506,-3.0794 -9.74947,-4.662 -16.97926,-4.5885 z m 0.46369,6.391 c -4.73134,-0.083 -9.63661,1.0916 -15.16542,3.6194 -4.15059,1.8979 -6.0988,3.1362 -8.30617,5.2846 -2.12613,2.0685 -2.25228,2.3197 -3.5636,7.0549 -0.42348,1.5293 -0.4233,1.5316 0.0257,1.1272 0.24734,-0.2232 1.28841,-1.4248 2.31472,-2.671 3.3663,-4.0887 5.38884,-5.6239 7.86813,-5.9753 1.06551,-0.151 2.04592,-0.5169 3.59158,-1.3431 6.60828,-3.531 14.3076,-4.5515 19.66565,-2.6072 1.86785,0.6781 2.85374,1.4482 3.43315,2.6807 0.41173,0.876 0.7297,1.1402 2.66425,2.2096 5.21305,2.8829 9.03099,8.5361 11.05542,16.3717 0.56246,2.1765 0.62569,2.7985 0.61512,6.0344 -0.0113,3.1445 -0.0854,3.8842 -0.59294,5.7742 -1.08011,4.0244 -2.72956,6.9828 -5.53472,9.927 -2.09648,2.2002 -4.35074,3.7541 -7.66896,5.2839 -1.44998,0.6686 -2.57823,1.2169 -2.50697,1.2175 0.0712,0 1.23866,-0.1983 2.59322,-0.4427 5.77999,-1.0426 10.16408,-3.3019 12.33108,-6.3559 2.12065,-2.9888 3.65754,-6.818 4.36278,-10.8656 0.43948,-2.5224 0.30616,-7.9472 -0.25862,-10.5126 -1.25155,-5.6848 -5.68634,-16.0822 -7.7796,-18.2396 -0.51027,-0.5255 -1.7722,-1.3569 -2.97646,-1.9606 -1.14955,-0.5762 -3.00227,-1.583 -4.11812,-2.2379 -3.49877,-2.053 -6.06293,-2.8869 -10.03029,-3.2609 -0.67012,-0.063 -1.34297,-0.1014 -2.01888,-0.1127 z m 56.66355,0.1804 c -0.15713,0 -0.30145,0.052 -0.42289,0.151 -0.5744,0.4773 -0.40368,1.6261 0.45319,3.0492 1.33833,2.2223 3.71038,4.9553 3.71038,4.2742 0,-0.4414 -1.88248,-5.7654 -2.25075,-6.3642 -0.43076,-0.7015 -1.01833,-1.1165 -1.48993,-1.11 z m -55.06056,6.0993 c -3.56277,-0.1105 -7.54211,0.7401 -11.00073,2.3835 -2.67905,1.2728 -4.32976,2.9214 -6.1428,6.1334 -0.39187,0.6947 -1.37819,2.0117 -2.19128,2.9268 -2.17306,2.4455 -3.1397,3.9633 -3.68247,5.7861 -0.31326,1.0517 -0.59925,1.6247 -0.81194,1.6247 -0.1808,0 -0.32855,0.1015 -0.32855,0.2261 0,0.124 -0.20154,0.2255 -0.44733,0.2255 -0.55625,0 -0.78572,-0.8017 -0.60578,-2.1146 0.27593,-2.0131 1.49564,-4.1119 4.67965,-8.0509 2.88041,-3.5627 3.63117,-4.987 2.79709,-5.3073 -0.70234,-0.2697 -1.53791,0.2096 -3.29568,1.8884 -2.52332,2.4108 -3.90585,4.2163 -4.36046,5.6944 -0.56832,1.8477 -0.69296,5.6722 -0.23531,7.2141 0.20244,0.6824 0.44174,1.5943 0.53241,2.0285 0.13593,0.6501 0.18778,0.7069 0.29471,0.3167 0.0823,-0.3005 0.38064,-0.5241 0.8178,-0.6114 0.95397,-0.1916 2.0922,-1.2543 3.53682,-3.3037 1.48256,-2.1037 2.8479,-3.3903 3.59974,-3.3903 0.30224,0 0.60326,0.086 0.66863,0.1916 0.0654,0.106 -0.7031,1.5014 -1.70779,3.1004 -1.00466,1.5986 -1.96496,3.233 -2.13424,3.632 -0.67894,1.6008 -0.24426,5.492 1.0147,9.0809 l 0.67221,1.9164 0.0203,-2.3673 c 0.0268,-3.1845 0.60558,-5.8011 2.0934,-9.4675 0.6793,-1.6736 1.46603,-3.7429 1.74864,-4.5982 0.42496,-1.2858 0.73292,-1.7637 1.77999,-2.7622 0.69632,-0.6632 1.44379,-1.2065 1.66127,-1.2065 0.66099,0 0.47627,1.2018 -0.47765,3.1044 -1.63579,3.2634 -3.01902,7.8077 -3.39349,11.1486 -0.17606,1.5715 -0.15172,2.2282 0.1188,3.269 0.90004,3.4624 4.26235,7.7384 7.75508,9.8625 1.86834,1.1364 3.55925,1.555 6.33737,1.5706 2.38858,0.023 2.39532,0.023 4.33483,-0.9705 6.22958,-3.1559 8.90691,-5.8572 10.19573,-10.2877 0.76478,-2.6292 0.41223,-6.295 -0.84111,-8.7513 -0.6437,-1.2615 -2.10582,-2.764 -3.20942,-3.2978 -1.22586,-0.5941 -2.31946,-0.5756 -5.64424,0.095 -3.77188,0.7607 -5.35917,1.5914 -8.19898,4.2916 -2.77244,2.6365 -3.0575,3.2192 -3.03358,6.1967 0.0203,2.5533 0.5834,4.3146 1.81503,5.6776 1.17042,1.2955 2.39973,1.9218 5.13049,2.6118 1.33923,0.3388 2.47393,0.7361 2.52213,0.8835 0.19905,0.6078 -1.07428,1.0629 -2.95665,1.0564 -3.32789,0 -6.09228,-1.2724 -7.79708,-3.5569 -2.08886,-2.7985 -2.59507,-4.7781 -2.39748,-9.3774 0.18824,-4.3828 0.57398,-6.35 1.70081,-8.678 1.79755,-3.7136 4.49134,-5.8315 8.39587,-6.6009 2.08169,-0.4098 3.99968,-0.1668 4.77167,0.6048 0.70387,0.7038 0.33962,1.0688 -1.24416,1.2442 -3.45851,0.3835 -6.09335,1.5269 -8.0662,3.4994 -2.39054,2.3907 -3.55407,5.8752 -2.02121,6.0536 0.47257,0.054 0.78732,-0.1804 1.66478,-1.2395 2.05293,-2.4806 3.93362,-3.8465 6.92796,-5.033 1.02915,-0.4074 2.47102,-1.1434 3.20478,-1.6355 1.25769,-0.8434 1.40515,-0.8869 2.58159,-0.7651 1.94064,0.2006 4.2172,1.4416 5.85853,3.1964 4.13693,4.4221 5.02533,11.5527 2.16215,17.361 -1.57309,3.1917 -4.26079,5.8369 -7.76558,7.6424 -2.82752,1.4566 -4.64484,1.9563 -7.55241,2.0792 -2.96965,0.1262 -3.72393,0.25 -3.26303,0.5352 0.3188,0.1961 3.67113,0.826 5.17939,0.9716 1.33607,0.1285 4.54656,-0.1037 6.06361,-0.4396 h -10e-4 c 2.0895,-0.4621 3.91073,-1.5293 6.02398,-3.5298 2.90207,-2.7467 4.63878,-5.698 5.64309,-9.5886 0.51225,-1.9845 0.55357,-2.4915 0.45898,-5.565 -0.12264,-3.9872 -0.51153,-5.6013 -2.17266,-9.0167 -2.53274,-5.2077 -6.0061,-8.2664 -10.51257,-9.2558 -0.85706,-0.1893 -2.9298,-0.4026 -4.60508,-0.4772 -4.61408,-0.2052 -7.3216,0.4569 -11.28838,2.764 -1.06756,0.6209 -1.98598,0.9948 -2.44293,0.9948 -0.40271,0 -1.3666,0.1691 -2.14236,0.3754 -2.3374,0.6226 -2.77109,0.115 -1.17198,-1.3749 1.852,-1.7239 6.33273,-3.9737 9.74256,-4.8917 1.46448,-0.3941 2.59828,-0.495 6.34899,-0.5683 4.65088,-0.092 5.59245,-0.2351 5.84464,-0.8923 0.33986,-0.8857 -2.40433,-1.9649 -6.05662,-2.3799 -0.48921,-0.056 -0.99035,-0.09 -1.49931,-0.1059 z m 28.4331,0.7354 c -0.0633,0 -0.12466,0.041 -0.19094,0.097 -0.80682,0.6698 -0.39699,2.269 2.59902,10.1325 2.18107,5.7249 2.83608,8.0415 3.18503,11.2582 0.60664,5.5943 -0.66363,14.466 -2.76214,19.2882 -1.36441,3.1351 -1.38463,3.1888 -1.03332,2.8177 0.17607,-0.1848 0.92493,-1.0521 1.66354,-1.9252 1.72657,-2.0417 3.29452,-4.5641 3.99697,-6.4305 0.35299,-0.9375 0.68241,-2.5791 0.90519,-4.5061 0.95953,-8.3023 0.63808,-12.5866 -1.21737,-16.2233 -0.27992,-0.5487 -1.1619,-2.6238 -1.95948,-4.611 -1.7008,-4.2373 -3.39994,-7.7892 -4.36506,-9.1217 -0.42188,-0.5823 -0.63106,-0.7976 -0.82132,-0.7755 z m 26.19758,0.4235 c -0.37821,0 -0.4483,0.1443 -0.43572,0.9018 0.009,0.4964 0.23603,1.9319 0.50675,3.191 0.27075,1.2593 0.49375,3.0348 0.49512,3.9457 0.001,0.9108 0.0697,2.0614 0.15262,2.5569 l 0.15149,0.902 0.15848,-0.677 c 0.0872,-0.3722 0.28659,-1.7077 0.44383,-2.9681 0.36897,-2.9583 0.18892,-5.4122 -0.49859,-6.7977 -0.36222,-0.7302 -0.66189,-1.0546 -0.97389,-1.0546 z m -47.45107,17.7637 c 0.63286,-0.092 1.82522,0.8136 2.65263,2.1933 1.00088,1.6693 1.24387,2.7097 1.13233,4.8497 -0.11881,2.2796 -1.02203,4.3565 -2.53263,5.825 -2.02216,1.9653 -4.04393,2.4802 -6.80916,1.7333 v 0 c -3.02029,-0.8153 -5.26679,-2.4119 -5.26679,-3.7439 0,-0.7539 0.41299,-0.7158 2.37886,0.2164 1.86703,0.8864 3.82789,1.314 5.0932,1.1111 1.40366,-0.2254 3.12856,-1.3974 3.90491,-2.656 0.63051,-1.0217 0.68383,-1.2706 0.68383,-3.1559 0,-1.9182 -0.0534,-2.1556 -0.86206,-3.7893 -0.47449,-0.9585 -0.8295,-1.9211 -0.7875,-2.1389 0.0525,-0.2725 0.20131,-0.415 0.41238,-0.4461 z m -5.01866,2.643 c 0.5871,-0.034 1.17111,0.09 1.6846,0.4067 0.7674,0.4743 1.58317,1.7054 1.8313,2.7633 0.33114,1.4119 -1.18672,3.7537 -1.94314,2.9996 -0.0753,-0.074 -0.078,-0.6345 -0.007,-1.243 0.14878,-1.2561 -0.29088,-2.0012 -1.18242,-2.0012 -0.56352,0 -0.9195,0.6252 -0.56031,0.9843 0.41747,0.4175 0.25248,1.246 -0.32273,1.6229 -1.16412,0.7628 -3.05214,-0.5271 -3.05214,-2.0851 0,-1.8467 1.79061,-3.3479 3.5519,-3.4475 z"></path></g></svg> 