<?xml version="1.0" encoding="UTF-8" standalone="no"?> <svg xmlns:inkscape="http://www.inkscape.org/namespaces/inkscape" xmlns:sodipodi="http://sodipodi.sourceforge.net/DTD/sodipodi-0.dtd" xmlns="http://www.w3.org/2000/svg" xmlns:svg="http://www.w3.org/2000/svg" width="211.66667mm" height="211.66667mm" viewBox="0 0 211.66667 211.66667" version="1.1" id="svg49341" inkscape:version="1.1.1 (3bf5ae0d25, 2021-09-20)" sodipodi:docname="f_circ.svg"><defs id="defs49338"><rect x="2079.7087" y="-1772.8665" width="1700.6455" height="408.49951" id="rect131360-9-0"></rect><rect x="2079.7087" y="-1772.8665" width="1700.6455" height="408.49951" id="rect201783-7"></rect><rect x="2079.7087" y="-1772.8665" width="1700.6455" height="408.49951" id="rect202781-2"></rect><rect x="2079.7087" y="-1772.8665" width="1700.6455" height="408.49951" id="rect217187-7"></rect><rect x="2079.7087" y="-1772.8665" width="3121.4348" height="422.91153" id="rect13790-6"></rect><rect x="2079.7087" y="-1772.8665" width="3121.4348" height="422.91153" id="rect80197"></rect><rect x="2079.7087" y="-1772.8665" width="3545.8816" height="443.42642" id="rect131360-16"></rect><rect x="2079.7087" y="-1772.8665" width="1700.6455" height="408.49951" id="rect131360-9-0-9"></rect><rect x="2079.7087" y="-1772.8665" width="1700.6455" height="408.49951" id="rect201783-7-3"></rect><rect x="2079.7087" y="-1772.8665" width="1700.6455" height="408.49951" id="rect202781-2-9"></rect><rect x="2079.7087" y="-1772.8665" width="1700.6455" height="408.49951" id="rect217187-7-0"></rect></defs><g inkscape:label="Слой 1" inkscape:groupmode="layer" id="layer1" transform="translate(249.43639,-57.470959)"><path id="circle57282" style="stroke-width:0.264583" d="m -26.303858,16.354382 a 0.39687499,0.39687499 0 0 1 -0.396875,0.396875 0.39687499,0.39687499 0 0 1 -0.396875,-0.396875 0.39687499,0.39687499 0 0 1 0.396875,-0.396875 0.39687499,0.39687499 0 0 1 0.396875,0.396875 z"></path><path id="circle57282-4" style="stroke-width:0.264583" d="m -249.03963,57.471081 a 0.39687499,0.39687499 0 0 1 -0.39688,0.396875 0.39687499,0.39687499 0 0 1 -0.39687,-0.396875 0.39687499,0.39687499 0 0 1 0.39687,-0.396875 0.39687499,0.39687499 0 0 1 0.39688,0.396875 z"></path><g id="g2634-7-9-0-3" style="fill:#ffffff;fill-opacity:1;stroke:#ffffff;stroke-width:1.39181;stroke-miterlimit:4;stroke-dasharray:none;stroke-opacity:1" transform="matrix(0.4000455,0,0,-0.4000455,-268.30665,212.6935)"><g id="g2636-1-3-1-5" style="fill:#ffffff;fill-opacity:1;stroke:#ffffff;stroke-width:1.39181;stroke-miterlimit:4;stroke-dasharray:none;stroke-opacity:1"><path id="line2638-1-2-5-4" style="stroke-width:1.24986" d="M 239.61084,125.44281 H 464.48108"></path></g></g><g aria-label="4π" transform="matrix(0.07559897,0,0,0.07559897,-362.94223,286.0989)" id="text201781-0" style="font-size:233.322px;line-height:1.1;white-space:pre;shape-inside:url(#rect201783-7-3);fill:#ffffff"><path d="m 2168.138,-1574.3576 v -34.7649 h -77.2296 v -15.6326 l 80.7295,-114.0945 h 17.7324 v 112.4612 h 24.7322 v 17.2659 h -24.7322 v 34.7649 z m 0,-52.0308 v -86.7958 h 5.3664 l -65.0968,91.9289 v -5.1331 z" style="font-weight:500;font-family:Mulish;-inkscape-font-specification:'Mulish Medium'" id="path11163"></path><path d="m 2227.8681,-1574.3576 q 5.3664,-15.3992 8.8662,-31.2651 3.7332,-16.0992 5.5998,-33.3651 2.0999,-17.2658 2.3332,-36.3982 h -23.7989 v -16.3325 h 129.9604 v 16.3325 h -26.832 v 58.5638 q 0,12.3661 6.0663,18.8991 6.0664,6.533 18.6658,7.6996 l 9.5662,0.7 -1.6333,16.7992 -10.9661,-0.7 q -11.4328,-0.6999 -19.599,-3.7331 -8.1663,-3.0332 -13.2994,-8.6329 -5.1331,-5.5998 -7.6996,-13.766 -2.3332,-8.1663 -2.3332,-19.1324 v -56.6973 h -37.0982 q -0.2334,21.2323 -2.0999,39.1981 -1.6333,17.7325 -5.1331,33.1317 -3.4998,15.166 -8.3996,28.6986 z" style="font-weight:500;font-family:Mulish;-inkscape-font-specification:'Mulish Medium'" id="path11165"></path></g><g aria-label="Area" transform="matrix(0.07559897,0,0,0.07559897,-304.25996,273.4076)" id="text202779-1" style="font-size:233.322px;line-height:1.1;white-space:pre;shape-inside:url(#rect202781-2-9);fill:#ffffff"><path d="m 2159.4577,-1731.3523 -31.2159,84.6476 h 62.5458 z m -12.9876,-22.6714 h 26.0892 l 64.8243,170.0927 h -23.9246 l -15.494,-43.634 h -76.6727 l -15.4941,43.634 h -24.2664 z" id="path11154"></path><path d="m 2335.2467,-1691.9336 q -3.5317,-2.0507 -7.747,-2.9621 -4.1014,-1.0254 -9.1142,-1.0254 -17.7725,0 -27.3424,11.6206 -9.4559,11.5066 -9.4559,33.1527 v 67.2168 h -21.0764 v -127.598 h 21.0764 v 19.8232 q 6.6078,-11.6205 17.2029,-17.2029 10.5952,-5.6963 25.7475,-5.6963 2.1646,0 4.7849,0.3417 2.6203,0.2279 5.8103,0.7975 z" id="path11156"></path><path d="m 2461.2497,-1652.9707 v 10.2534 h -96.382 q 1.3671,21.6461 12.9876,33.0388 11.7345,11.2788 32.5831,11.2788 12.0762,0 23.3549,-2.9621 11.3927,-2.9621 22.5575,-8.8863 v 19.8232 q -11.2787,4.785 -23.1271,7.2913 -11.8484,2.5064 -24.0385,2.5064 -30.5324,0 -48.4189,-17.7725 -17.7726,-17.7726 -17.7726,-48.0771 0,-31.3299 16.8612,-49.6721 16.9751,-18.4561 45.6846,-18.4561 25.7475,0 40.6719,16.6333 15.0383,16.5193 15.0383,45.001 z m -20.9625,-6.152 q -0.2279,-17.2029 -9.6838,-27.4564 -9.342,-10.2534 -24.836,-10.2534 -17.5448,0 -28.1399,9.9117 -10.4813,9.9116 -12.0763,27.912 z" id="path11158"></path><path d="m 2553.6443,-1648.0718 q -25.4057,0 -35.2034,5.8103 -9.7977,5.8102 -9.7977,19.8232 0,11.1648 7.2914,17.7726 7.4052,6.4938 20.0511,6.4938 17.4308,0 27.912,-12.3041 10.5952,-12.418 10.5952,-32.9248 v -4.671 z m 41.8111,-8.6584 v 72.7992 h -20.9625 v -19.3676 q -7.1774,11.6205 -17.8865,17.2029 -10.7091,5.4685 -26.2031,5.4685 -19.5955,0 -31.216,-10.9369 -11.5066,-11.0509 -11.5066,-29.5071 0,-21.5321 14.3548,-32.4691 14.4687,-10.937 43.0643,-10.937 h 29.3931 v -2.0506 q 0,-14.4687 -9.5698,-22.3297 -9.456,-7.9749 -26.6589,-7.9749 -10.937,0 -21.3043,2.6204 -10.3673,2.6203 -19.9372,7.8609 v -19.3676 q 11.5066,-4.4431 22.3297,-6.6077 10.823,-2.2785 21.0764,-2.2785 27.6842,0 41.3554,14.3547 13.6712,14.3548 13.6712,43.5201 z" id="path11160"></path></g><g aria-label="Perimeter²" transform="matrix(0.07559897,0,0,0.07559897,-328.02594,299.8662)" id="text217185-5" style="font-weight:500;font-size:233.322px;line-height:1.1;font-family:Mulish;-inkscape-font-specification:'Mulish, Medium';white-space:pre;shape-inside:url(#rect217187-7-0);fill:#ffffff"><path d="m 2099.7747,-1574.3576 v -164.492 h 68.13 q 26.3654,0 40.3647,12.5994 13.9993,12.5994 13.9993,34.765 0,22.1656 -13.9993,34.9983 -13.9993,12.5994 -40.3647,12.5994 h -46.4311 v 69.5299 z m 21.6989,-87.2624 h 44.3312 q 17.2658,0 26.1321,-7.6996 8.8662,-7.933 8.8662,-22.1656 0,-14.2327 -8.8662,-21.9323 -8.8663,-7.6996 -26.1321,-7.6996 h -44.3312 z" style="-inkscape-font-specification:'Mulish Medium'" id="path11133"></path><path d="m 2298.3313,-1572.2577 q -27.9987,0 -44.3312,-16.0992 -16.0992,-16.0992 -16.0992,-44.3312 0,-18.6657 6.9996,-32.1984 7.233,-13.766 19.8324,-21.2323 12.5994,-7.6996 29.3986,-7.6996 16.0992,0 27.2986,6.9996 11.1995,6.7664 17.0325,19.3658 5.8331,12.5993 5.8331,29.8652 v 6.9996 h -89.829 v -12.5994 h 75.363 l -3.9664,3.0332 q 0,-18.1991 -8.1663,-28.2319 -7.933,-10.0329 -23.5655,-10.0329 -17.0325,0 -26.3654,11.8994 -9.3329,11.6661 -9.3329,31.9652 v 2.0999 q 0,21.4656 10.4995,32.4317 10.7328,10.9661 29.6319,10.9661 10.4995,0 19.599,-3.0331 9.0996,-3.0332 17.4992,-10.0329 l 6.9996,14.6993 q -7.9329,7.233 -19.8323,11.1995 -11.6661,3.9664 -24.4988,3.9664 z" style="-inkscape-font-specification:'Mulish Medium'" id="path11135"></path><path d="m 2371.8273,-1574.3576 v -88.6623 q 0,-6.9997 -0.4667,-14.2327 -0.2333,-7.4663 -1.1666,-14.4659 h 20.5324 l 2.5665,29.3985 -3.4998,0.2334 q 2.3332,-10.7329 7.9329,-17.7325 5.8331,-7.233 13.766,-10.4995 8.1663,-3.4998 16.7992,-3.4998 3.7332,0 6.2997,0.2333 2.5665,0.2333 5.1331,1.1666 l -0.4667,18.8991 q -3.4998,-1.4 -6.533,-1.6333 -2.7998,-0.4666 -6.9996,-0.4666 -10.2662,0 -17.7325,4.6664 -7.233,4.6665 -11.1995,12.3661 -3.7331,7.6996 -3.7331,16.5659 v 67.6633 z" style="-inkscape-font-specification:'Mulish Medium'" id="path11137"></path><path d="m 2458.3895,-1574.3576 v -117.3609 h 21.2323 v 117.3609 z m -1.8666,-143.0264 v -22.8655 h 25.1988 v 22.8655 z" style="-inkscape-font-specification:'Mulish Medium'" id="path11139"></path><path d="m 2515.0863,-1574.3576 v -89.5956 q 0,-6.7664 -0.4667,-13.766 -0.4666,-6.9997 -1.3999,-13.9993 h 20.5324 l 2.3332,25.1987 h -2.7999 q 4.6664,-13.066 14.9326,-20.0657 10.2662,-7.2329 24.4988,-7.2329 14.466,0 23.7989,6.9996 9.3329,6.7664 12.5994,21.4657 h -3.4999 q 4.4331,-13.0661 15.6326,-20.7657 11.1995,-7.6996 26.1321,-7.6996 19.3657,0 29.1652,11.4327 9.7995,11.1995 9.7995,34.9983 v 73.0298 h -21.2323 v -71.8631 q 0,-16.0993 -5.5997,-23.0989 -5.5997,-7.233 -17.7325,-7.233 -14.2326,0 -22.3989,9.7995 -8.1662,9.5662 -8.1662,26.1321 v 66.2634 h -21.2323 v -71.8631 q 0,-16.0993 -5.5998,-23.0989 -5.3664,-7.233 -17.7324,-7.233 -14.2327,0 -22.399,9.7995 -7.9329,9.5662 -7.9329,26.1321 v 66.2634 z" style="-inkscape-font-specification:'Mulish Medium'" id="path11141"></path><path d="m 2774.5402,-1572.2577 q -27.9986,0 -44.3312,-16.0992 -16.0992,-16.0992 -16.0992,-44.3312 0,-18.6657 6.9997,-32.1984 7.233,-13.766 19.8324,-21.2323 12.5993,-7.6996 29.3985,-7.6996 16.0992,0 27.2987,6.9996 11.1995,6.7664 17.0325,19.3658 5.8331,12.5993 5.8331,29.8652 v 6.9996 h -89.829 v -12.5994 h 75.363 l -3.9665,3.0332 q 0,-18.1991 -8.1662,-28.2319 -7.933,-10.0329 -23.5656,-10.0329 -17.0325,0 -26.3654,11.8994 -9.3328,11.6661 -9.3328,31.9652 v 2.0999 q 0,21.4656 10.4995,32.4317 10.7328,10.9661 29.6318,10.9661 10.4995,0 19.5991,-3.0331 9.0996,-3.0332 17.4991,-10.0329 l 6.9997,14.6993 q -7.9329,7.233 -19.8324,11.1995 -11.6661,3.9664 -24.4988,3.9664 z" style="-inkscape-font-specification:'Mulish Medium'" id="path11143"></path><path d="m 2891.9005,-1572.2577 q -18.4325,0 -27.9987,-10.0328 -9.3328,-10.2662 -9.3328,-30.7985 v -62.297 h -22.8656 v -16.3325 h 22.8656 v -31.4985 l 21.2323,-5.8331 v 37.3316 h 33.1317 v 16.3325 h -33.1317 v 60.4304 q 0,13.5327 4.6664,19.3657 4.8998,5.5998 13.9993,5.5998 4.6665,0 7.933,-0.7 3.4998,-0.9333 6.2997,-2.0999 v 17.4991 q -3.4999,1.4 -8.1663,2.0999 -4.4331,0.9333 -8.6329,0.9333 z" style="-inkscape-font-specification:'Mulish Medium'" id="path11145"></path><path d="m 2983.3622,-1572.2577 q -27.9987,0 -44.3312,-16.0992 -16.0992,-16.0992 -16.0992,-44.3312 0,-18.6657 6.9996,-32.1984 7.233,-13.766 19.8324,-21.2323 12.5994,-7.6996 29.3986,-7.6996 16.0992,0 27.2987,6.9996 11.1994,6.7664 17.0325,19.3658 5.833,12.5993 5.833,29.8652 v 6.9996 h -89.829 v -12.5994 h 75.3631 l -3.9665,3.0332 q 0,-18.1991 -8.1663,-28.2319 -7.9329,-10.0329 -23.5655,-10.0329 -17.0325,0 -26.3654,11.8994 -9.3329,11.6661 -9.3329,31.9652 v 2.0999 q 0,21.4656 10.4995,32.4317 10.7328,10.9661 29.6319,10.9661 10.4995,0 19.5991,-3.0331 9.0995,-3.0332 17.4991,-10.0329 l 6.9997,14.6993 q -7.933,7.233 -19.8324,11.1995 -11.6661,3.9664 -24.4988,3.9664 z" style="-inkscape-font-specification:'Mulish Medium'" id="path11147"></path><path d="m 3056.8582,-1574.3576 v -88.6623 q 0,-6.9997 -0.4667,-14.2327 -0.2333,-7.4663 -1.1666,-14.4659 h 20.5323 l 2.5666,29.3985 -3.4998,0.2334 q 2.3332,-10.7329 7.9329,-17.7325 5.8331,-7.233 13.766,-10.4995 8.1663,-3.4998 16.7992,-3.4998 3.7331,0 6.2997,0.2333 2.5665,0.2333 5.1331,1.1666 l -0.4667,18.8991 q -3.4998,-1.4 -6.533,-1.6333 -2.7999,-0.4666 -6.9997,-0.4666 -10.2661,0 -17.7324,4.6664 -7.233,4.6665 -11.1995,12.3661 -3.7331,7.6996 -3.7331,16.5659 v 67.6633 z" style="-inkscape-font-specification:'Mulish Medium'" id="path11149"></path><path d="m 3137.5874,-1640.1544 v -12.8327 l 32.6651,-33.365 q 6.533,-6.7664 9.5662,-12.3661 3.0332,-5.5997 3.0332,-11.4328 0,-14.6993 -16.7992,-14.6993 -6.533,0 -13.766,2.7999 -6.9997,2.5665 -12.5994,7.233 l -5.1331,-13.2994 q 6.2997,-5.3664 15.166,-8.3996 9.0995,-3.2665 19.599,-3.2665 15.1659,0 23.7988,7.4663 8.633,7.233 8.633,20.0657 0,7.933 -3.9665,15.6326 -3.9665,7.6996 -12.3661,16.0992 l -27.7653,27.532 v -2.3332 h 48.2977 v 15.1659 z" style="-inkscape-font-specification:'Mulish Medium'" id="path11151"></path></g></g></svg> 