<?xml version="1.0" encoding="UTF-8" standalone="no"?> <svg xmlns:inkscape="http://www.inkscape.org/namespaces/inkscape" xmlns:sodipodi="http://sodipodi.sourceforge.net/DTD/sodipodi-0.dtd" xmlns="http://www.w3.org/2000/svg" xmlns:svg="http://www.w3.org/2000/svg" width="211.66667mm" height="211.66667mm" viewBox="0 0 211.66667 211.66667" version="1.1" id="svg46706" inkscape:version="1.1.1 (3bf5ae0d25, 2021-09-20)" sodipodi:docname="f_line.svg"><defs id="defs46703"><rect x="2079.7087" y="-1772.8665" width="617.00098" height="951.62531" id="rect327232-3-6"></rect><rect x="2079.7087" y="-1772.8665" width="617.00098" height="951.62531" id="rect7967"></rect><rect x="2079.7087" y="-1772.8665" width="617.00098" height="951.62531" id="rect8909"></rect><rect x="2079.7087" y="-1772.8665" width="617.00098" height="951.62531" id="rect10201"></rect><rect x="2079.7087" y="-1772.8665" width="617.00098" height="951.62531" id="rect11265"></rect><rect x="2079.7087" y="-1772.8665" width="617.00098" height="951.62531" id="rect12463"></rect><rect x="2079.7087" y="-1772.8665" width="617.00098" height="951.62531" id="rect13790"></rect><rect x="2079.7087" y="-1772.8665" width="617.00098" height="951.62531" id="rect14336"></rect><rect x="2079.7087" y="-1772.8665" width="617.00098" height="951.62531" id="rect15344"></rect><rect x="2079.7087" y="-1772.8665" width="617.00098" height="951.62531" id="rect16208"></rect><rect x="2079.7087" y="-1772.8665" width="617.00098" height="951.62531" id="rect17282"></rect><rect x="2079.7087" y="-1772.8665" width="617.00098" height="951.62531" id="rect18152"></rect><rect x="2079.7087" y="-1772.8665" width="617.00098" height="951.62531" id="rect19706"></rect><rect x="2079.7087" y="-1772.8665" width="617.00098" height="951.62531" id="rect20354"></rect><rect x="2079.7087" y="-1772.8665" width="617.00098" height="951.62531" id="rect21920"></rect><rect x="2079.7087" y="-1772.8665" width="2452.7324" height="411.29849" id="rect125938"></rect></defs><g inkscape:label="Слой 1" inkscape:groupmode="layer" id="layer1" transform="translate(38.912445,-8.1291084)"><path id="circle57282" style="stroke-width:0.264583" d="m 178.44265,225.08748 a 0.39687499,0.39687499 0 0 1 -0.39687,0.39687 0.39687499,0.39687499 0 0 1 -0.39688,-0.39687 0.39687499,0.39687499 0 0 1 0.39688,-0.39688 0.39687499,0.39687499 0 0 1 0.39687,0.39688 z"></path><path style="fill:#c837ab;fill-rule:evenodd;stroke-width:492.341;stroke-linecap:round;stroke-linejoin:round;paint-order:stroke fill markers;stop-color:#000000" d="m 59.21127,176.8861 c -8.37208,-1.5768 -13.74182,-5.0351 -19.39848,-12.4936 -0.94668,-1.2481 -1.80945,-2.324 -1.91726,-2.3907 -0.40374,-0.2495 -1.464,-0.1493 -1.81887,0.1719 -0.35216,0.3186 -0.36688,0.3099 -0.49041,-0.289 -0.07,-0.3396 -0.45593,-1.9558 -0.85754,-3.5916 -0.93053,-3.7899 -1.05675,-5.0718 -0.6424,-6.5248 0.40447,-1.4182 1.23071,-2.6653 3.24252,-4.8938 0.88972,-0.9857 2.36002,-2.6709 3.26732,-3.7453 0.90731,-1.0743 2.55358,-2.8741 3.65838,-3.9997 1.32452,-1.3493 2.13136,-2.3356 2.36878,-2.8954 0.39913,-0.9412 1.28316,-1.7888 2.04504,-1.9608 1.59906,-0.361 1.61271,-0.3681 1.67121,-0.8638 0.12727,-1.0782 -1.28607,-1.6635 -3.05892,-1.2668 -1.86506,0.4174 -3.56042,1.4275 -5.20699,3.1028 -1.93556,1.9691 -7.49609,8.376 -8.55317,9.8552 -1.11789,1.5639 -2.35411,3.9573 -3.01757,5.8417 -0.30617,0.8697 -0.65876,1.8324 -0.78354,2.1394 l -0.22686,0.558 -0.15292,-0.5354 c -0.0841,-0.2944 -0.24751,-2.0192 -0.36316,-3.8325 -0.37372,-5.8605 0.14884,-6.987 5.06785,-10.9261 2.60148,-2.083 3.30838,-2.8786 3.30838,-3.7234 0,-0.5454 -0.0552,-0.6087 -0.53092,-0.6087 -0.292,0 -1.34387,0.3798 -2.33747,0.8441 -2.67768,1.2513 -3.44027,1.2818 -3.18675,0.1276 0.26692,-1.2152 2.46899,-2.8404 4.84594,-3.5763 0.71621,-0.222 3.0602,-0.9832 5.20887,-1.6918 4.28378,-1.413 5.24201,-1.6296 9.73157,-2.2008 7.30834,-0.9296 9.27761,-0.4356 18.19052,4.5641 4.12904,2.3161 4.78043,2.7482 6.27907,4.1653 4.84887,4.5855 7.78574,10.3984 8.51129,16.8463 0.17729,1.5755 0.1767,2.486 -0.002,4.2582 -0.21648,2.138 -0.20838,2.3047 0.15709,3.2319 0.69109,1.7532 0.43463,3.6737 -0.82444,6.1741 -2.57778,5.1187 -8.52706,8.8654 -15.7896,9.9437 -2.95572,0.4389 -6.61966,0.5202 -8.3938,0.186 z m 8.43776,-1.8322 c 6.12731,-1.721 10.63159,-4.8824 13.28196,-9.322 1.15104,-1.928 2.18522,-4.2344 2.18522,-4.8735 0,-0.5168 -0.0678,-0.6145 -0.42732,-0.6145 -0.56262,0 -1.4209,0.9175 -3.21963,3.4417 -2.71842,3.8148 -5.0554,5.6596 -9.09615,7.1806 -5.89113,2.2175 -10.35946,2.5132 -14.9519,0.989 -4.80527,-1.5947 -8.1632,-4.1199 -10.97631,-8.2541 -2.78627,-4.0948 -3.27994,-5.5183 -3.93667,-11.3513 -0.21846,-1.9406 -0.47552,-2.6649 -0.98008,-2.7623 -1.24704,-0.24 -2.28318,3.1588 -2.13845,7.0149 0.0931,2.4814 0.20296,2.7699 1.81411,4.7647 0.57845,0.7164 1.92638,2.5551 2.99536,4.0862 3.05237,4.3719 5.51128,6.5594 9.5257,8.4736 1.04801,0.4997 2.70075,1.1228 3.67276,1.3849 1.70787,0.4603 1.91432,0.4738 6.13902,0.4037 4.02948,-0.067 4.50799,-0.111 6.11238,-0.5616 z m -2.87264,-6.1486 c 2.37762,-0.6509 3.86875,-1.7129 4.70622,-3.3521 0.25933,-0.5078 1.01807,-1.8053 1.6861,-2.8837 2.64088,-4.2626 3.33528,-6.4693 3.11693,-9.9046 -0.25282,-3.9775 -1.46642,-6.5141 -4.58866,-9.5906 -1.96525,-1.9367 -3.3039,-2.8901 -5.80987,-4.138 -2.75731,-1.373 -4.95636,-1.9307 -7.21965,-1.8314 -1.82174,0.08 -2.45418,0.35 -4.83762,2.0651 -3.82259,2.7505 -5.10895,4.1163 -6.52612,6.9288 l -0.74992,1.4881 0.12072,3.9997 c 0.13241,4.3875 0.34402,5.736 1.2365,7.8799 0.86157,2.0696 1.88915,3.5501 3.69809,5.3282 2.31054,2.2712 4.51031,3.4943 7.55582,4.2005 1.4835,0.3441 6.07959,0.2296 7.61146,-0.1899 z m 8.06144,-2.0072 c 1.75874,-0.8783 4.42582,-4.0853 6.1725,-7.422 1.02634,-1.9606 1.26587,-2.725 1.49734,-4.7783 0.32811,-2.9108 -0.33935,-6.1507 -1.94749,-9.4532 -2.77294,-5.6945 -7.73616,-9.9022 -15.34204,-13.0065 -2.69884,-1.1015 -5.27293,-1.7589 -6.88644,-1.7589 -2.00802,0 -2.86877,0.4679 -2.41614,1.3137 0.28864,0.5393 0.95945,0.8181 4.42187,1.8379 3.69828,1.0894 5.54376,1.7904 7.47791,2.8404 5.71832,3.1046 9.25873,7.0489 11.10362,12.3703 0.46247,1.334 0.50252,1.6802 0.5014,4.3334 -0.002,2.5118 -0.0554,3.0393 -0.42182,4.0925 -0.83267,2.3939 -2.49742,5.0978 -4.55798,7.4032 -0.57567,0.6441 -1.18092,1.3759 -1.34498,1.6263 -0.66256,1.0112 0.2741,1.3344 1.74225,0.6012 z M 49.47195,137.369 c 0.5288,-0.201 1.19939,-0.5933 1.49024,-0.8721 0.55493,-0.5314 0.70045,-1.2613 0.28346,-1.4213 -0.51942,-0.1995 -3.46245,1.1337 -4.04035,1.8299 -0.17577,0.2118 -0.17425,0.3314 0.007,0.5498 0.31587,0.3805 1.11089,0.3501 2.25966,-0.086 z" id="path2960"></path><path style="fill:#ff5555;fill-rule:evenodd;stroke-width:492.341;stroke-linecap:round;stroke-linejoin:round;paint-order:stroke fill markers;stop-color:#000000" d="m 24.52528,141.8881 c -0.0164,-1.8069 0.55432,-7.9654 0.82537,-8.9063 0.56863,-1.9737 2.89161,-4.8034 5.6468,-6.8786 5.43698,-4.0953 13.1742,-6.0921 23.65606,-6.1054 6.72696,-0.01 8.19984,0.5681 13.67326,5.3524 2.2606,1.9761 5.44586,5.0749 5.69516,5.5406 0.40886,0.764 -0.37202,0.928 -1.59623,0.3355 -0.41929,-0.2031 -2.30835,-1.3809 -4.19793,-2.6177 -3.88862,-2.545 -6.11377,-3.7019 -8.27239,-4.3012 -1.33932,-0.3719 -1.92567,-0.4138 -5.85996,-0.4195 -3.77846,-0.01 -4.69991,0.053 -6.79012,0.4268 -4.71961,0.8451 -8.11185,1.89 -11.53391,3.5531 -3.73911,1.8173 -5.8168,3.7882 -6.40217,6.0736 -0.12811,0.5001 -0.35408,1.2538 -0.50212,1.6745 -0.31441,0.8937 -3.09625,5.6927 -3.83025,6.6074 l -0.50283,0.6269 z" id="path3036"></path><path style="fill:#ffaaaa;fill-rule:evenodd;stroke-width:492.341;stroke-linecap:round;stroke-linejoin:round;paint-order:stroke fill markers;stop-color:#000000" d="m 79.87834,175.6387 c 0.19493,-0.23 1.02411,-1.1342 1.84264,-2.0094 2.5771,-2.7555 4.35414,-5.7236 5.22939,-8.7346 0.31092,-1.0695 0.35063,-1.8539 0.34379,-6.79 -0.007,-5.0475 -0.0467,-5.7559 -0.4158,-7.4112 -1.17893,-5.2875 -3.47097,-9.7128 -7.74935,-14.9615 -3.38228,-4.1494 -3.64006,-4.5061 -3.64006,-5.0351 0,-0.8889 -1.27914,-2.7086 -3.76634,-5.3583 -3.16844,-3.3755 -3.86092,-4.2547 -3.86092,-4.902 0,-2.5298 4.95127,2.1264 11.86571,11.1586 4.54099,5.9319 6.2561,8.5094 7.86059,11.813 1.4518,2.9892 2.21323,5.1303 2.81169,7.9063 0.36174,1.678 0.4222,2.517 0.42894,5.9529 0.009,4.7313 -0.24905,6.343 -1.38666,8.6505 -1.55486,3.1542 -5.22415,7.146 -8.77767,9.5497 -1.02599,0.6941 -1.27535,0.7482 -0.78595,0.1711 z" id="path3151"></path><path style="fill:#6c5353;fill-rule:evenodd;stroke-width:492.341;stroke-linecap:round;stroke-linejoin:round;paint-order:stroke fill markers;stop-color:#000000" d="m 92.05043,168.6947 c -0.002,-0.1099 0.19959,-0.8825 0.44935,-1.717 1.9676,-6.5735 2.06513,-13.309 0.27036,-18.67 -2.46409,-7.3605 -7.91101,-15.2951 -17.44757,-25.4169 -1.85959,-1.9734 -3.33136,-3.6688 -3.27062,-3.7669 0.40282,-0.6519 2.75819,0.3862 4.73922,2.0887 1.67832,1.4422 8.38155,8.8367 10.35146,11.419 3.65042,4.785 8.2944,12.8072 9.4498,16.3244 0.58593,1.7834 0.89073,4.224 0.80577,6.4512 -0.0705,1.8476 -0.17571,2.4184 -0.77155,4.1856 -0.37943,1.1255 -1.26557,3.2184 -1.96917,4.6508 -1.25361,2.5522 -2.59761,4.8468 -2.60705,4.4511 z" id="path3264"></path><path style="fill:#008000;fill-rule:evenodd;stroke-width:492.341;stroke-linecap:round;stroke-linejoin:round;paint-order:stroke fill markers;stop-color:#000000" d="m 106.85818,144.8315 c -0.38711,-3.1426 -1.03168,-6.0669 -1.71337,-7.7729 -0.28078,-0.7028 -1.59787,-3.2031 -2.92685,-5.5562 -6.00376,-10.6314 -9.20728,-14.4571 -15.84621,-18.9244 -3.16346,-2.1285 -5.76196,-3.3638 -7.28039,-3.4604 -1.09301,-0.069 -1.184,-0.046 -1.184,0.3049 0,0.4824 0.80619,1.1449 3.10057,2.5479 4.88022,2.9841 6.82393,4.4114 9.10246,6.6837 3.79814,3.788 8.03973,10.3845 9.40697,14.6297 l 0.4031,1.2515 -0.44932,0.9949 c -0.43492,0.963 -0.4493,1.1378 -0.4493,5.4564 0,3.9649 -0.0335,4.468 -0.30144,4.5202 -0.64739,0.1261 -1.37828,-1.1862 -2.85472,-5.1256 -0.41399,-1.1044 -0.67649,-1.4954 -1.4316,-2.1322 -0.61789,-0.521 -1.73676,-1.9853 -3.37269,-4.4143 -2.23088,-3.3121 -2.74614,-3.9399 -5.80768,-7.0762 -1.84782,-1.8929 -3.75161,-3.9548 -4.23068,-4.5821 -1.93668,-2.5361 -4.8729,-4.6146 -6.84933,-4.8487 -0.53009,-0.063 -2.42945,0 -4.22083,0.1329 -3.12954,0.2372 -3.33799,0.2312 -5.32504,-0.1565 -1.1374,-0.2219 -2.654,-0.486 -3.37023,-0.5867 -1.67083,-0.2352 -6.1147,-0.2402 -8.74343,-0.01 -1.12551,0.099 -3.67877,0.3106 -5.67395,0.4713 -1.99518,0.1604 -4.33917,0.3783 -5.20887,0.484 -7.08325,0.8608 -13.69345,4.9113 -18.63982,11.4215 -0.99863,1.3143 -1.63751,1.9336 -1.63751,1.5875 0,-0.5238 1.15443,-5.3573 1.59624,-6.6835 0.60945,-1.8293 1.11043,-2.5717 2.53882,-3.7632 3.5855,-2.9901 8.40535,-5.2744 14.65404,-6.9451 2.01238,-0.5381 2.52402,-0.5791 2.73472,-0.2197 0.22621,0.386 1.17381,0.8124 2.10453,0.9472 0.76316,0.1103 3.91317,-0.2398 11.99654,-1.3334 3.50405,-0.474 7.38311,-0.4028 11.13,0.2041 5.14933,0.8338 7.08363,1.5243 11.34157,4.048 1.24876,0.7402 2.94021,1.6474 3.75873,2.0161 2.32879,1.0491 2.55053,1.1975 3.85425,2.5796 1.27871,1.3554 1.62258,1.9739 1.28513,2.3112 -0.29501,0.295 -0.79999,0.01 -2.80534,-1.6105 -1.9004,-1.5311 -2.61307,-1.7857 -2.61307,-0.9336 0,0.8368 2.19552,2.9151 4.06412,3.8472 1.96623,0.9806 2.83691,1.82 4.48908,4.3267 1.4052,2.132 2.27888,3.8507 3.04889,5.9977 0.94342,2.6308 1.23189,2.8982 1.83834,1.7049 0.69598,-1.3696 0.2882,-3.5144 -1.25351,-6.5931 -1.04401,-2.0847 -4.72734,-8.1847 -5.87801,-9.7341 -0.93979,-1.2658 -2.62642,-2.5381 -6.48257,-4.8908 -1.89968,-1.1588 -4.48441,-2.7541 -5.74383,-3.5448 -3.00664,-1.888 -4.47504,-2.4283 -9.01636,-3.3184 -3.98271,-0.7805 -5.08008,-1.1357 -5.26018,-1.7032 -0.18638,-0.5873 0.0915,-1.3773 0.68336,-1.9432 0.55469,-0.5302 0.59159,-0.5374 2.64189,-0.5188 1.49297,0.013 3.15475,0.2084 5.89296,0.6915 2.0975,0.3702 4.73448,0.761 5.85997,0.8689 4.02012,0.3847 5.20476,0.823 8.84956,3.2739 3.53858,2.3795 5.73078,4.1444 8.18147,6.5866 4.46448,4.449 7.65978,9.0368 11.07868,15.9067 1.9598,3.9381 2.02851,4.299 1.85917,9.7666 -0.12772,4.1233 -0.23913,5.3949 -0.4727,5.3949 -0.0743,0 -0.27781,-1.1594 -0.45233,-2.5763 z" id="path3340"></path><path style="fill:#666666;fill-rule:evenodd;stroke-width:492.341;stroke-linecap:round;stroke-linejoin:round;paint-order:stroke fill markers;stop-color:#000000" d="m 100.52728,153.7329 c -0.13291,-6.0685 -0.1079,-6.4796 0.53176,-8.7374 0.36716,-1.2961 0.36403,-2.4165 -0.0162,-5.8266 -0.24899,-2.2325 -0.2632,-2.8461 -0.0754,-3.2554 l 0.23148,-0.5046 0.71767,0.8059 c 1.94927,2.1891 2.56229,7.616 1.48503,13.1464 -0.42665,2.1902 -1.58822,6.7382 -2.3044,9.0225 l -0.43743,1.3953 z" id="path3416"></path><path style="fill:#ff9955;fill-rule:evenodd;stroke-width:492.341;stroke-linecap:round;stroke-linejoin:round;paint-order:stroke fill markers;stop-color:#000000" d="m 110.27977,134.9979 c -3.59159,-8.3001 -8.81727,-16.1088 -13.86862,-20.7244 -2.91468,-2.6634 -10.8798,-8.5409 -12.79824,-9.4441 -1.34909,-0.6353 -2.38569,-0.8838 -10.94935,-2.624 -7.19752,-1.4624 -9.60255,-2.0558 -12.35174,-3.047 -2.55305,-0.9204 -4.41912,-1.1533 -7.0789,-0.8838 -3.57912,0.3629 -6.28854,1.3027 -12.85486,4.4586 -2.32902,1.1191 -4.90431,2.3199 -5.72284,2.6678 -1.74771,0.7428 -2.01931,1.2162 -1.00046,1.7431 1.24902,0.6458 2.84956,0.2053 8.78813,-2.4183 5.88336,-2.5991 8.92164,-3.4705 12.21062,-3.5016 2.08644,-0.019 3.14406,0.2408 3.96045,0.9769 1.13443,1.0223 0.29453,1.4702 -3.65367,1.9479 -4.74883,0.5748 -7.09361,1.3039 -12.61782,3.9247 -2.08081,0.9872 -4.60978,2.0287 -5.85997,2.4135 -4.35782,1.3413 -5.20252,1.6389 -6.92932,2.4403 -2.28499,1.0607 -4.82095,2.778 -7.36136,4.9848 -2.05263,1.7831 -2.47397,2.056 -2.23974,1.4515 0.0694,-0.179 0.41896,-1.106 0.77687,-2.0599 2.26958,-6.0486 2.53345,-6.3746 7.47249,-9.227 3.00926,-1.7381 3.28269,-1.9478 4.11575,-3.1586 0.59997,-0.872 2.27271,-2.0809 4.2511,-3.0721 1.53861,-0.7709 3.26008,-1.8309 4.71825,-2.9057 3.16583,-2.3334 8.37257,-4.0038 15.03568,-4.8238 4.03745,-0.497 5.09505,-0.361 6.45175,0.8302 1.46053,1.2824 3.18212,1.8784 10.76166,3.7249 9.57525,2.3328 11.73836,2.7912 14.55189,3.0839 1.73979,0.1811 3.24576,0.4523 4.10223,0.7386 4.61551,1.5438 9.57304,5.2263 14.88323,11.0561 2.04218,2.2418 3.17954,3.9077 3.97357,5.8199 0.53391,1.2857 2.26884,7.5739 2.12843,7.7144 -0.0372,0.037 -0.46682,-0.5861 -0.9546,-1.385 -2.18726,-3.5827 -2.828,-4.5545 -4.26943,-6.4754 -4.6731,-6.2277 -9.57585,-10.7203 -14.97965,-13.7271 -2.38655,-1.3279 -4.85485,-2.0041 -5.06759,-1.3879 -0.19225,0.5567 0.46775,1.1461 3.64777,3.2578 4.0845,2.7122 5.92388,4.1719 8.49434,6.7414 2.34653,2.3455 4.65805,5.1931 6.87083,8.4642 2.25361,3.3317 2.77232,4.4305 3.2867,6.9624 0.46015,2.265 1.0924,7.0562 0.94994,7.1985 -0.0469,0.047 -0.44006,-0.734 -0.87352,-1.7357 z" id="path3566"></path><path style="fill:#ff6600;fill-rule:evenodd;stroke-width:492.341;stroke-linecap:round;stroke-linejoin:round;paint-order:stroke fill markers;stop-color:#000000" d="m 42.85722,112.089 c -0.21468,-0.3475 0.51243,-1.3626 1.40965,-1.9683 1.89267,-1.2773 5.15669,-2.2798 11.2095,-3.4426 3.55644,-0.6831 3.83356,-0.692 4.35357,-0.1384 0.5189,0.5523 0.51336,1.0765 -0.0166,1.5745 -0.85976,0.8075 -2.18027,1.1775 -9.99827,2.8013 -5.62168,1.1676 -6.83503,1.3723 -6.95784,1.1735 z" id="path3642"></path><path style="fill:#0000ff;fill-rule:evenodd;stroke-width:492.341;stroke-linecap:round;stroke-linejoin:round;paint-order:stroke fill markers;stop-color:#000000" d="m 112.03112,115.1823 c -2.52568,-3.1453 -8.23902,-8.8323 -10.74552,-10.6959 -3.88989,-2.892 -6.71422,-4.1216 -12.07297,-5.2549 -1.50703,-0.3188 -5.65087,-1.2906 -9.20854,-2.1594 -3.55765,-0.8689 -8.10088,-1.9525 -10.09605,-2.408 -5.22685,-1.1931 -5.88778,-1.3828 -6.26252,-1.7968 -0.32774,-0.3622 -0.31898,-0.3877 0.34106,-0.9926 0.81472,-0.7468 1.70177,-1.0186 3.31702,-1.0167 1.6653,0 3.70063,0.4589 9.76662,2.1927 7.9551,2.2736 12.78744,3.5169 15.34601,3.9477 3.31135,0.5578 4.95741,1.2556 8.42653,3.573 3.17316,2.1196 7.53484,5.9064 9.00745,7.8201 0.45634,0.5932 1.18954,1.808 1.62934,2.7 0.85475,1.7335 2.58898,6.1703 2.46161,6.2977 -0.0422,0.042 -0.90166,-0.951 -1.91004,-2.2069 z" id="path3829"></path><path style="fill:#008080;fill-rule:evenodd;stroke-width:492.341;stroke-linecap:round;stroke-linejoin:round;paint-order:stroke fill markers;stop-color:#000000" d="m 20.05181,108.0651 c 0,-0.2386 1.79815,-3.6817 2.85619,-5.4688 1.32073,-2.2308 2.07604,-2.9618 4.23504,-4.0978 1.99069,-1.0474 2.58237,-1.462 2.58237,-1.809 0,-0.4674 0.90945,-1.5046 1.82806,-2.0854 1.22344,-0.7732 3.06187,-1.3883 6.17945,-2.067 3.577,-0.7789 5.03754,-1.2238 5.5336,-1.6861 0.49232,-0.4586 0.50826,-0.6169 0.1029,-1.0223 -0.34326,-0.3432 -1.26827,-0.3034 -4.84046,0.2078 -3.7384,0.5353 -5.80808,1.241 -11.40799,3.8889 -3.95862,1.8718 -4.94891,2.2741 -5.13712,2.0858 -0.068,-0.068 0.11276,-0.4399 0.40167,-0.8263 0.81445,-1.0895 3.84142,-4.148 4.38779,-4.4334 0.82047,-0.4286 5.33991,-1.9287 7.51258,-2.4937 4.26678,-1.1091 6.49788,-1.1769 9.13456,-0.2771 2.29783,0.7839 2.62045,0.8249 4.99338,0.6328 3.76356,-0.3045 6.33271,-1.2098 6.33271,-2.2311 v -0.4577 l -4.18571,-0.146 c -3.29981,-0.1152 -4.71391,-0.2486 -6.68155,-0.6307 -4.27409,-0.8301 -6.506,-0.5432 -13.92736,1.7888 -1.97291,0.62 -3.83061,1.1273 -4.12821,1.1273 -0.57342,0 -0.90476,-0.2719 -0.51547,-0.4228 0.12731,-0.049 1.11047,-0.7823 2.1848,-1.6286 1.07431,-0.8465 2.4556,-1.7682 3.06948,-2.0485 1.52735,-0.6976 5.20416,-1.8514 8.55744,-2.6857 2.04714,-0.5094 3.33555,-0.9587 4.83678,-1.6869 2.64773,-1.2843 3.91147,-1.4792 8.63848,-1.3336 3.84857,0.1188 6.31525,0.485 7.78103,1.1548 1.13639,0.5195 1.36504,0.9021 0.84797,1.4191 -0.69496,0.6951 -2.45114,0.8157 -6.2434,0.4296 -3.834,-0.3904 -9.25176,-0.4549 -10.04742,-0.1194 -0.31586,0.1333 -0.51158,0.3581 -0.51158,0.5881 0,0.7802 1.12126,1.1026 5.20886,1.4972 3.1931,0.308 4.22975,0.5277 5.47499,1.1592 1.11367,0.565 1.14847,0.57 2.54478,0.3685 1.85645,-0.2676 3.3058,-0.7909 4.70273,-1.6978 1.55899,-1.0123 1.76807,-1.0736 4.89612,-1.4355 4.16875,-0.4823 9.43853,-0.4468 12.08993,0.082 2.92459,0.5828 5.98437,1.678 9.45091,3.3829 4.28992,2.1097 7.58761,4.3816 15.62658,10.766 3.63326,2.8853 4.72491,3.9435 5.90706,5.7256 0.89111,1.3434 3.57798,6.3669 3.46216,6.4731 -0.0373,0.034 -1.53004,-1.3217 -3.31735,-3.0127 -3.83801,-3.6316 -6.32344,-5.6932 -9.70838,-8.0525 -2.9133,-2.0305 -3.90251,-2.8341 -6.32406,-5.1368 -1.66809,-1.586 -1.9975,-1.8054 -4.65078,-3.0977 -1.57054,-0.765 -3.74708,-1.7341 -4.83677,-2.1535 -6.54559,-2.5194 -13.3663,-2.7558 -13.3663,-0.4631 0,0.4753 0.19526,0.529 2.60443,0.7155 5.21291,0.4041 16.30937,4.2383 18.63951,6.4402 0.79157,0.7482 0.86474,1.0016 0.36635,1.2681 -0.49068,0.2626 -2.02463,-0.097 -6.95531,-1.6334 -2.32491,-0.7244 -5.71532,-1.7448 -7.53422,-2.2681 -4.70063,-1.3519 -5.93792,-1.8644 -7.22873,-2.9939 l -1.08637,-0.9508 -1.86774,0.1047 c -2.23384,0.1252 -3.48402,0.4457 -9.21594,2.3631 -2.40444,0.8044 -6.106,1.9294 -8.22566,2.5005 -2.11969,0.5711 -4.79853,1.3666 -5.95301,1.768 -2.84425,0.9885 -3.19964,1.0697 -6.18471,1.4153 -3.58752,0.4152 -8.68042,1.8855 -8.80695,2.5426 -0.0756,0.3926 0.85057,0.8891 1.6584,0.8891 0.32845,0 1.84567,-0.2976 3.37157,-0.6614 3.0545,-0.7284 4.14206,-0.7768 4.14206,-0.1847 0,0.5122 -1.13182,1.2325 -3.53459,2.2492 -6.03073,2.5522 -8.5867,3.8728 -12.58248,6.5021 -2.53155,1.6657 -3.1371,2.0255 -3.1371,1.8642 z" id="path3905"></path><path style="fill:#808000;fill-rule:evenodd;stroke-width:492.341;stroke-linecap:round;stroke-linejoin:round;paint-order:stroke fill markers;stop-color:#000000" d="M 108.97447,95.9455 C 105.03556,92.6714 98.78286,87.942 95.48725,85.744 92.61545,83.8288 85.83307,80.3871 83.25752,79.5381 79.8047,78.4001 77.06301,77.9993 70.28008,77.6413 65.95344,77.413 64.91463,77.2889 61.90872,76.6419 55.29144,75.2174 49.21309,75.0775 44.83728,76.2491 c -4.30759,1.1533 -12.69087,4.1321 -16.20069,5.7564 -1.26244,0.584 -2.33168,1.0258 -2.37609,0.9814 -0.12211,-0.1221 2.84838,-2.8845 4.70663,-4.3768 1.9949,-1.6023 4.17056,-2.7034 7.75385,-3.9249 5.41561,-1.8459 9.03074,-2.3666 15.18842,-2.1883 2.09749,0.061 5.52976,0.2784 7.62725,0.4833 2.0975,0.2049 5.61347,0.503 7.81328,0.6628 6.69729,0.4865 10.52976,1.0675 13.76628,2.0869 2.87426,0.9055 8.38753,3.9718 14.97547,8.3295 6.2337,4.1232 8.68742,6.1789 10.77629,9.0276 1.13868,1.5527 3.64109,5.3302 3.64109,5.4963 0,0.2521 -0.56737,-0.1714 -3.53459,-2.6378 z" id="path3981"></path><path style="fill:#aa0000;fill-rule:evenodd;stroke-width:492.341;stroke-linecap:round;stroke-linejoin:round;paint-order:stroke fill markers;stop-color:#000000" d="m 106.63618,86.7316 c -3.68988,-2.716 -7.98302,-5.6188 -11.80003,-7.9783 -2.77946,-1.7181 -3.89401,-2.4776 -5.34938,-3.6451 -2.17733,-1.7464 -4.65072,-2.7389 -8.96691,-3.5976 -2.96136,-0.5892 -5.12693,-0.8021 -12.2861,-1.207 -8.4942,-0.4807 -16.01252,-0.7073 -19.99831,-0.6027 -3.37486,0.088 -4.14721,0.1661 -5.67394,0.5711 -2.35231,0.6237 -4.8109,1.4923 -8.73372,3.086 -1.78521,0.725 -3.32018,1.2935 -3.41106,1.2632 -0.26074,-0.087 3.80174,-3.2218 6.56387,-5.0654 1.38126,-0.9219 3.7687,-2.3243 5.30542,-3.1165 1.6597,-0.8556 3.35901,-1.8962 4.18568,-2.5631 0.76544,-0.6174 1.9777,-1.4075 2.69391,-1.7558 4.03633,-1.9622 10.6744,-2.3317 16.83578,-0.9372 3.99083,0.9033 5.50426,1.7254 4.58327,2.4898 -0.61905,0.5136 -2.28797,0.5993 -6.018,0.3085 -5.89983,-0.4599 -10.20722,-0.3174 -14.04508,0.4647 -2.29773,0.4683 -2.93722,0.7697 -2.93722,1.3848 0,0.3682 0.13082,0.4863 0.69761,0.63 0.39019,0.099 6.72307,0.2221 14.37086,0.2794 7.87967,0.059 14.34327,0.1866 15.25453,0.3007 0.86967,0.1091 3.21704,0.5273 5.21634,0.9295 1.9993,0.4024 4.67815,0.867 5.953,1.0327 5.86082,0.7614 7.39021,1.2948 10.22207,3.564 1.9472,1.5603 6.65022,6.1157 6.48616,6.2823 -0.066,0.067 -1.07056,-0.4947 -2.23236,-1.2486 -3.1277,-2.0295 -5.66517,-3.4197 -7.91543,-4.3367 -2.1218,-0.8649 -3.28087,-1.131 -4.06589,-0.9341 -0.38783,0.098 -0.46808,0.2156 -0.42093,0.6196 0.0711,0.6101 0.58084,0.9649 4.33693,3.0189 4.0232,2.2002 6.26113,3.7454 8.34557,5.7626 1.74238,1.6858 6.38803,7.1949 6.21411,7.3686 -0.045,0.045 -1.57986,-1.0207 -3.41075,-2.3683 z" id="path4057"></path><path style="fill:#782121;fill-rule:evenodd;stroke-width:492.341;stroke-linecap:round;stroke-linejoin:round;paint-order:stroke fill markers;stop-color:#000000" d="m 96.51042,67.2862 c -1.17663,-0.3517 -4.48334,-1.0977 -7.3482,-1.6578 -7.17045,-1.4022 -14.21005,-2.8373 -15.0338,-3.0647 -0.37745,-0.1043 -1.35318,-0.6919 -2.16825,-1.3062 -3.23405,-2.4368 -8.80136,-4.2606 -13.00688,-4.2606 -4.75911,0 -9.0138,1.1434 -13.3862,3.5975 -4.15073,2.3296 -4.62418,2.5806 -6.23264,3.3048 -0.90897,0.4093 -1.68805,0.7088 -1.73131,0.6654 -0.18993,-0.19 9.04858,-6.1629 10.9646,-7.0889 4.09846,-1.9808 8.77213,-3.1917 13.06192,-3.3841 l 2.41839,-0.1086 2.60328,1.2465 c 5.83671,2.795 8.48362,3.7264 14.00629,4.9282 6.41609,1.396 8.58221,2.1429 13.14257,4.5315 2.2648,1.1862 5.5007,3.0746 5.5007,3.2103 0,0.1614 -0.74946,-0.01 -2.79047,-0.6133 z" id="path4133"></path><path style="fill:#d40055;fill-rule:evenodd;stroke-width:492.341;stroke-linecap:round;stroke-linejoin:round;paint-order:stroke fill markers;stop-color:#000000" d="m 57.19714,166.0183 c -3.4613,-0.9331 -6.59368,-3.3862 -8.04699,-6.3021 -0.60237,-1.2085 -0.81114,-3.1938 -0.46407,-4.413 0.11477,-0.4033 0.2911,-1.8501 0.39188,-3.2152 0.14278,-1.9344 0.31098,-2.8675 0.76212,-4.228 1.04663,-3.1565 3.01324,-5.5845 5.5235,-6.8199 1.14892,-0.5651 1.36202,-0.6068 3.00718,-0.5877 2.06966,0.024 3.03043,0.334 4.85009,1.5629 4.30746,2.9093 6.7475,5.5432 7.8511,8.4748 0.35107,0.9324 0.41426,1.4639 0.40782,3.4288 -0.007,2.1529 -0.0516,2.4411 -0.59951,3.8845 -1.19217,3.1401 -3.65492,6.3003 -5.80148,7.4444 -2.11058,1.1249 -5.38091,1.4445 -7.88164,0.7705 z m 5.18406,-3.269 c 1.98642,-0.5108 4.39192,-2.5835 5.39068,-4.6446 0.67479,-1.3926 0.93756,-3.3303 0.67075,-4.946 -0.25928,-1.5701 -0.71516,-2.5246 -1.73289,-3.6286 -1.46353,-1.5879 -2.68273,-2.0186 -4.86001,-1.7173 -2.64157,0.3656 -5.26965,1.7424 -5.99191,3.139 -0.37509,0.7255 -0.33863,2.3427 0.0732,3.2463 1.03656,2.2738 3.63682,3.4778 5.67337,2.6269 1.22321,-0.511 1.85325,-2.0745 1.12816,-2.7998 -0.39668,-0.3967 -0.58449,-0.3702 -1.22984,0.1729 -0.68085,0.5727 -0.9122,0.5805 -1.39867,0.046 -0.74943,-0.8228 -0.81347,-1.1336 -0.40396,-1.9614 0.40174,-0.8119 1.53079,-1.5276 2.40687,-1.5256 2.30426,0.01 3.8646,1.85 3.66529,4.3331 -0.21982,2.7385 -2.33945,4.7826 -5.27164,5.0835 -2.13556,0.2192 -3.94169,-0.6042 -6.57303,-2.9966 -1.64769,-1.4982 -2.35764,-1.9547 -3.04121,-1.9555 -0.42364,0 -0.51157,0.08 -0.51157,0.4704 0,1.0739 1.77317,3.7328 3.38718,5.0793 2.42722,2.0246 5.60296,2.7534 8.61921,1.9777 z m -5.57461,-16.5225 c 0.81099,-0.2405 2.24308,-0.625 3.18244,-0.8547 1.03586,-0.2535 1.83647,-0.5599 2.03459,-0.779 0.31285,-0.3455 0.30923,-0.3783 -0.0856,-0.773 -0.37523,-0.3748 -0.59144,-0.4112 -2.40666,-0.4057 -2.35699,0.01 -3.52806,0.4144 -4.59727,1.5978 -0.72742,0.8052 -0.8096,1.1695 -0.32711,1.4507 0.45419,0.2644 0.54233,0.255 2.19958,-0.2361 z" id="path4246"></path><path style="fill:#a0892c;fill-rule:evenodd;stroke-width:492.341;stroke-linecap:round;stroke-linejoin:round;paint-order:stroke fill markers;stop-color:#000000" d="m 84.41842,57.648 c -4.69043,-0.8078 -7.73345,-1.4546 -10.53514,-2.2395 -2.45731,-0.6882 -7.5892,-2.8714 -7.33867,-3.1219 0.0855,-0.085 0.47956,-0.2292 0.87576,-0.3195 0.61762,-0.1409 0.8663,-0.089 1.74354,0.3655 1.2433,0.6438 1.54271,0.7299 6.23203,1.7929 4.79266,1.0866 7.87297,1.9345 11.24211,3.095 1.4906,0.5134 2.74508,0.9662 2.7877,1.006 0.22305,0.2091 -1.7745,-0.022 -5.00733,-0.5785 z" id="path4322"></path><g aria-label="2" transform="matrix(0.07559897,0,0,0.07559897,-118.00759,274.3251)" id="text327074-5-7" style="font-size:116.661px;line-height:1.1;white-space:pre;shape-inside:url(#rect327232-3-6);fill:#ffffff"><path d="m 2089.6252,-1673.6124 v -8.0496 l 28.6986,-30.0985 q 5.5997,-5.7164 8.2829,-10.9662 2.7999,-5.2497 2.7999,-10.8494 0,-6.883 -4.3165,-10.3829 -4.1998,-3.6165 -12.3661,-3.6165 -6.2996,0 -11.8994,2.3333 -5.483,2.2165 -10.4995,6.883 l -3.8498,-8.283 q 4.7831,-4.6664 12.0161,-7.4663 7.3496,-2.7998 15.3993,-2.7998 12.5993,0 19.4823,5.833 6.883,5.7164 6.883,16.4492 0,7.8163 -3.8498,14.9326 -3.7331,6.9997 -11.0828,14.466 l -25.0821,25.4321 v -3.0332 h 43.3979 v 9.2162 z" style="font-weight:500;font-family:Mulish;-inkscape-font-specification:'Mulish Medium'" id="path47347"></path></g><g aria-label="1" transform="matrix(0.07559897,0,0,0.07559897,-100.84603,282.8623)" id="text7965" style="font-size:116.661px;line-height:1.1;white-space:pre;shape-inside:url(#rect7967);fill:#ffffff"><path d="m 2094.1749,-1673.6124 v -9.2162 h 19.2491 v -63.8136 h 5.4831 l -22.9822,14.2327 v -10.6162 l 20.5323,-12.8327 h 7.8163 v 73.0298 h 18.0824 v 9.2162 z" style="font-weight:500;font-family:Mulish;-inkscape-font-specification:'Mulish Medium'" id="path47344"></path></g><g aria-label="3" transform="matrix(0.07559897,0,0,0.07559897,-123.13747,253.8057)" id="text8907" style="font-size:116.661px;line-height:1.1;white-space:pre;shape-inside:url(#rect8909);fill:#ffffff"><path d="m 2114.124,-1672.5624 q -8.3996,0 -16.0992,-2.5666 -7.583,-2.5665 -12.7161,-7.233 l 3.8498,-8.3995 q 5.7164,4.6664 11.7828,6.7663 6.0664,2.0999 12.8327,2.0999 8.9829,0 13.6493,-3.7332 4.6665,-3.8498 4.6665,-10.9661 0,-6.9997 -4.7831,-10.6161 -4.6665,-3.6165 -13.766,-3.6165 h -12.5994 v -8.9829 h 11.7827 q 7.6997,0 12.3661,-3.9665 4.6665,-3.9665 4.6665,-10.8495 0,-6.2997 -4.3165,-9.5662 -4.1998,-3.3832 -12.0161,-3.3832 -13.1827,0 -22.8655,9.2163 l -3.8499,-8.283 q 4.8998,-4.8997 12.1328,-7.5829 7.233,-2.6832 15.2826,-2.6832 12.2494,0 19.249,5.5997 6.9997,5.5997 6.9997,15.6326 0,7.5829 -4.3165,13.066 -4.1997,5.3664 -11.5494,7.1163 v -1.2832 q 8.6329,1.5165 13.416,7.1163 4.7831,5.483 4.7831,13.766 0,10.8494 -7.6996,17.1491 -7.583,6.1831 -20.8823,6.1831 z" style="font-weight:500;font-family:Mulish;-inkscape-font-specification:'Mulish Medium'" id="path47341"></path></g><g aria-label="4" transform="matrix(0.07559897,0,0,0.07559897,-71.2786,288.7245)" id="text10199" style="font-size:116.661px;line-height:1.1;white-space:pre;shape-inside:url(#rect10201);fill:#ffffff"><path d="m 2123.9235,-1673.6124 v -17.3825 h -38.6148 v -7.8163 l 40.3647,-57.0472 h 8.8663 v 56.2306 h 12.366 v 8.6329 h -12.366 v 17.3825 z m 0,-26.0154 v -43.3979 h 2.6832 l -32.5484,45.9645 v -2.5666 z" style="font-weight:500;font-family:Mulish;-inkscape-font-specification:'Mulish Medium'" id="path47338"></path></g><g aria-label="5" transform="matrix(0.07559897,0,0,0.07559897,-64.6576,281.5073)" id="text11263" style="font-size:116.661px;line-height:1.1;white-space:pre;shape-inside:url(#rect11265);fill:#ffffff"><path d="m 2116.1072,-1672.5624 q -5.3664,0 -10.6161,-1.1666 -5.1331,-1.1666 -9.6829,-3.2665 -4.5498,-2.2166 -7.9329,-5.3665 l 3.8498,-8.3995 q 5.7164,4.5497 11.6661,6.7663 5.9497,2.0999 12.4827,2.0999 8.6329,0 13.5327,-4.5498 4.8997,-4.5498 4.8997,-12.1327 0,-7.8163 -4.6664,-12.5994 -4.6664,-4.8998 -12.9494,-4.8998 -5.7164,0 -10.3828,2.3332 -4.5498,2.2166 -8.0496,7.1164 h -7.6996 v -49.231 h 49.3476 v 9.2162 h -38.8482 v 31.1485 h -2.7998 q 3.1498,-4.6664 8.5162,-7.233 5.4831,-2.5665 12.2494,-2.5665 7.933,0 13.6494,3.2665 5.833,3.2665 8.9829,9.2162 3.2665,5.8331 3.2665,13.6494 0,7.8163 -3.4998,13.8826 -3.4999,5.9497 -10.0329,9.3329 -6.4163,3.3832 -15.2826,3.3832 z" style="font-weight:500;font-family:Mulish;-inkscape-font-specification:'Mulish Medium'" id="path47335"></path></g><g aria-label="6" transform="matrix(0.07559897,0,0,0.07559897,-57.91339,275.4023)" id="text12461" style="font-size:116.661px;line-height:1.1;white-space:pre;shape-inside:url(#rect12463);fill:#ffffff"><path d="m 2117.3905,-1672.5624 q -15.0493,0 -23.2156,-10.6162 -8.1662,-10.6161 -8.1662,-29.6319 0,-14.2326 4.0831,-24.0321 4.1998,-9.7996 11.8994,-14.9326 7.6997,-5.1331 18.4325,-5.1331 6.533,0 13.066,2.5665 6.533,2.5666 10.8495,7.1163 l -3.9665,8.3996 q -4.3165,-4.4331 -9.5662,-6.533 -5.1331,-2.2166 -10.4995,-2.2166 -11.5494,0 -17.7325,8.283 -6.0663,8.1662 -6.0663,24.3821 v 10.3829 h -1.1666 q 0.8166,-6.5331 3.9664,-11.1995 3.2665,-4.6664 8.283,-7.233 5.133,-2.5665 11.5494,-2.5665 7.3496,0 13.066,3.3831 5.7164,3.3832 8.9829,9.2163 3.2665,5.833 3.2665,13.5326 0,7.6997 -3.4998,13.8827 -3.4998,6.0664 -9.5662,9.5662 -6.0664,3.3832 -13.9993,3.3832 z m -0.5833,-8.9829 q 5.1331,0 8.9829,-2.2166 3.9665,-2.2165 6.0664,-6.183 2.2165,-3.9665 2.2165,-9.0996 0,-5.1331 -2.2165,-9.0995 -2.0999,-3.9665 -6.0664,-6.1831 -3.8498,-2.2165 -8.9829,-2.2165 -5.1331,0 -9.0996,2.2165 -3.8498,2.2166 -6.0663,6.1831 -2.2166,3.9664 -2.2166,9.0995 0,5.1331 2.2166,9.0996 2.2165,3.9665 6.0663,6.183 3.9665,2.2166 9.0996,2.2166 z" style="font-weight:500;font-family:Mulish;-inkscape-font-specification:'Mulish Medium'" id="path47332"></path></g><g aria-label="7" transform="matrix(0.07559897,0,0,0.07559897,-77.69947,244.4335)" id="text13787" style="font-size:116.661px;line-height:1.1;white-space:pre;shape-inside:url(#rect13790);fill:#ffffff"><path d="m 2092.0751,-1673.6124 40.4813,-77.3462 v 4.4331 h -45.4978 v -9.3329 h 55.414 v 8.0496 l -38.3815,74.1964 z" style="font-weight:500;font-family:Mulish;-inkscape-font-specification:'Mulish Medium'" id="path47329"></path></g><g aria-label="8" transform="matrix(0.07559897,0,0,0.07559897,-109.30614,238.247)" id="text14334" style="font-size:116.661px;line-height:1.1;white-space:pre;shape-inside:url(#rect14336);fill:#ffffff"><path d="m 2114.7073,-1672.5624 q -14.2327,0 -22.0489,-6.0664 -7.8163,-6.0664 -7.8163,-16.9158 0,-8.5163 5.2497,-14.116 5.3664,-5.7164 13.8827,-6.883 v 1.8666 q -7.8163,-1.6333 -12.4828,-7.1164 -4.5497,-5.483 -4.5497,-13.1827 0,-10.2661 7.3496,-16.0992 7.4663,-5.833 20.4157,-5.833 13.066,0 20.4157,5.833 7.4663,5.8331 7.4663,16.0992 0,7.6997 -4.4332,13.2994 -4.3164,5.5997 -12.016,6.9997 v -1.8666 q 8.5162,1.1666 13.416,6.883 5.0164,5.5997 5.0164,14.116 0,10.8494 -7.8163,16.9158 -7.6996,6.0664 -22.0489,6.0664 z m 0,-8.7496 q 9.9162,0 14.6993,-3.7332 4.8997,-3.7331 4.8997,-11.0828 0,-7.4663 -4.8997,-11.0827 -4.7831,-3.6165 -14.6993,-3.6165 -9.7995,0 -14.6993,3.6165 -4.8998,3.6164 -4.8998,11.0827 0,7.3497 4.8998,11.0828 4.8998,3.7332 14.6993,3.7332 z m 0,-38.3815 q 8.5162,0 12.9494,-3.7331 4.5497,-3.8498 4.5497,-10.6162 0,-6.6497 -4.5497,-10.3828 -4.4332,-3.7332 -12.9494,-3.7332 -8.3996,0 -12.9494,3.7332 -4.5498,3.7331 -4.5498,10.3828 0,6.7664 4.5498,10.6162 4.5498,3.7331 12.9494,3.7331 z" style="font-weight:500;font-family:Mulish;-inkscape-font-specification:'Mulish Medium'" id="path47326"></path></g><g aria-label="9" transform="matrix(0.07559897,0,0,0.07559897,-125.10573,235.4844)" id="text15342" style="font-size:116.661px;line-height:1.1;white-space:pre;shape-inside:url(#rect15344);fill:#ffffff"><path d="m 2109.1076,-1672.5624 q -6.5331,0 -13.0661,-2.6832 -6.533,-2.6832 -10.8494,-7.1164 l 3.9664,-8.2829 q 4.3165,4.3165 9.4496,6.533 5.2497,2.2166 10.6161,2.2166 11.4328,0 17.6158,-8.1663 6.1831,-8.2829 6.1831,-24.4988 v -10.3828 h 1.1666 q -0.7,6.4163 -4.0832,11.1994 -3.2665,4.6665 -8.2829,7.233 -5.0164,2.5666 -11.4328,2.5666 -7.3496,0 -13.066,-3.3832 -5.7164,-3.3832 -8.9829,-9.2162 -3.2665,-5.9497 -3.2665,-13.5327 0,-7.8163 3.3832,-13.8827 3.4998,-6.0663 9.5662,-9.4495 6.0663,-3.4998 13.9993,-3.4998 15.1659,0 23.3322,10.6161 8.1663,10.4995 8.1663,29.6319 0,14.116 -4.1998,24.0322 -4.0832,9.7995 -11.7828,14.9326 -7.6996,5.1331 -18.4324,5.1331 z m 3.6164,-40.3647 q 5.1331,0 8.9829,-2.2166 3.9665,-2.2166 6.1831,-6.183 2.2165,-3.9665 2.2165,-9.0996 0,-5.2497 -2.2165,-9.0995 -2.2166,-3.9665 -6.1831,-6.1831 -3.8498,-2.3332 -8.9829,-2.3332 -5.133,0 -9.0995,2.3332 -3.8498,2.2166 -6.0664,6.1831 -2.0999,3.8498 -2.0999,9.0995 0,5.1331 2.0999,9.0996 2.2166,3.9664 6.0664,6.183 3.9665,2.2166 9.0995,2.2166 z" style="font-weight:500;font-family:Mulish;-inkscape-font-specification:'Mulish Medium'" id="path47323"></path></g><g aria-label="10" transform="matrix(0.07559897,0,0,0.07559897,-116.00929,214.4339)" id="text16206" style="font-size:116.661px;line-height:1.1;white-space:pre;shape-inside:url(#rect16208);fill:#ffffff"><path d="m 2094.1749,-1673.6124 v -9.2162 h 19.2491 v -63.8136 h 5.4831 l -22.9822,14.2327 v -10.6162 l 20.5323,-12.8327 h 7.8163 v 73.0298 h 18.0824 v 9.2162 z" style="font-weight:500;font-family:Mulish;-inkscape-font-specification:'Mulish Medium'" id="path47318"></path><path d="m 2184.7037,-1672.5624 q -14.116,0 -21.6989,-10.8495 -7.583,-10.9661 -7.583,-31.3818 0,-20.7657 7.583,-31.3818 7.5829,-10.7328 21.6989,-10.7328 14.2326,0 21.699,10.7328 7.5829,10.6161 7.5829,31.2651 0,20.5324 -7.5829,31.4985 -7.583,10.8495 -21.699,10.8495 z m 0,-9.2162 q 9.3329,0 13.8827,-8.0497 4.6664,-8.0496 4.6664,-25.0821 0,-17.0325 -4.6664,-24.8488 -4.5498,-7.9329 -13.8827,-7.9329 -9.2162,0 -13.8827,7.9329 -4.6664,7.8163 -4.6664,24.8488 0,17.0325 4.6664,25.0821 4.6665,8.0497 13.8827,8.0497 z" style="font-weight:500;font-family:Mulish;-inkscape-font-specification:'Mulish Medium'" id="path47320"></path></g><g aria-label="11" transform="matrix(0.07559897,0,0,0.07559897,-83.5719,223.456)" id="text17280" style="font-size:116.661px;line-height:1.1;white-space:pre;shape-inside:url(#rect17282);fill:#ffffff"><path d="m 2094.1749,-1673.6124 v -9.2162 h 19.2491 v -63.8136 h 5.4831 l -22.9822,14.2327 v -10.6162 l 20.5323,-12.8327 h 7.8163 v 73.0298 h 18.0824 v 9.2162 z" style="font-weight:500;font-family:Mulish;-inkscape-font-specification:'Mulish Medium'" id="path47313"></path><path d="m 2164.1714,-1673.6124 v -9.2162 h 19.249 v -63.8136 h 5.4831 l -22.9822,14.2327 v -10.6162 l 20.5323,-12.8327 h 7.8163 v 73.0298 h 18.0825 v 9.2162 z" style="font-weight:500;font-family:Mulish;-inkscape-font-specification:'Mulish Medium'" id="path47315"></path></g><g aria-label="12" transform="matrix(0.07559897,0,0,0.07559897,-92.96947,204.6405)" id="text18150" style="font-size:116.661px;line-height:1.1;white-space:pre;shape-inside:url(#rect18152);fill:#ffffff"><path d="m 2094.1749,-1673.6124 v -9.2162 h 19.2491 v -63.8136 h 5.4831 l -22.9822,14.2327 v -10.6162 l 20.5323,-12.8327 h 7.8163 v 73.0298 h 18.0824 v 9.2162 z" style="font-weight:500;font-family:Mulish;-inkscape-font-specification:'Mulish Medium'" id="path47308"></path><path d="m 2159.6216,-1673.6124 v -8.0496 l 28.6986,-30.0985 q 5.5997,-5.7164 8.2829,-10.9662 2.7999,-5.2497 2.7999,-10.8494 0,-6.883 -4.3165,-10.3829 -4.1998,-3.6165 -12.366,-3.6165 -6.2997,0 -11.8995,2.3333 -5.483,2.2165 -10.4994,6.883 l -3.8499,-8.283 q 4.7831,-4.6664 12.0161,-7.4663 7.3497,-2.7998 15.3993,-2.7998 12.5994,0 19.4824,5.833 6.883,5.7164 6.883,16.4492 0,7.8163 -3.8498,14.9326 -3.7332,6.9997 -11.0828,14.466 l -25.0822,25.4321 v -3.0332 h 43.3979 v 9.2162 z" style="font-weight:500;font-family:Mulish;-inkscape-font-specification:'Mulish Medium'" id="path47310"></path></g><g aria-label="13" transform="matrix(0.07559897,0,0,0.07559897,-114.14936,195.9069)" id="text19704" style="font-size:116.661px;line-height:1.1;white-space:pre;shape-inside:url(#rect19706);fill:#ffffff"><path d="m 2094.1749,-1673.6124 v -9.2162 h 19.2491 v -63.8136 h 5.4831 l -22.9822,14.2327 v -10.6162 l 20.5323,-12.8327 h 7.8163 v 73.0298 h 18.0824 v 9.2162 z" style="font-weight:500;font-family:Mulish;-inkscape-font-specification:'Mulish Medium'" id="path47303"></path><path d="m 2184.1204,-1672.5624 q -8.3996,0 -16.0992,-2.5666 -7.583,-2.5665 -12.7161,-7.233 l 3.8498,-8.3995 q 5.7164,4.6664 11.7828,6.7663 6.0664,2.0999 12.8327,2.0999 8.9829,0 13.6494,-3.7332 4.6664,-3.8498 4.6664,-10.9661 0,-6.9997 -4.7831,-10.6161 -4.6664,-3.6165 -13.766,-3.6165 h -12.5994 v -8.9829 h 11.7828 q 7.6996,0 12.366,-3.9665 4.6665,-3.9665 4.6665,-10.8495 0,-6.2997 -4.3165,-9.5662 -4.1998,-3.3832 -12.0161,-3.3832 -13.1827,0 -22.8655,9.2163 l -3.8498,-8.283 q 4.8997,-4.8997 12.1327,-7.5829 7.233,-2.6832 15.2826,-2.6832 12.2494,0 19.2491,5.5997 6.9996,5.5997 6.9996,15.6326 0,7.5829 -4.3164,13.066 -4.1998,5.3664 -11.5495,7.1163 v -1.2832 q 8.6329,1.5165 13.416,7.1163 4.7831,5.483 4.7831,13.766 0,10.8494 -7.6996,17.1491 -7.5829,6.1831 -20.8823,6.1831 z" style="font-weight:500;font-family:Mulish;-inkscape-font-specification:'Mulish Medium'" id="path47305"></path></g><g aria-label="14" transform="matrix(0.07559897,0,0,0.07559897,-79.31649,191.3131)" id="text20352" style="font-size:116.661px;line-height:1.1;white-space:pre;shape-inside:url(#rect20354);fill:#ffffff"><path d="m 2094.1749,-1673.6124 v -9.2162 h 19.2491 v -63.8136 h 5.4831 l -22.9822,14.2327 v -10.6162 l 20.5323,-12.8327 h 7.8163 v 73.0298 h 18.0824 v 9.2162 z" style="font-weight:500;font-family:Mulish;-inkscape-font-specification:'Mulish Medium'" id="path47298"></path><path d="m 2193.9199,-1673.6124 v -17.3825 h -38.6148 v -7.8163 l 40.3647,-57.0472 h 8.8663 v 56.2306 h 12.366 v 8.6329 h -12.366 v 17.3825 z m 0,-26.0154 v -43.3979 h 2.6832 l -32.5484,45.9645 v -2.5666 z" style="font-weight:500;font-family:Mulish;-inkscape-font-specification:'Mulish Medium'" id="path47300"></path></g><g aria-label="15 " transform="matrix(0.07559897,0,0,0.07559897,-89.01951,183.3644)" id="text21918" style="font-size:116.661px;line-height:1.1;white-space:pre;shape-inside:url(#rect21920);fill:#ffffff"><path d="m 2094.1749,-1673.6124 v -9.2162 h 19.2491 v -63.8136 h 5.4831 l -22.9822,14.2327 v -10.6162 l 20.5323,-12.8327 h 7.8163 v 73.0298 h 18.0824 v 9.2162 z" style="font-weight:500;font-family:Mulish;-inkscape-font-specification:'Mulish Medium'" id="path47293"></path><path d="m 2186.1036,-1672.5624 q -5.3664,0 -10.6161,-1.1666 -5.1331,-1.1666 -9.6829,-3.2665 -4.5498,-2.2166 -7.9329,-5.3665 l 3.8498,-8.3995 q 5.7164,4.5497 11.6661,6.7663 5.9497,2.0999 12.4827,2.0999 8.6329,0 13.5327,-4.5498 4.8998,-4.5498 4.8998,-12.1327 0,-7.8163 -4.6665,-12.5994 -4.6664,-4.8998 -12.9494,-4.8998 -5.7163,0 -10.3828,2.3332 -4.5498,2.2166 -8.0496,7.1164 h -7.6996 v -49.231 h 49.3476 v 9.2162 h -38.8481 v 31.1485 h -2.7999 q 3.1499,-4.6664 8.5163,-7.233 5.483,-2.5665 12.2494,-2.5665 7.9329,0 13.6493,3.2665 5.8331,3.2665 8.9829,9.2162 3.2665,5.8331 3.2665,13.6494 0,7.8163 -3.4998,13.8826 -3.4999,5.9497 -10.0329,9.3329 -6.4163,3.3832 -15.2826,3.3832 z" style="font-weight:500;font-family:Mulish;-inkscape-font-specification:'Mulish Medium'" id="path47295"></path></g></g></svg> 