<?xml version="1.0" encoding="UTF-8" standalone="no"?> <svg xmlns:inkscape="http://www.inkscape.org/namespaces/inkscape" xmlns:sodipodi="http://sodipodi.sourceforge.net/DTD/sodipodi-0.dtd" xmlns="http://www.w3.org/2000/svg" xmlns:svg="http://www.w3.org/2000/svg" width="211.66667mm" height="211.66667mm" viewBox="0 0 211.66667 211.66667" version="1.1" id="svg48128" inkscape:version="1.1.1 (3bf5ae0d25, 2021-09-20)" sodipodi:docname="f_major.svg"><defs id="defs48125"><rect x="2079.7087" y="-1772.8665" width="1945.511" height="341.30246" id="rect131360"></rect></defs><g inkscape:label="Слой 1" inkscape:groupmode="layer" id="layer1" transform="translate(22.51387,-17.351908)"><path id="path187837" style="opacity:0.5;fill:#ffffff;fill-opacity:1;fill-rule:evenodd;stroke-width:0.293266;stroke-linecap:round;stroke-linejoin:round;paint-order:stroke fill markers;stop-color:#000000" d="m 83.40867,59.3671 c -0.0609,0.061 -0.003,0.1108 0.12741,0.1108 0.13118,0 0.73862,0.3436 1.34877,0.7636 0.61009,0.4195 1.56211,0.9917 2.11667,1.2717 0.55449,0.2794 2.53568,1.5002 4.40161,2.7114 1.86599,1.2112 4.563,2.8448 5.99358,3.6287 6.01512,3.2985 7.27204,4.1315 9.72077,6.4392 1.31987,1.2439 3.17311,2.9452 4.11766,3.7814 1.06285,0.9406 2.18692,2.2337 2.95116,3.3928 1.39461,2.115 6.84441,8.2823 7.93725,8.9818 0.79146,0.5073 1.05656,0.572 1.05656,0.2597 0,-0.1131 -0.0807,-0.2411 -0.17881,-0.283 -0.0984,-0.041 -1.14633,-1.3471 -2.32941,-2.9018 -1.18307,-1.5554 -2.80191,-3.6726 -3.59751,-4.706 -1.16925,-1.5181 -1.44267,-2.0281 -1.42477,-2.66 0.0204,-0.7127 -0.19083,-0.9807 -2.38668,-3.0237 -1.32496,-1.2322 -2.68594,-2.4572 -3.02363,-2.7211 -0.33762,-0.2637 -1.04155,-1.1424 -1.56498,-1.9514 -1.41191,-2.1831 -3.62319,-3.5749 -14.10491,-8.8715 -4.39544,-2.2208 -5.96384,-2.8934 -8.23998,-3.5378 -1.54602,-0.4374 -2.86002,-0.7457 -2.92076,-0.6846 z M 69.3119,62.4573 c -0.14027,0 -0.0696,0.1289 0.21041,0.6156 0.45247,0.7889 3.16007,2.6426 5.14383,3.5229 0.74635,0.3311 3.13757,1.322 5.3145,2.2011 5.18817,2.0944 8.42681,3.6025 13.82089,6.4371 2.43916,1.2824 5.76577,2.943 7.39257,3.6898 3.68566,1.6936 5.24532,2.6019 7.33643,4.2795 1.69766,1.3613 11.30497,10.9377 13.18274,13.1404 1.27482,1.495 3.29568,4.4624 4.62141,6.785 1.5605,2.7337 2.77254,4.7499 2.85536,4.7499 0.0423,0 -0.18227,-0.6865 -0.49794,-1.5267 -1.69539,-4.5086 -3.82211,-8.9615 -5.44885,-11.4059 -0.47011,-0.7062 -2.64579,-3.1997 -4.83414,-5.5415 -2.18836,-2.3409 -4.82314,-5.2031 -5.85559,-6.3605 -2.0211,-2.2655 -5.38307,-5.0819 -8.82434,-7.3922 -1.98908,-1.3358 -14.1128,-8.178 -17.59255,-9.929 -2.97516,-1.4977 -5.86037,-2.1362 -12.37512,-2.7383 -2.11475,-0.1945 -4.02269,-0.4101 -4.2392,-0.4759 -0.0935,-0.029 -0.16361,-0.047 -0.21041,-0.052 z m -3.42104,3.8221 c -0.74395,-0.023 -1.75719,0.068 -2.95935,0.2513 l -1.7824,0.2711 0.87777,0.2721 c 1.31035,0.4058 4.42309,0.3963 4.96268,-0.023 v 0 c 0.63325,-0.4829 0.14134,-0.7595 -1.0987,-0.7791 z m 1.35698,3.9632 c -2.88594,-0.052 -6.30889,1.2046 -12.59833,4.2541 -2.45154,1.1886 -2.54861,1.2609 -1.69592,1.2609 0.49759,0 3.25672,-0.4014 6.13146,-0.8927 6.09758,-1.0419 7.89404,-1.2518 8.97861,-1.0485 1.06782,0.2013 1.20923,0.7007 0.41961,1.4907 -0.82258,0.8221 -2.17579,1.2177 -7.04895,2.058 -2.17693,0.3752 -4.6074,0.8443 -5.40097,1.0424 -1.32256,0.3302 -4.61764,1.9041 -7.71637,3.6839 l -1.24471,0.7145 1.80926,-0.1199 c 5.88234,-0.389 11.95904,-1.0969 14.92774,-1.7408 4.31609,-0.9348 7.61451,-1.3793 11.53475,-1.5516 5.71945,-0.2526 7.47712,0.034 10.97141,1.7951 3.6324,1.8293 5.60407,3.7007 7.74557,7.3516 2.68068,4.57 8.60819,12.8469 10.38346,14.4984 0.94616,0.8809 1.43836,1.058 1.78359,0.6421 0.40124,-0.4834 -0.004,-1.2974 -2.58888,-5.1882 -3.01902,-4.5456 -6.62725,-10.5985 -6.80815,-11.4227 -0.30693,-1.3973 0.60147,-1.533 1.7508,-0.2608 1.24213,1.3745 2.64303,3.5539 3.56597,5.5485 0.46773,1.0101 1.6742,3.0837 2.68122,4.6061 2.18201,3.2989 2.76894,4.4205 3.37544,6.4479 0.2572,0.8602 1.21587,2.817 2.1938,4.4769 2.41749,4.1039 3.19556,5.8939 4.10713,9.4545 0.43499,1.6983 1.08038,4.0555 1.43524,5.2373 0.35493,1.1813 1.01636,3.5726 1.46918,5.3139 0.45282,1.742 1.72411,5.9149 2.82496,9.2738 1.10085,3.3582 2.4656,7.7985 3.03302,9.8655 0.56742,2.067 1.14148,4.0482 1.27631,4.4024 0.23201,0.6105 0.69231,1.3082 0.77375,1.1737 0.0204,-0.034 -0.0316,-2.6565 -0.11573,-5.8288 l -0.15307,-5.7681 -0.94209,-2.7138 c -0.51811,-1.4923 -1.80795,-5.767 -2.86703,-9.4986 -3.82904,-13.4926 -4.78322,-16.0633 -8.51927,-22.9571 -3.3214,-6.1286 -4.06768,-7.38 -6.08005,-10.1907 -2.16663,-3.0268 -2.65602,-3.9514 -2.28614,-4.3212 0.40304,-0.4033 1.57726,0.6271 3.64312,3.1956 2.28183,2.8364 3.51768,4.6695 6.02625,8.9408 4.58479,7.8073 6.73502,13.3852 10.28885,26.6898 2.01464,7.5418 2.62305,9.1994 3.95752,10.7853 0.68317,0.812 0.69555,0.648 0.10868,-1.4583 -0.25086,-0.9006 -0.6117,-3.3673 -0.80176,-5.4816 -0.46456,-5.168 -0.84383,-7.4377 -1.77772,-10.6446 -2.9456,-10.1133 -6.27215,-17.2369 -11.47636,-24.5773 -3.57812,-5.0464 -6.38339,-7.9399 -9.06975,-9.3514 -1.6359,-0.8595 -4.07391,-3.068 -4.3514,-3.9424 -0.25953,-0.8174 0.21023,-1.0502 1.18517,-0.5851 1.81877,0.8664 6.57303,4.4065 8.53327,6.3532 2.21409,2.1986 5.93643,6.7214 7.78177,9.4567 4.44129,6.5817 8.05843,14.984 10.63134,24.6952 1.09187,4.1214 1.43692,5.0387 1.2751,3.3931 -0.5889,-5.9891 -1.63123,-11.6118 -3.04583,-16.4345 -2.45172,-8.3582 -5.39804,-12.9737 -14.0231,-21.9709 -3.50973,-3.6606 -7.33979,-6.6013 -9.73604,-7.4719 -0.55976,-0.2035 -1.86239,-0.4704 -2.89389,-0.5937 C 98.23432,82.045 96.92719,81.5119 92.32769,78.9471 86.57491,75.7391 83.27912,74.4499 76.38426,72.714 74.59259,72.2628 72.2003,71.5273 71.06863,71.0786 69.76,70.5602 68.55964,70.2664 67.24784,70.2431 Z M 79.92216,82.563 c -0.93981,-0.041 -1.52411,0.268 -1.52411,0.9788 0,0.8122 0.61763,1.4519 3.36377,3.4786 6.67123,4.9233 10.14547,8.114 14.45672,13.2807 1.55691,1.8659 4.32465,4.9204 6.15019,6.7863 1.82548,1.8659 3.77722,4.0021 4.33853,4.749 1.53728,2.0437 4.25907,6.2632 4.25907,6.6013 0,0.5426 -1.10139,0.3094 -1.91686,-0.4071 -0.44115,-0.387 -1.62476,-1.7701 -2.63094,-3.0739 -1.00612,-1.3028 -3.37401,-3.9635 -5.2607,-5.9118 -1.88664,-1.9473 -4.13519,-4.4063 -4.99769,-5.4639 -4.06129,-4.9787 -5.85188,-6.6621 -9.28136,-8.7309 -1.82655,-1.1015 -7.57729,-5.6023 -10.28999,-8.0527 -2.68444,-2.4255 -5.09463,-3.2352 -9.16095,-3.0778 -1.93881,0.075 -2.45531,0.1832 -3.61857,0.7527 l -1.35698,0.6638 -6.04379,0.1199 -6.04492,0.1176 -3.06223,1.5769 c -3.56861,1.8377 -3.54204,2.0575 0.22321,1.815 2.61748,-0.1696 7.29939,0.1697 9.66936,0.7014 2.04331,0.4578 4.18145,1.4308 7.58664,3.4498 5.20821,3.0884 8.81428,6.0212 11.56276,9.4055 1.58994,1.9582 4.85928,6.5934 5.24083,7.4313 0.83934,1.8418 -1.40844,0.3422 -4.75342,-3.1711 -5.75726,-6.0466 -10.73569,-9.8101 -16.86792,-12.7537 -3.33176,-1.5995 -8.21467,-2.6089 -11.72177,-2.423 -1.38348,0.072 -1.95988,0.249 -3.93879,1.2059 -1.27505,0.6163 -2.31887,1.1949 -2.31887,1.2847 0,0.2345 1.08763,0.3711 4.1842,0.5261 5.66224,0.2825 9.08759,1.0365 12.21385,2.6905 3.23798,1.7126 9.62586,6.1253 14.24864,9.8424 2.48793,2.0005 5.12522,3.9422 5.86032,4.3152 1.91117,0.97 3.55358,0.885 3.63258,-0.1877 0.0181,-0.2502 0.16718,-0.6152 0.3308,-0.8127 0.59369,-0.7151 0.17929,-2.5524 -1.35464,-6.0124 -1.8366,-4.1423 -3.08191,-6.0089 -5.6277,-8.4312 -2.25048,-2.1417 -4.58485,-3.7676 -8.18152,-5.7005 -2.77433,-1.4907 -3.6494,-2.2088 -3.54958,-2.9088 0.0629,-0.4418 0.18659,-0.4818 1.3137,-0.4196 1.54033,0.084 4.82912,1.1646 6.78482,2.226 3.19363,1.735 8.58993,6.472 9.60276,8.4306 0.20172,0.3902 0.61691,1.8431 0.9233,3.2284 0.30639,1.3853 0.91372,3.6188 1.34877,4.9654 0.67454,2.086 0.79129,2.7598 0.79129,4.5742 v 2.1287 l 0.98063,1.3331 c 1.0467,1.4219 2.75662,3.0137 3.23637,3.0137 0.3691,0 0.75879,-0.7181 0.75855,-1.3979 -2.4e-4,-0.5451 -1.9959,-6.4378 -3.5999,-10.6315 -1.00589,-2.6302 -1.09302,-3.1552 -0.59609,-3.5673 0.27037,-0.2239 0.44959,-0.081 1.02623,0.8204 1.41562,2.2131 4.72942,9.1661 5.55291,11.6508 1.21443,3.6647 1.61387,4.4767 3.80205,7.7363 1.93373,2.8808 2.26035,3.6556 1.63865,3.8938 -0.63989,0.2454 -1.89346,-0.7066 -4.84115,-3.6801 -1.65588,-1.6702 -3.26503,-3.1334 -3.57645,-3.2519 -0.31141,-0.1176 -0.95513,-0.2148 -1.42944,-0.2148 -1.08511,0 -2.0877,-0.4178 -4.2754,-1.7821 -0.95203,-0.5941 -2.49391,-1.4253 -3.42691,-1.8467 -2.47978,-1.1213 -4.64103,-2.4343 -8.70747,-5.2913 -4.94856,-3.4767 -5.94433,-4.1254 -8.86988,-5.7753 -1.83439,-1.0341 -2.70353,-1.671 -3.13936,-2.2998 -1.25806,-1.8157 -4.04758,-3.0228 -8.51227,-3.6857 -3.43827,-0.5105 -5.61735,-0.4697 -6.79887,0.1289 -1.29222,0.6541 -3.77273,2.3056 -3.77632,2.5151 -0.002,0.093 1.80441,0.1696 4.01246,0.1719 4.16714,0 6.92095,0.2293 9.68217,0.7988 3.74215,0.7733 4.78346,1.3424 3.81145,2.0819 -0.45779,0.3483 -2.04875,0.3106 -6.99168,-0.1628 -1.244,-0.1199 -3.38161,-0.2194 -4.74995,-0.2217 -2.78265,0 -3.09784,0.1086 -5.64644,2.048 -0.7184,0.5469 -1.52214,1.1287 -1.78706,1.2926 -0.41608,0.2579 -0.25104,0.2814 1.21437,0.1719 6.41876,-0.4788 15.64548,-0.3148 19.0898,0.3388 1.97998,0.375 2.09931,0.4415 15.92589,8.8864 5.81471,3.5511 7.71068,5.4367 9.41456,9.3618 0.53289,1.2278 1.80447,3.5484 2.82615,5.1576 2.10763,3.3193 4.33184,7.7453 5.55524,11.0547 0.89697,2.4264 0.92259,3.0015 0.22441,4.926 -0.34427,0.9491 -0.36491,1.5672 -0.18933,5.582 0.10857,2.4841 0.1246,5.7186 0.035,7.1882 -0.37754,6.1979 -2.54388,10.9315 -6.84088,14.9515 -1.75594,1.642 -3.15678,2.4105 -5.14263,2.8197 -1.06567,0.2194 -2.03768,0.6762 -3.80558,1.7852 -2.73089,1.7125 -4.49066,2.6281 -6.86315,3.5708 -0.92288,0.3662 -2.02134,0.8753 -2.44041,1.1308 l -0.76202,0.4657 h 2.60168 c 4.7895,0 8.52728,-0.6349 10.96907,-1.8562 2.59104,-1.2962 6.38549,-3.9902 8.21539,-5.8321 6.08748,-6.1284 7.73038,-9.8488 7.73038,-17.5074 0,-4.2883 -0.55043,-8.382 -1.62112,-12.0569 -0.32033,-1.0999 -0.20939,-1.3052 0.59489,-1.1035 1.33232,0.3345 2.68145,3.384 3.44677,7.7903 0.55156,3.1751 0.56335,12.2448 0.0199,14.2112 -0.69063,2.4935 -1.29043,3.4785 -3.34857,5.5001 -1.07662,1.0573 -2.80682,2.8699 -3.84532,4.0265 -2.90257,3.2327 -4.80536,4.7558 -10.90127,8.7292 -1.9928,1.2998 -2.64232,1.8784 -1.84433,1.6427 0.23326,-0.07 1.05848,-0.2854 1.83499,-0.4818 h -0.001 c 4.42453,-1.1184 9.00219,-3.3069 11.27876,-5.3929 0.802,-0.7348 2.3291,-2.496 3.39417,-3.9143 2.095,-2.7892 2.58337,-3.2208 3.03296,-2.6786 0.99194,1.1951 -1.21233,5.2757 -5.30624,9.8225 -0.83575,0.9282 -1.62117,1.8765 -1.74504,2.1081 -0.44391,0.8296 4.59866,-2.828 6.76147,-4.9039 3.18628,-3.0592 3.67992,-3.9974 4.57347,-8.683 1.10163,-5.7771 1.16644,-6.7126 0.68723,-9.9941 -0.22746,-1.5577 -0.53224,-4.1046 -0.67675,-5.6593 -0.61847,-6.655 -1.5517,-9.7189 -4.61668,-15.1532 -1.15753,-2.0525 -2.88773,-5.4198 -3.84532,-7.4825 -1.68653,-3.6342 -2.15329,-4.3697 -5.65691,-8.9146 -1.26159,-1.6369 -1.45159,-2.1304 -0.96077,-2.4895 0.80129,-0.5858 1.70765,-0.063 4.89955,2.8299 3.93156,3.5613 4.01396,3.6169 5.2841,3.6169 1.60376,0 2.83453,0.6804 4.51734,2.4977 3.78219,4.0849 7.08235,10.8122 8.55667,17.4409 0.41094,1.8473 0.51578,2.9814 0.50028,5.3928 -0.0242,3.7588 -0.4922,5.727 -2.10853,8.8579 -0.94268,1.8263 -1.3164,2.952 -2.27094,6.8458 -0.62833,2.5632 -1.45834,5.499 -1.84432,6.5229 -1.01797,2.7007 -1.56301,4.3009 -1.48905,4.3751 0.13614,0.1357 2.89252,-3.5302 4.43321,-5.8968 1.85492,-2.8498 3.48501,-5.9167 4.11066,-7.7352 0.23865,-0.6936 0.79511,-2.8891 1.23657,-4.8797 0.79123,-3.5676 1.12185,-4.5137 1.94953,-5.5758 0.56173,-0.7213 0.53337,-1.7049 -0.14962,-5.2081 -1.08457,-5.5623 -3.2822,-12.0648 -5.33316,-15.7804 -1.18541,-2.147 -2.43222,-3.7861 -5.26423,-6.9224 -3.09191,-3.4236 -3.43552,-3.9004 -4.30934,-5.9681 -0.41159,-0.973 -1.08056,-2.3284 -1.48551,-3.0128 -1.54284,-2.6062 -2.28961,-4.3272 -2.61222,-6.0135 -0.34947,-1.8264 -0.96022,-3.1956 -2.73261,-6.1327 -2.99401,-4.9605 -4.66408,-7.0788 -6.322,-8.0143 -1.38923,-0.7839 -1.74427,-1.1543 -1.63745,-1.7089 0.21685,-1.1264 2.40396,-0.3029 4.54421,1.7114 0.87555,0.824 2.93464,3.2786 4.57581,5.456 2.96833,3.937 3.9279,4.9776 6.13026,6.6375 1.14118,0.8599 1.73721,1.5231 6.12565,6.8196 2.74088,3.308 3.62534,4.5893 4.29413,6.2146 0.80888,1.9659 0.64887,3.0443 -0.37167,2.4978 -0.24978,-0.1334 -2.39314,-2.8443 -4.76282,-6.023 -5.57104,-7.473 -6.8279,-8.8214 -7.6275,-8.1768 -0.71368,0.5751 -0.13471,1.8281 3.34971,7.2373 2.82052,4.378 4.3414,6.2942 7.18922,9.0594 2.21869,2.1536 3.12572,3.569 4.74061,7.3981 1.33567,3.1676 2.39798,6.3265 3.91659,11.6484 1.38929,4.8679 3.37957,9.6277 4.49281,10.741 l 0.50028,0.5003 -0.14148,-0.6453 c -0.0778,-0.3549 -0.22973,-2.4768 -0.33894,-4.7159 l -0.19867,-4.0712 -1.47151,-4.8634 c -0.80924,-2.6742 -2.25604,-7.0505 -3.2153,-9.7254 -1.67384,-4.6664 -2.00943,-5.8518 -3.00729,-10.6297 -0.24685,-1.1818 -0.90493,-3.2142 -1.46218,-4.5151 -0.97764,-2.2835 -1.00098,-2.3911 -0.67089,-3.0837 0.67603,-1.4176 -0.24373,-4.0464 -2.77116,-7.9242 -1.52327,-2.3368 -2.79455,-3.7328 -4.40986,-4.8424 -1.80543,-1.2398 -3.37819,-2.9569 -7.13896,-7.7932 -6.58314,-8.467 -8.02569,-10.0654 -10.97488,-12.16 -2.47841,-1.7605 -5.0315,-2.7975 -6.5978,-2.8645 z m -30.2856,25.8009 c -0.86825,0 -1.78664,0.023 -2.75482,0.039 -5.57786,0.1538 -5.36285,0.09 -8.17799,2.3458 l -1.35698,1.0873 2.37501,0.077 c 1.30611,0.043 4.25787,-0.05 6.5592,-0.2036 4.64541,-0.3112 11.01474,-0.1719 13.34402,0.2897 1.70238,0.3375 1.90752,0.748 0.67909,1.3614 -0.65701,0.3286 -1.42717,0.3955 -4.52441,0.3974 -5.31288,0 -10.07725,0.6156 -11.8737,1.5253 -1.10648,0.5607 -4.38108,3.654 -5.55524,5.2481 -0.59979,0.8144 -1.30826,1.7617 -1.57432,2.1045 l -0.48388,0.6231 0.61128,-0.2322 c 0.3362,-0.1267 2.10668,-1.0897 3.93413,-2.1369 4.50794,-2.5834 6.07209,-3.1913 9.96624,-3.8719 2.62239,-0.4582 8.35141,-0.5193 10.29119,-0.1085 2.86923,0.6068 9.48852,3.3984 13.48662,5.6862 1.11228,0.6367 2.2993,1.2399 2.63675,1.3416 0.33745,0.1018 0.63007,0.1946 0.65102,0.2036 0.0204,0 0.19946,-0.043 0.39621,-0.1176 v 0 c 0.44702,-0.1719 0.46042,-1.0424 0.0292,-1.8759 -0.50261,-0.9718 -2.64309,-2.8156 -4.70901,-4.0543 -2.91903,-1.7509 -6.56944,-3.6396 -9.06862,-4.6916 -1.82242,-0.7671 -2.39056,-1.1184 -2.77588,-1.718 -0.26636,-0.4148 -0.75527,-1.0275 -1.08697,-1.362 -1.30216,-1.3125 -4.94012,-1.9605 -11.01814,-1.9598 z m -8.91315,5.8627 c -0.73067,-0.023 -2.08094,0.8574 -3.42804,2.3128 l -0.72935,0.7887 0.72935,-0.1674 c 0.40142,-0.093 1.3465,-0.4788 2.10027,-0.8599 1.53566,-0.7785 2.02254,-1.2424 1.82919,-1.7463 -0.083,-0.2171 -0.25786,-0.3214 -0.50142,-0.3273 z m 16.0159,4.6083 c -2.69773,0.045 -6.20279,0.5572 -8.87461,1.4058 -2.2245,0.7073 -7.02238,3.1056 -7.75844,3.8794 -0.3186,0.3352 -1.25117,1.708 -2.0722,3.0515 -1.69562,2.7754 -1.75373,2.7645 1.88992,0.3393 5.59264,-3.7235 10.68806,-5.4721 17.69423,-6.0735 3.2889,-0.2818 4.214,-0.6018 3.82778,-1.3235 -0.12213,-0.2287 -0.60686,-0.6032 -1.07763,-0.8337 -0.68262,-0.3338 -2.01045,-0.4734 -3.62905,-0.4453 z m 6.67141,2.8436 c -0.34397,0 -1.15926,0.2974 -1.81046,0.665 -0.93287,0.5265 -1.99866,0.8119 -5.02809,1.3475 -5.97222,1.0562 -9.55328,2.2627 -13.42235,4.5224 -2.82867,1.6515 -3.03452,1.9227 -5.58917,7.3198 l -0.29688,0.6265 0.68729,-0.4894 c 0.37808,-0.2694 1.26254,-0.994 1.96472,-1.6099 1.60562,-1.4079 4.41951,-3.2779 6.4786,-4.3054 6.18717,-3.088 15.93607,-4.6583 20.66878,-3.3291 2.046,0.5752 6.02435,2.3314 8.22826,3.6317 4.7834,2.8228 8.80106,8.9488 10.24912,15.629 0.50435,2.3267 0.6667,7.9875 0.34241,11.9288 -0.57107,6.9397 -0.70703,7.3588 -3.64892,11.2246 -2.14491,2.8183 -2.92506,4.0854 -2.92901,4.7537 -0.004,0.5792 0.45079,1.0537 0.85789,0.8977 0.16918,-0.066 0.4542,-0.1176 0.63349,-0.1176 v 0 c 0.54066,0 4.04022,-3.5265 5.28176,-5.3223 1.94103,-2.8077 2.75991,-5.0728 3.2995,-9.1258 0.62445,-4.6911 0.29185,-15.2448 -0.57855,-18.3463 -1.19247,-4.2494 -5.47027,-11.3442 -8.78347,-14.5679 -1.13305,-1.1028 -1.15327,-1.1107 -3.01896,-1.2704 -1.60305,-0.1379 -2.46136,-0.398 -5.85559,-1.7779 -3.74125,-1.5213 -6.29195,-2.2747 -7.73037,-2.2837 z m -2.31534,6.9322 c -2.6276,0 -3.91199,0.1109 -5.69671,0.492 -5.29936,1.1315 -10.72677,3.7083 -13.58716,6.4502 -0.97296,0.933 -1.74528,2.5714 -2.78168,5.9016 l -0.42542,1.3649 2.19847,-2.3588 c 4.41136,-4.7317 9.13654,-7.3551 15.31695,-8.5036 2.8359,-0.5272 7.41314,-0.3752 9.13521,0.3021 1.46751,0.5777 2.28614,1.2969 2.28614,2.0085 0,0.6366 -0.26145,0.6545 -2.11547,0.1425 -2.16879,-0.6003 -7.78261,-0.5392 -10.39405,0.1108 -4.63194,1.1548 -8.93936,3.5604 -11.73343,6.552 -1.14891,1.2297 -1.5918,2.3692 -2.43575,6.2727 -0.439,2.031 -0.43864,2.0344 0.009,1.4701 0.24661,-0.3105 0.61051,-0.8701 0.80883,-1.2435 1.37546,-2.5881 4.59286,-5.9074 7.25229,-7.4813 4.21065,-2.4918 6.35018,-3.0299 12.95487,-3.2608 3.04565,-0.1063 5.42778,-0.2931 5.93272,-0.465 0.79787,-0.2716 0.93886,-0.2411 2.60055,0.5799 1.35763,0.6702 2.19524,1.31 3.68051,2.8107 2.56895,2.5953 3.89613,4.9143 4.87035,8.5091 0.46976,1.7329 0.67496,5.7423 0.37521,7.337 -0.52427,2.7899 -1.80148,5.2285 -3.25277,6.2146 -0.70266,0.4774 -0.86178,0.7647 -1.2085,2.1801 -1.16979,4.7729 -5.17255,9.0487 -10.06558,10.75 -1.50808,0.5247 -3.24816,0.8083 -6.88648,1.122 l -1.58025,0.1357 2.03253,0.7666 c 2.04211,0.7714 5.5498,1.6103 7.23363,1.7302 1.73595,0.1244 2.72615,-0.093 4.55474,-0.9922 2.87307,-1.4136 4.52087,-2.9193 6.5172,-5.9556 1.10414,-1.6792 2.35926,-3.2289 3.52971,-4.3593 2.49463,-2.4094 3.74784,-4.9371 2.82729,-5.7012 -0.46539,-0.3865 -1.05591,0 -2.0068,1.2854 -0.43625,0.593 -1.05268,1.3195 -1.36864,1.6158 -0.63259,0.5912 -1.27517,0.517 -1.27517,-0.147 0,-0.5829 1.41747,-2.8743 2.51408,-4.0639 1.79794,-1.9508 2.37386,-4.3374 2.16807,-8.9848 -0.27163,-6.1336 -2.20302,-10.8271 -6.19687,-15.0609 -2.61527,-2.7724 -7.3265,-5.8572 -10.58572,-6.9308 -1.6301,-0.5367 -2.14582,-0.596 -5.20224,-0.596 z m 35.79638,2.1842 c -0.35911,-0.077 -0.5293,0.2058 -0.58908,0.8337 -0.1158,1.2141 0.31572,2.3452 2.11086,5.5401 5.05215,8.9899 6.11566,12.2674 6.65621,20.5024 0.23464,3.5742 0.60183,4.9416 1.32657,4.9416 0.2359,0 0.60004,-0.1877 0.80883,-0.4195 0.73976,-0.8174 1.10103,-3.4808 0.97123,-7.1575 -0.13159,-3.73 -0.46437,-5.5876 -1.64212,-9.16 -1.60268,-4.8609 -5.09721,-10.9283 -7.91971,-13.7504 -0.81511,-0.8152 -1.36368,-1.2533 -1.72279,-1.3304 z m -35.68304,8.4503 c -3.38418,0 -4.22089,0.066 -5.76798,0.489 -3.77213,1.0316 -6.77033,2.8317 -9.4379,5.667 -1.24908,1.3278 -1.82314,2.1387 -2.09447,2.9561 -0.4743,1.4278 -1.02371,4.7842 -1.00049,6.1128 l 0.0176,1.018 0.98763,-2.0845 c 1.34835,-2.8466 2.39864,-4.4282 4.12933,-6.2211 1.83528,-1.9012 3.73987,-3.1531 6.11739,-4.0207 4.25841,-1.554 9.64304,-1.2518 13.13948,0.7378 1.62321,0.9235 3.60098,2.9611 4.4718,4.6072 1.24657,2.356 1.66241,4.1489 1.85953,8.011 0.17078,3.344 0.38855,4.3704 1.01336,4.7929 0.37353,0.2524 0.9993,-0.6367 1.38731,-1.9718 2.58254,-8.883 -1.65959,-17.8688 -9.30469,-19.7101 -1.13945,-0.2748 -2.62664,-0.3782 -5.51784,-0.3836 z m -1.48905,5.3307 c -5.28039,-0.2104 -10.24355,2.715 -12.76547,7.7261 -0.59177,1.1754 -0.67316,1.5691 -0.66969,3.2781 0.0113,5.7826 2.8021,10.6388 8.16393,14.2053 3.01956,2.0089 4.88998,2.4422 7.5609,1.7522 3.23421,-0.8349 5.82291,-2.6648 7.5761,-5.3565 1.37439,-2.11 1.65146,-3.5702 1.52525,-8.0199 -0.0954,-3.3614 -0.17786,-4.0101 -0.71182,-5.5743 -1.45075,-4.2507 -4.28043,-6.8526 -8.40239,-7.7256 -0.76107,-0.1606 -1.52244,-0.2549 -2.27681,-0.2854 z m -1.58018,2.9443 c 2.4495,-0.1086 5.14442,0.9054 6.90288,2.6641 2.30493,2.3045 3.25312,6.0092 2.38781,9.331 -0.8038,3.0861 -2.51031,5.1819 -5.37057,6.5959 -1.521,0.7516 -1.96772,0.8647 -3.72145,0.9418 -1.55253,0.068 -2.29392,-0.023 -3.3579,-0.3614 -4.79507,-1.5722 -7.4095,-6.4012 -6.10926,-11.2868 1.10414,-4.1482 4.13346,-7.0043 8.23765,-7.7674 0.33643,-0.063 0.68088,-0.1018 1.03084,-0.1177 z m 0.12973,2.5402 c -1.83829,0 -2.30643,0.081 -3.24104,0.557 -1.31395,0.6715 -2.51898,1.9532 -3.1709,3.3734 -0.36072,0.7857 -0.48017,1.4948 -0.48274,2.8538 -0.002,1.5792 0.0799,1.961 0.65455,2.9982 1.52896,2.7598 4.74025,3.8506 7.40543,2.5175 0.90553,-0.4537 1.77419,-1.4172 1.77419,-1.9695 0,-0.1945 -0.2797,-1.2166 -0.62182,-2.2732 -0.77441,-2.3914 -1.63536,-3.4207 -2.86116,-3.4207 -0.95818,0 -1.24818,0.4338 -0.82163,1.2304 0.63529,1.1872 -0.816,2.0172 -1.80231,1.0311 -0.59274,-0.593 -0.5898,-1.9204 0.007,-2.8977 0.59153,-0.9699 1.80423,-1.4785 3.20477,-1.3439 2.22952,0.2148 3.7753,2.0441 4.2532,5.0362 0.13799,0.863 0.36599,1.6402 0.50728,1.7277 0.47687,0.2945 1.48049,-0.449 1.76372,-1.3071 0.34768,-1.053 0.17012,-3.3779 -0.33195,-4.3486 -0.57562,-1.113 -1.89088,-2.4739 -3.05169,-3.156 -0.92929,-0.5465 -1.25896,-0.6086 -3.18497,-0.6086 z m 58.57489,7.8224 c -0.2812,-0.023 -0.52206,0.147 -0.64869,0.4896 -0.10334,0.2801 -0.25827,1.9856 -0.34475,3.7891 -0.0867,1.8038 -0.2843,4.1202 -0.43948,5.1477 -0.15517,1.0269 -0.23805,2.2428 -0.18467,2.7005 0.0932,0.7978 0.13501,0.7381 0.99583,-1.4151 0.49442,-1.2363 1.1434,-3.2033 1.44112,-4.3704 v 0 c 0.69793,-2.7347 0.72546,-4.934 0.0724,-5.764 -0.28826,-0.3669 -0.61057,-0.5607 -0.89177,-0.5763 z" sodipodi:nodetypes="ssssscssssscssssssssssccssscsssscssssscscccscsssccsssscsssscscccsssssssssssssssssscssssssssssssssscscssssssssssscsssscsssscsssscccscsssssscsscsssscssssccsssscsssssssssscsscssssssccsscsscssssssssssssccssssssscssscccssssssssssssscsssssssssssssssssssssssssssssssssscsscsssssssssccccscccsscsssccsscsscsssssssccsscccssscssscsssccsssscssssssssscssssssssccsssscssssccssscssssssssssscccssssccssssssssscsscssssssssscssssssscssscsssssssscssssscssssscscsssssssssssssssscsssssssscc"></path><g id="g2634-7-9" style="fill:#ffffff;fill-opacity:1;stroke:#ffffff;stroke-width:1.39181;stroke-miterlimit:4;stroke-dasharray:none;stroke-opacity:1" transform="matrix(0,-0.4000455,-0.4000455,0,133.73924,232.353)"><g id="g2636-1-3" style="fill:#ffffff;fill-opacity:1;stroke:#ffffff;stroke-width:1.39181;stroke-miterlimit:4;stroke-dasharray:none;stroke-opacity:1"><path id="line2638-1-2" d="m 239.61084,126.03516 h 200"></path><path d="m 445.646,126.03516 c -2.83984,1.05371 -6.36328,2.85156 -8.54688,4.75488 l 1.71973,-4.75488 -1.71973,-4.75488 c 2.18359,1.90331 5.70703,3.70214 8.54688,4.75488 z" id="path2640-6-1" style="fill:#ffffff;fill-opacity:1;stroke:#ffffff;stroke-width:1.39181;stroke-miterlimit:4;stroke-dasharray:none;stroke-opacity:1"></path></g></g><g id="g189916" style="fill:#ffffff;fill-opacity:1;stroke:#ffffff;stroke-width:1.39181;stroke-miterlimit:4;stroke-dasharray:none;stroke-opacity:1" transform="matrix(0,0.4000455,0.4000455,0,32.89964,13.5107)"><g id="g189914" style="fill:#ffffff;fill-opacity:1;stroke:#ffffff;stroke-width:1.39181;stroke-miterlimit:4;stroke-dasharray:none;stroke-opacity:1"><path id="line189910" d="m 239.61084,126.03516 h 200"></path><path d="m 445.646,126.03516 c -2.83984,1.05371 -6.36328,2.85156 -8.54688,4.75488 l 1.71973,-4.75488 -1.71973,-4.75488 c 2.18359,1.90331 5.70703,3.70214 8.54688,4.75488 z" id="path189912" style="fill:#ffffff;fill-opacity:1;stroke:#ffffff;stroke-width:1.39181;stroke-miterlimit:4;stroke-dasharray:none;stroke-opacity:1"></path></g></g><path id="ellipse187839" style="fill:none;fill-rule:evenodd;stroke:#ffffff;stroke-width:0.5;stroke-linecap:round;stroke-linejoin:round;stroke-dasharray:0.5, 2;paint-order:stroke fill markers;stop-color:#000000" d="M 138.25416,123.18662 A 54.934715,70.170395 0 0 1 83.319443,193.35702 54.934715,70.170395 0 0 1 28.384727,123.18662 54.934715,70.170395 0 0 1 83.319443,53.016228 54.934715,70.170395 0 0 1 138.25416,123.18662 Z"></path></g></svg> 