<?xml version="1.0" encoding="UTF-8" standalone="no"?> <svg xmlns:inkscape="http://www.inkscape.org/namespaces/inkscape" xmlns:sodipodi="http://sodipodi.sourceforge.net/DTD/sodipodi-0.dtd" xmlns:xlink="http://www.w3.org/1999/xlink" xmlns="http://www.w3.org/2000/svg" xmlns:svg="http://www.w3.org/2000/svg" width="232.20584mm" height="500.26587mm" viewBox="0 0 232.20584 500.26586" version="1.1" id="svg310570" inkscape:version="1.1.1 (3bf5ae0d25, 2021-09-20)" sodipodi:docname="f_scan.svg"><defs id="defs310567"><linearGradient inkscape:collect="always" xlink:href="#linearGradient282238" id="linearGradient282240" x1="3672.2556" y1="-3527.2095" x2="3729.8152" y2="-3629.511" gradientUnits="userSpaceOnUse" gradientTransform="rotate(-60,5145.2908,1487.1221)"></linearGradient><linearGradient inkscape:collect="always" id="linearGradient282238"><stop style="stop-color:#2188ff;stop-opacity:0.15000001" offset="0" id="stop282234"></stop><stop style="stop-color:#2188ff;stop-opacity:0.5" offset="1" id="stop282236"></stop></linearGradient><filter inkscape:collect="always" style="color-interpolation-filters:sRGB" id="filter296974" x="-0.085726272" y="-0.1459112" width="1.1714525" height="1.2918224"><feGaussianBlur inkscape:collect="always" stdDeviation="3.7597767" id="feGaussianBlur296976"></feGaussianBlur></filter><filter inkscape:collect="always" style="color-interpolation-filters:sRGB" id="filter282034" x="-0.11823416" y="-0.19426341" width="1.2364683" height="1.3885268"><feGaussianBlur inkscape:collect="always" stdDeviation="6.7209717" id="feGaussianBlur282036"></feGaussianBlur></filter></defs><g inkscape:label="Слой 1" inkscape:groupmode="layer" id="layer1" transform="translate(34.776758,131.00774)"><path id="path281766" style="opacity:0.3;fill:#ffffff;fill-opacity:1;fill-rule:evenodd;stroke-width:0.212785;stroke-linecap:round;stroke-linejoin:round;paint-order:stroke fill markers;stop-color:#000000" d="m 68.397221,67.831101 c -2.846258,1.618854 -4.851212,2.897947 -4.108636,2.672764 1.439231,-0.438421 5.183856,-1.837904 7.36993,-2.754693 3.613084,-1.51504 5.488257,-1.822544 9.019125,-1.47818 2.87342,0.280489 4.141421,0.83105 3.771593,1.636209 -0.355638,0.773978 -1.157006,0.967987 -4.143551,1.00404 -4.258432,0.05102 -6.460743,0.452331 -10.569912,1.924823 -3.65538,1.309904 -6.674458,3.280701 -10.782356,7.038388 -1.356701,1.241475 -1.080605,1.173864 2.379154,-0.578416 5.103222,-2.584439 9.11121,-3.958078 12.711085,-4.357445 3.319788,-0.368241 7.414542,-0.892159 9.274614,-1.186101 1.937466,-0.30619 2.812745,-0.06642 3.760062,1.030379 0.373742,0.432861 1.729382,1.637818 3.0124,2.67717 3.611296,2.926649 4.549532,4.124781 3.631331,4.63955 -0.48984,0.281833 -1.334891,-0.1661 -4.680197,-2.445658 -1.695204,-1.15482 -3.520441,-2.293023 -4.056786,-2.528441 -1.699333,-0.746471 -3.750942,-0.639781 -6.750264,0.3488 -0.839903,0.276954 -1.695919,0.356618 -2.985772,0.279108 -2.385352,-0.143849 -3.409218,-0.05786 -5.458405,0.457835 -2.225017,0.559443 -4.019593,1.24454 -6.898496,2.632546 -2.804916,1.351857 -3.358008,1.78424 -6.91493,5.39561 l -2.320734,2.355628 1.180805,-0.439014 c 0.753886,-0.279966 2.4469,-1.179355 4.683377,-2.488047 3.556008,-2.08238 5.600943,-3.086317 7.772301,-3.815419 3.820533,-1.284758 6.797888,-1.091488 6.791697,0.441036 -0.0026,0.628366 -0.26969,0.840916 -1.146163,0.90981 -2.357619,0.185318 -4.444749,0.503133 -5.472378,0.835439 -2.082696,0.673135 -4.73637,2.007233 -6.816196,3.425998 -2.936528,2.003216 -3.548624,2.580396 -4.648791,4.386944 -0.313425,0.514866 -1.11406,1.617007 -1.779102,2.449292 -0.665,0.831615 -1.657345,2.192807 -2.205644,3.025289 -1.242318,1.885558 -3.574024,5.980985 -4.101799,7.204525 l -0.395658,0.9183 0.39381,-0.4561 c 0.216944,-0.25176 1.050784,-1.33161 1.85344,-2.40025 1.498841,-1.995072 5.467878,-6.802646 7.190251,-8.709882 2.970138,-3.289431 6.750063,-5.880853 10.244848,-7.022398 0.623465,-0.203074 1.866582,-0.398614 2.761746,-0.434084 1.546724,-0.0602 1.716029,-0.109449 3.400439,-0.973736 1.082773,-0.554621 1.910545,-0.886958 2.126574,-0.852531 0.593413,0.09458 6.208204,1.945674 7.561491,2.493513 1.395444,0.564216 5.611464,2.770857 7.254764,3.796176 2.858694,1.783604 7.095133,7.364872 8.766408,11.549542 0.912161,2.28409 1.309794,4.25716 1.935634,9.59617 0.30161,2.57441 0.45346,1.57539 0.36296,-2.39245 v 0 c -0.19114,-8.379741 -0.76423,-10.955709 -3.444614,-15.471962 -2.679297,-4.514278 -3.998133,-5.90163 -6.705386,-7.05613 -1.066502,-0.454556 -3.216337,-1.473939 -4.777439,-2.264627 -1.561381,-0.790611 -3.86021,-1.75492 -5.10854,-2.143551 -2.521536,-0.783772 -3.18004,-1.168809 -3.11259,-1.817837 0.07658,-0.736247 1.018327,-1.095393 2.571716,-0.981544 1.771904,0.129969 3.443081,0.704412 5.656388,1.944852 4.378821,2.45306 5.172503,2.741557 7.030226,2.558489 0.359268,-0.03587 0.889362,0.11718 1.178267,0.339177 1.152606,0.886233 2.987547,3.757823 5.018753,7.854476 0.770619,1.554237 1.594929,2.970886 1.831649,3.147709 0.32718,0.244325 0.39323,0.245508 0.27717,0.0019 -0.0841,-0.175708 -0.64911,-2.071712 -1.25611,-4.21276 -0.607061,-2.141541 -1.558351,-5.084464 -2.113986,-6.539872 -0.555881,-1.455194 -1.129437,-3.075562 -1.274732,-3.601701 -0.316925,-1.147269 -0.346255,-3.00687 -0.05459,-3.49724 0.114597,-0.198491 0.234825,-0.284731 0.281623,-0.207594 0.04439,0.07088 0.241906,0.07961 0.438812,0.01616 0.289543,-0.09252 0.326947,-0.148291 0.197943,-0.280852 -0.08759,-0.09211 -0.263149,-0.109208 -0.390305,-0.03817 -0.152567,0.08825 -0.499552,-0.468549 -1.027525,-1.639925 -0.438296,-0.971851 -1.173512,-2.219782 -1.633552,-2.772995 -1.981647,-2.383093 -3.446799,-3.34817 -6.023213,-3.969291 -1.001841,-0.241359 -1.818511,-0.656852 -2.896017,-1.472948 -2.037187,-1.542092 -4.044189,-2.090461 -7.161437,-1.957233 -2.714955,0.115841 -3.163251,0.269709 -7.420428,2.56076 -1.065107,0.573014 -2.107143,1.149888 -3.055859,1.690101 z M 55.078307,88.373735 c -0.567413,0.220197 -1.912579,1.781484 -3.566302,4.199818 -0.536754,0.785684 -0.976436,1.448435 -0.976502,1.474148 -6.4e-4,0.133111 1.267265,-1.094966 2.608832,-2.525428 1.655643,-1.765859 2.223192,-2.506282 2.224869,-2.905187 9.36e-4,-0.241022 -0.101659,-0.317119 -0.291048,-0.243091 z M 89.020236,69.658191 c 0.278386,-0.209582 0.743563,-0.255092 1.363088,-0.122343 1.189757,0.25528 4.081699,2.53809 4.819409,3.804741 0.714666,1.227839 0.880031,2.476739 0.489502,3.701562 -0.359771,1.128739 -0.700777,1.185779 -0.974776,0.16456 -0.453964,-1.692309 -1.209744,-2.646659 -3.664175,-4.628258 -1.845168,-1.489884 -2.36144,-2.016473 -2.324859,-2.368434 0.02491,-0.241151 0.12486,-0.426056 0.291984,-0.551729 z M 64.162289,88.393816 c -1.226309,0.724626 -2.471183,1.530222 -3.214847,2.119079 -2.655103,2.103574 -5.414684,5.073707 -9.02194,9.710255 -1.881178,2.4175 -1.967794,2.55732 -4.202923,6.78888 -1.506992,2.85338 -2.161012,4.20518 -1.926396,3.98222 0.195369,-0.18639 1.379315,-1.60705 2.63101,-3.15845 v 0 c 1.251797,-1.55157 3.273139,-4.15684 4.492156,-5.79004 4.562203,-6.111367 7.249718,-8.633281 12.951074,-12.152719 2.661727,-1.64364 3.119133,-1.969496 3.333725,-2.37838 0.510594,-0.972376 -0.348221,-1.289465 -1.939527,-0.715641 -0.668446,0.240382 -1.876096,0.875093 -3.102322,1.595379 z m 7.664345,-1.053234 c -0.819672,0.452719 -1.627258,1.095893 -2.59119,2.012072 -0.429805,0.408645 -2.057902,1.606591 -3.618641,2.660868 -3.883804,2.624748 -5.359763,3.807184 -7.668298,6.144683 -1.632853,1.653385 -2.90534,3.286195 -3.861907,4.955225 -0.979889,1.71721 -1.760702,2.70482 -4.227877,5.38189 -1.563845,1.69646 -1.975603,2.23585 -2.845484,3.72433 -0.56281,0.95481 -1.395337,2.53079 -1.856517,3.49798 -0.782539,1.63959 -0.811496,1.73315 -0.432779,1.38819 0.223209,-0.2046 1.242957,-1.39386 2.265561,-2.64486 1.902319,-2.32712 3.581286,-3.94637 4.261431,-4.10922 0.194668,-0.0456 1.231722,-0.80741 2.304761,-1.69096 3.404696,-2.80391 7.870195,-6.37118 9.192224,-7.344 1.689906,-1.2432 6.358257,-3.751818 7.658589,-4.114667 5.482523,-1.531408 10.433357,0.591297 13.312135,5.708107 0.368685,0.65539 1.127944,1.86654 1.686462,2.69176 1.15021,1.69938 1.59981,3.07925 1.943108,5.96225 0.127383,1.06935 0.362019,2.13216 0.58094,2.62817 0.75762,1.71717 0.55366,4.47624 -0.707418,9.57188 -1.686228,6.81283 -2.410959,8.89411 -5.981469,17.16701 -0.643774,1.49166 -1.37735,3.35224 -1.629394,4.1336 -0.252065,0.78158 -0.721525,2.08451 -1.043759,2.89625 -0.322328,0.81168 -0.81355,2.2055 -1.091388,3.09633 -0.431631,1.38401 -0.608083,1.75164 -1.211881,2.53464 -0.847531,1.09897 -2.51097,2.63793 -4.287927,3.9647 -3.365432,2.51331 -8.855662,4.15966 -12.783504,3.83309 -3.691011,-0.30658 -5.861928,-1.75765 -7.141179,-4.77052 -0.5369,-1.26526 -1.405189,-4.78334 -1.896481,-7.68619 -0.468708,-2.76939 -0.452966,-7.28245 0.03206,-9.60535 0.685848,-3.27932 1.898721,-6.63368 3.518647,-9.73386 2.410211,-4.61222 5.36473,-7.91459 9.464274,-10.57702 1.933207,-1.2548 3.334794,-1.84301 6.331947,-2.65665 1.374569,-0.37321 2.516749,-0.79573 3.172121,-1.17287 0.979104,-0.56298 1.043916,-0.57038 1.471598,-0.20808 1.206472,1.02773 2.045121,3.88194 2.032743,6.91778 -0.0079,1.94433 -0.462282,7.3935 -0.82495,9.89165 -0.922282,6.35185 -2.993561,11.22441 -6.212391,14.61378 -1.351119,1.42241 -3.768581,2.98018 -5.33672,3.43967 -2.616722,0.76631 -6.030061,-0.10742 -7.874903,-2.01685 -2.176687,-2.25288 -2.284705,-8.1324 -0.251728,-13.6506 1.378032,-3.73983 3.461751,-6.97974 6.145,-9.55446 1.545209,-1.48297 4.695019,-3.297 6.313111,-3.63287 2.172,-0.45541 3.668378,0.056 4.433131,1.51539 0.325839,0.62183 0.41373,1.0624 0.45801,2.29671 l 0.05523,1.52734 -0.381003,0.34652 c -0.718678,0.65398 -1.612079,0.86873 -3.075336,0.73743 -2.396111,-0.21542 -4.025491,0.41876 -5.791302,2.25403 -1.379528,1.43441 -2.78913,4.18872 -3.15225,6.15926 -0.0894,0.48544 -0.136718,1.4716 -0.104681,2.19112 0.09721,2.18562 1.010979,3.41594 2.622792,3.53118 0.90397,0.0649 2.519828,-0.84026 3.423894,-1.91894 1.83587,-2.18961 2.587252,-5.32325 1.640518,-6.84245 -0.769635,-1.23475 -2.391037,-0.92402 -3.309688,0.63434 -0.37476,0.6291 -0.43955,0.86732 -0.405853,1.42037 0.03419,0.57157 0.0939,0.64114 0.429443,0.49977 0.214425,-0.0931 0.390897,-0.25524 0.39132,-0.36758 0.0015,-0.38364 0.56143,-0.52503 0.781888,-0.19787 0.503231,0.74677 -0.22426,2.33223 -1.373981,2.99381 -0.558849,0.32155 -0.774079,0.34288 -1.166885,0.10329 -0.633791,-0.38324 -0.847655,-1.009 -0.75955,-2.21942 0.101759,-1.40125 0.630335,-2.67536 1.60786,-3.8763 0.701816,-0.86197 0.912405,-1.03171 1.82556,-1.47896 1.233024,-0.60334 2.466848,-0.5279 3.42553,0.21081 0.835077,0.64321 1.104268,1.52655 1.010339,3.31684 -0.08893,1.69884 -0.470624,3.08616 -1.341324,4.87566 -2.212558,4.54665 -6.1815,6.74547 -8.796037,4.87177 -2.025548,-1.45085 -2.510689,-4.59276 -1.324669,-8.57681 1.021648,-3.43174 3.127428,-6.51145 5.63059,-8.23487 1.967006,-1.35434 3.706506,-1.65404 5.882749,-1.01282 1.301107,0.38343 1.796458,-0.0401 1.318,-1.12664 -0.588271,-1.33568 -2.451811,-1.99613 -4.407321,-1.56249 -1.248207,0.27735 -3.727191,1.70989 -4.952638,2.87095 -2.08014,1.95691 -3.937143,4.72334 -5.046899,7.51809 -2.200591,5.54233 -1.937252,10.57402 0.669726,12.79381 1.588273,1.35242 3.51057,1.69531 5.660911,1.00881 1.3191,-0.42095 1.973743,-0.80163 3.224183,-1.87419 4.244878,-3.63933 6.802607,-10.64125 6.232478,-17.06296 l -0.169243,-1.90585 0.373071,-0.60618 c 1.19874,-1.94628 1.12856,-5.00473 -0.155087,-6.783 -0.590971,-0.8182 -1.377691,-1.06676 -2.891764,-0.9123 -2.134756,0.21849 -3.877006,0.81856 -6.117496,2.109 -4.091813,2.35433 -7.071353,5.64975 -9.557891,10.56396 -1.229899,2.43024 -2.033602,4.6763 -2.634282,7.36151 -0.388439,1.737 -0.466618,2.3938 -0.529391,4.45254 -0.08752,2.87478 0.193592,4.93668 1.048172,7.68971 0.419698,1.35186 0.539879,2.0225 0.535551,2.98879 -0.0082,2.02594 0.917918,3.58473 2.775539,4.66704 4.225362,2.46145 11.976544,0.4496 16.53493,-4.29114 2.12653,-2.21106 3.348573,-4.31271 5.74181,-9.87511 0.809184,-1.88056 1.968011,-4.46949 2.575112,-5.75323 1.124413,-2.37695 2.342181,-5.40078 2.931609,-7.2775 0.42828,-1.364 2.355379,-8.62042 2.886312,-10.86844 0.501518,-2.12284 0.550968,-4.2925 0.09982,-4.40309 -0.365199,-0.0893 -0.573043,0.47595 -1.093059,2.97563 -0.427831,2.05743 -0.834352,3.12315 -1.159781,3.0408 -0.235129,-0.0595 -0.05719,-1.93273 0.462218,-4.87098 0.482562,-2.73043 0.549132,-4.61873 0.229819,-6.50545 -0.259878,-1.53569 -0.599799,-2.13112 -1.097266,-1.92308 -0.562496,0.23446 -0.66952,0.88004 -0.681531,4.11805 -0.0063,1.53708 -0.09115,4.08847 -0.190566,5.67005 -0.159843,2.54367 -0.154164,3.02904 0.05238,4.2001 0.214959,1.21888 0.215881,1.44908 0.0055,2.89614 -0.72666,5.00501 -2.719229,10.69124 -4.14371,11.82592 -0.527422,0.4194 -0.638767,0.63036 -1.567626,2.95139 -1.723594,4.30797 -3.506631,7.58787 -5.419534,9.96892 -3.706227,4.61416 -9.446939,6.98378 -13.777578,5.68807 -1.862289,-0.55743 -4.352679,-2.65875 -4.068412,-3.4327 0.156962,-0.42588 0.787831,-0.67837 1.25918,-0.50277 0.245349,0.0908 0.972663,0.44009 1.616783,0.77444 2.562038,1.33163 5.020678,1.34874 8.10018,0.0559 3.728009,-1.5645 7.061108,-5.25659 9.370599,-10.37995 1.063069,-2.35809 1.49992,-3.98434 2.284199,-8.49374 0.95612,-5.49666 1.23278,-8.18985 1.250573,-12.19747 0.01873,-4.60302 -0.426591,-7.51433 -1.714162,-11.16778 -1.473761,-4.18057 -4.080901,-5.74527 -8.102509,-4.86205 -1.296201,0.28429 -1.645621,0.44271 -4.111933,1.86189 -2.47095,1.42198 -2.812098,1.65809 -4.104217,2.8671 -0.775209,0.7233 -1.799182,1.78368 -2.274611,2.35455 -0.990872,1.18965 -3.81489,5.32958 -6.197841,9.08678 -2.647727,4.17358 -5.463437,9.75453 -6.353278,12.59219 -0.597663,1.90499 -1.17889,5.8559 -1.449451,9.85673 -0.05175,0.76063 -0.131422,1.73423 -0.177772,2.16311 l -0.08449,0.78053 0.303187,-0.57712 c 0.166606,-0.31859 0.598462,-1.83618 0.959375,-3.3729 1.181978,-5.03405 2.417429,-8.71751 4.292397,-12.79824 1.623938,-3.53434 4.463231,-8.12215 6.560911,-10.60044 0.947759,-1.11996 1.014139,-1.17194 2.04259,-1.58587 0.766921,-0.30835 1.696319,-0.86598 3.334278,-2.00206 3.696303,-2.562 6.240292,-3.53967 9.105613,-3.49839 1.405299,0.0202 1.877508,-0.20294 1.88026,-0.88851 0.0028,-0.70353 -1.04605,-1.38059 -2.29035,-1.4788 -1.683542,-0.13322 -3.001431,0.23023 -5.352162,1.47342 -2.171483,1.14886 -3.310502,1.96017 -5.429981,3.86861 -0.68407,0.61565 -1.28256,1.09006 -1.330106,1.0536 -0.233723,-0.17997 0.142637,-1.18805 0.753469,-2.01665 2.00679,-2.72406 6.21297,-5.55077 9.417648,-6.33003 2.34698,-0.57009 4.638361,0.18692 5.341869,1.76361 0.557829,1.25021 0.66254,3.11385 0.203281,3.6131 -0.108605,0.11813 -0.434816,0.13638 -0.724269,0.0411 -0.289421,-0.0955 -0.831229,-0.0557 -1.204871,0.0891 -0.373523,0.14464 -1.425428,0.41071 -2.337597,0.59063 -2.349581,0.46339 -3.523802,0.90621 -5.628939,2.12561 -3.152885,1.8351 -6.091353,4.11954 -7.686142,5.99859 -3.12905,3.68727 -6.262773,9.99545 -7.857602,15.81697 -0.97067,3.54385 -1.25126,6.23685 -0.862339,8.27982 0.107558,0.56451 0.386891,2.35367 0.620839,3.97508 1.138302,7.88839 3.481343,12.25572 7.222809,13.46393 3.701821,1.19605 9.739651,0.57322 15.097714,-1.55683 3.674086,-1.46029 8.943198,-5.45007 12.107478,-9.16815 2.730251,-3.20854 4.747339,-6.85804 7.970388,-14.42072 3.493491,-8.1967 5.66938,-16.60945 5.771164,-22.30976 0.02749,-1.56041 -0.0029,-1.79502 -0.260921,-1.99447 -0.283939,-0.2182 -0.303679,-0.20882 -0.607485,0.29635 -0.24871,0.41078 -0.46704,1.43053 -1.037724,4.80879 -1.329457,7.86948 -3.023598,13.46243 -6.250035,20.63217 -2.518634,5.59682 -5.487804,10.03077 -8.038131,12.00465 -0.813013,0.62919 -1.737823,0.71521 -1.662891,0.15422 0.06142,-0.45979 1.332538,-2.11002 3.22034,-4.17959 1.816259,-1.99205 2.789558,-3.42105 4.122342,-6.05552 3.518359,-6.95397 5.856766,-14.2474 7.409796,-23.10832 0.281761,-1.60783 0.643002,-3.63292 0.802293,-4.50063 0.34414,-1.87527 0.37114,-3.40363 0.09655,-5.40703 -0.402372,-2.93846 -1.67739,-6.27267 -2.740393,-7.16548 -0.548437,-0.46029 -0.973029,-0.35567 -1.280347,0.31341 -0.223549,0.48719 -0.08173,1.20797 0.821229,4.15959 0.86841,2.83907 1.176019,5.03428 1.083072,7.72926 -0.277961,8.05545 -4.006882,20.75593 -8.522152,29.02401 -1.056418,1.93376 -1.810452,2.9358 -2.061869,2.74225 -0.23946,-0.18444 0.205668,-1.40442 1.685586,-4.6233 3.218161,-6.99982 5.030831,-12.33046 6.405745,-18.83309 1.299296,-6.14584 1.252116,-8.76272 -0.271943,-15.09098 -0.300501,-1.24771 -0.614027,-2.86148 -0.697079,-3.58562 -0.264252,-2.3047 -1.145108,-3.812425 -3.683697,-6.308652 -3.242023,-3.187448 -7.441123,-4.742194 -11.199004,-4.145953 -1.968057,0.312775 -3.046403,0.764525 -6.237378,2.617256 -3.391292,1.972293 -5.243098,3.314512 -8.744931,6.353669 -2.445229,2.12186 -3.058152,2.51727 -3.30194,2.13172 -0.208725,-0.33008 0.11861,-0.81764 1.620261,-2.41617 2.608795,-2.776367 5.451857,-5.076495 9.797187,-7.924027 4.70288,-3.082427 6.628252,-3.859674 9.356179,-3.790779 3.946576,0.103331 8.179123,2.188345 12.120444,5.970984 0.816113,0.783641 2.28239,2.032382 3.258551,2.776217 1.35477,1.031475 1.922525,1.621495 2.399628,2.492325 1.204801,2.19777 2.012904,4.98455 2.457924,8.47615 0.150518,1.18109 0.395268,2.17538 0.73668,2.99302 l 0.511359,1.22431 -0.02559,2.67233 c -0.02228,2.32379 -0.08401,2.99471 -0.467108,5.13385 -1.061029,5.92475 -2.833581,11.39471 -6.095611,18.80591 -0.725697,1.64874 -1.777927,4.07405 -2.3381,5.38951 -1.69367,3.97732 -3.21065,6.44401 -6.17464,10.04079 -4.697829,5.70028 -8.067348,8.00545 -13.627832,9.32431 -3.159358,0.74896 -5.107409,1.04268 -7.762227,1.16796 -5.07449,0.24047 -7.446593,-0.19572 -9.723192,-1.78493 -2.991878,-2.08833 -4.161471,-5.29793 -4.939169,-13.55352 -0.251702,-2.67203 -0.463607,-3.59181 -0.81638,-3.54318 -0.532469,0.0739 0.303839,6.18414 1.354329,9.89343 1.753049,6.19003 4.736294,9.62229 9.408572,10.82507 1.999217,0.51466 6.936358,0.86808 8.507432,0.60889 0.81575,-0.13432 2.406656,-0.36104 3.535969,-0.50427 3.629701,-0.45963 6.096337,-1.57216 8.975447,-4.04812 v 0 c 1.669213,-1.43518 3.64604,-3.65553 5.846814,-6.5654 3.736879,-4.94126 5.264436,-7.44305 6.264107,-10.26014 0.38544,-1.0862 1.408712,-3.58517 2.273648,-5.55327 3.637061,-8.27397 5.605772,-14.38609 6.7635,-20.99632 1.166864,-6.66329 1.052706,-11.12075 -0.431717,-16.82845 -1.187832,-4.566625 -3.844169,-8.482297 -8.15167,-12.015507 -4.757763,-3.902119 -11.660197,-6.594553 -15.253748,-5.94974 -1.012646,0.181954 -1.845185,0.454152 -2.665031,0.90977 z m -6.409552,14.391868 c -1.862661,1.05282 -3.847713,2.48324 -5.943423,4.25171 -3.798784,3.20569 -5.35927,4.94993 -7.037595,7.86767 -0.5895,1.02104 -2.062323,3.44406 -3.277139,5.38117 -2.622743,4.18513 -3.243371,5.28808 -3.767139,6.69487 -0.51298,1.37711 -1.254744,4.1005 -1.963684,7.21222 l -0.568269,2.49527 0.389018,-0.7778 c 0.213333,-0.42751 0.795412,-1.7265 1.293092,-2.88751 1.338331,-3.12166 2.462779,-5.39165 3.962863,-8.00088 1.40404,-2.45187 4.397797,-7.226 5.841237,-9.33412 2.678479,-3.91046 5.783436,-6.95 9.518394,-9.31474 4.978139,-3.15179 8.967952,-3.57175 11.969205,-1.26047 3.299263,2.5413 4.368019,7.05778 4.12544,17.44293 -0.107159,4.58881 -0.281737,6.23138 -1.10966,10.44539 -0.587188,2.98883 -0.679021,3.8635 -0.464896,4.44161 0.096,0.25913 0.224956,0.44258 0.286536,0.40712 0.06218,-0.0357 0.288799,-0.44422 0.505741,-0.90798 0.560287,-1.20084 1.693892,-5.09091 2.143549,-7.35593 0.33411,-1.68349 0.402369,-2.48332 0.5383,-6.28637 0.08559,-2.39704 0.146711,-6.8749 0.135559,-9.95019 l -0.02009,-5.5918 -0.436531,-1.10871 c -0.686038,-1.74235 -1.668379,-3.01987 -3.282449,-4.26803 -1.550641,-1.19941 -2.913368,-1.772101 -4.601059,-1.931733 -2.366684,-0.224985 -5.131059,0.562652 -8.235726,2.336693 z m -14.510844,10.46872 c -0.196969,0.0944 -0.434132,0.28595 -0.687521,0.53802 -1.064024,1.07375 -3.061579,3.68501 -3.700464,4.8362 -0.357491,0.64519 -0.954461,1.94517 -1.32527,2.88983 -0.865209,2.20258 -1.87891,5.16237 -1.741599,5.08333 0.05845,-0.0332 0.85299,-1.29142 1.766599,-2.79483 0.912823,-1.50307 2.528159,-4.0215 3.588893,-5.59655 1.980654,-2.94099 2.641589,-4.13257 2.644261,-4.76599 0.0012,-0.30655 -0.216379,-0.36018 -0.544809,-0.19076 z" sodipodi:nodetypes="ssssssssssssscssssssscsssssssssssccssssssssssccssssssssssssssssssscsssssssssssssscsssssscssssssssssssssssssssssscssssssssssssssssssssssssssscsscssssssssssssssssssssssssssscssscscssssssssssssssssssssssssssssssssssssssssssssscssssscssssssssssssscssssssssssssssssssssssssssssssssssssssssssscssssssssssssssccsssssssssssssscsssssssssssssscssssscssssssssssss"></path><path id="path282038" style="fill:url(#linearGradient282240);fill-opacity:1;fill-rule:evenodd;stroke-width:0.0763511;stroke-linecap:round;stroke-linejoin:round;paint-order:stroke fill markers;stop-color:#000000" inkscape:transform-center-x="3.3631174" inkscape:transform-center-y="-5.8249477" d="M 139.15089,73.744134 2.7236557,152.51004 2.7240436,292.30998 139.15106,213.54406 Z" sodipodi:nodetypes="ccccc"></path><path id="path282012" style="fill:#2188ff;fill-opacity:1;fill-rule:evenodd;stroke-width:0.0645268;stroke-linecap:round;stroke-linejoin:round;paint-order:stroke fill markers;stop-color:#000000" inkscape:transform-center-x="5.6844589" inkscape:transform-center-y="8.2502331e-05" d="M 139.15094,73.74427 2.7236557,152.51004 6.4188643,154.64336 142.8461,75.877448 Z" sodipodi:nodetypes="ccccc"></path><path id="path282808" style="opacity:0.5;mix-blend-mode:normal;fill:#ffffff;fill-opacity:1;fill-rule:evenodd;stroke-width:0.212785;stroke-linecap:round;stroke-linejoin:round;paint-order:stroke fill markers;filter:url(#filter296974);stop-color:#000000" d="m 119.2837,78.5766 c -2.8251,-1.6555 -4.9353,-2.7523 -4.369,-2.2218 1.0993,1.0272 4.1836,3.5704 6.0706,5.0052 3.1186,2.3715 4.3225,3.8417 5.7897,7.0717 1.1938,2.6287 1.351,4.0021 0.4688,4.0844 -0.8481,0.079 -1.4168,-0.518 -2.9413,-3.0864 -2.1734,-3.6624 -3.6221,-5.369 -6.9519,-8.1914 -2.9621,-2.5107 -6.1784,-4.1399 -11.4866,-5.8186 -1.7535,-0.5542 -1.5569,-0.3489 1.6905,1.7712 4.7898,3.1273 7.9834,5.9115 10.1292,8.8294 1.9788,2.6909 4.4799,5.9751 5.6645,7.439 1.2339,1.5248 1.4639,2.4027 0.9877,3.7715 -0.188,0.5401 -0.5537,2.3166 -0.8123,3.9474 -0.7289,4.5908 -1.2974,6.0024 -2.2023,5.4646 -0.489,-0.2833 -0.5236,-1.2391 -0.2221,-5.276 0.1525,-2.0455 0.2256,-4.1953 0.1613,-4.7775 -0.2032,-1.8449 -1.3214,-3.5683 -3.6772,-5.6715 -0.6598,-0.5889 -1.1568,-1.2904 -1.7346,-2.4462 -1.0681,-2.1377 -1.6545,-2.9814 -3.1257,-4.4982 -1.597,-1.6472 -3.0876,-2.8588 -5.7291,-4.658 -2.5732,-1.7532 -3.2242,-2.016 -8.1302,-3.2907 l -3.2004,-0.832 0.9706,0.8031 c 0.6194,0.5129 2.2448,1.5294 4.4964,2.8119 3.5814,2.0384 5.4733,3.3074 7.1904,4.8233 3.0229,2.6663 4.3442,5.3414 3.0139,6.1023 -0.5455,0.3119 -0.8631,0.1869 -1.361,-0.5377 -1.3393,-1.9491 -2.6581,-3.5977 -3.4597,-4.3215 -1.6243,-1.4671 -4.1065,-3.0982 -6.3751,-4.19 -3.2031,-1.5415 -4.009,-1.783 -6.1236,-1.8325 -0.6026,-0.014 -1.9574,-0.1563 -3.0107,-0.3161 -1.0527,-0.1601 -2.7277,-0.3389 -3.7228,-0.3975 -2.2541,-0.1331 -6.9667,-0.1047 -8.2902,0.05 l -0.9931,0.1165 0.5919,0.113 c 0.3265,0.062 1.6786,0.2442 3.0054,0.405 2.4772,0.3005 8.6252,1.334 11.1381,1.872 4.3338,0.9275 8.468,2.9053 11.204,5.3611 0.4876,0.4384 1.2785,1.4172 1.7568,2.1747 0.8255,1.3094 0.9528,1.4314 2.5435,2.458 1.0217,0.6604 1.7234,1.2111 1.8016,1.4154 0.2148,0.5612 1.4191,6.3493 1.6213,7.7952 0.2091,1.4906 0.4061,6.2451 0.3398,8.1809 -0.1153,3.3675 -2.8306,9.827 -5.619,13.3667 -1.522,1.932 -3.0319,3.2629 -7.3427,6.4744 -2.0787,1.5484 -1.1376,1.1804 2.2534,-0.8819 v 0 c 7.1615,-4.3554 9.1058,-6.1397 11.6768,-10.7191 2.5698,-4.5775 3.1119,-6.4133 2.7581,-9.3351 -0.1396,-1.1509 -0.3317,-3.5224 -0.4275,-5.2697 -0.096,-1.7475 -0.4103,-4.2205 -0.6979,-5.4959 -0.582,-2.5756 -0.5778,-3.3384 0.018,-3.6045 0.6759,-0.3018 1.4578,0.3342 2.1359,1.7364 0.7734,1.5995 1.1115,3.334 1.1439,5.871 0.065,5.0187 0.212,5.8503 1.2994,7.3676 0.2107,0.2932 0.3432,0.8288 0.2954,1.19 -0.1912,1.4413 -1.7606,4.4662 -4.2928,8.2736 -0.9607,1.4445 -1.7754,2.8667 -1.8102,3.1601 -0.048,0.4055 -0.016,0.4633 0.1369,0.241 0.1101,-0.1607 1.4696,-1.598 3.0203,-3.1942 1.5511,-1.5965 3.6241,-3.8918 4.6067,-5.1007 0.9823,-1.209 2.0988,-2.5159 2.4818,-2.9048 0.8351,-0.8481 2.4309,-1.8033 3.0014,-1.7959 0.2292,0 0.364,0.061 0.3206,0.1401 -0.039,0.074 0.052,0.2493 0.2054,0.3881 0.2249,0.2045 0.2919,0.209 0.3422,0.031 0.036,-0.1219 -0.037,-0.2825 -0.1621,-0.3571 -0.1527,-0.088 0.156,-0.6669 0.9065,-1.7098 0.6225,-0.8655 1.3356,-2.1262 1.5847,-2.8012 1.073,-2.9077 1.1762,-4.6591 0.4259,-7.2009 -0.2919,-0.9883 -0.3404,-1.9033 -0.1724,-3.2445 0.3169,-2.5353 -0.2117,-4.5476 -1.8857,-7.1806 -1.4578,-2.2933 -1.8152,-2.6046 -5.9279,-5.1459 -1.0288,-0.6359 -2.0494,-1.2499 -2.9916,-1.8014 z M 94.8338,77.3134 c -0.4744,-0.3813 -2.4991,-0.7656 -5.4203,-0.9886 -0.9488,-0.072 -1.7426,-0.1214 -1.7649,-0.1086 -0.1156,0.066 1.5819,0.55 3.4915,0.9966 2.3571,0.5509 3.2821,0.6722 3.6284,0.4742 0.2092,-0.1197 0.2238,-0.2466 0.065,-0.3736 z m 33.1791,20.0368 c 0.3207,0.1363 0.5927,0.5164 0.7875,1.1193 0.3738,1.158 -0.1572,4.8039 -0.8853,6.0761 -0.7059,1.2329 -1.7049,2.0005 -2.9609,2.2747 -1.1574,0.2528 -1.3773,-0.014 -0.6299,-0.7619 1.2386,-1.2393 1.6872,-2.371 2.1761,-5.4874 0.3677,-2.3429 0.5656,-3.0533 0.8887,-3.1976 0.2213,-0.099 0.4314,-0.1049 0.6238,-0.023 z M 99.3584,85.1904 c -1.2407,-0.6997 -2.5608,-1.375 -3.4426,-1.7246 -3.1493,-1.2476 -7.1013,-2.1524 -12.9203,-2.9581 -3.0342,-0.4204 -3.1986,-0.4255 -7.9808,-0.2454 -3.2246,0.1216 -4.7223,0.2311 -4.4119,0.3228 0.2591,0.076 2.0814,0.391 4.0508,0.6993 v 0 c 1.9696,0.3083 5.2365,0.7562 7.2604,0.9953 7.5737,0.8953 11.1015,1.9618 17.0001,5.1396 2.7543,1.4833 3.2652,1.7165 3.7266,1.6979 1.0974,-0.044 0.9426,-0.9463 -0.35,-2.0375 -0.5424,-0.4587 -1.6959,-1.1872 -2.9328,-1.889 z m 4.7443,6.1109 c -0.8019,-0.4835 -1.7627,-0.8613 -3.0381,-1.238 -0.5688,-0.1679 -2.4203,-0.9789 -4.1137,-1.8034 -4.215,-2.0511 -5.977,-2.7381 -9.1556,-3.5686 -2.2483,-0.5874 -4.2986,-0.873 -6.2223,-0.8669 -1.9771,0.01 -3.2228,-0.1724 -6.7748,-0.9705 -2.2511,-0.5061 -2.9241,-0.593 -4.6481,-0.6021 -1.1083,-0.01 -2.8894,0.057 -3.9576,0.1412 -1.8112,0.1421 -1.9067,0.1638 -1.4186,0.3193 0.2888,0.091 1.8286,0.3795 3.4233,0.6396 2.9665,0.4839 5.2083,1.1283 5.6894,1.6359 0.1368,0.1458 1.3151,0.663 2.6168,1.1505 4.1306,1.5466 9.4527,3.6302 10.9562,4.2887 1.9216,0.8419 6.4283,3.6305 7.3927,4.5752 4.0675,3.9823 4.7046,9.3312 1.7127,14.3827 -0.3832,0.647 -1.0525,1.9101 -1.4879,2.8064 -0.8966,1.8458 -1.8668,2.9251 -4.1919,4.6639 -0.8624,0.645 -1.6655,1.3796 -1.9856,1.8172 -1.1083,1.5147 -3.5997,2.7176 -8.6432,4.1733 -6.7432,1.9461 -8.908,2.3591 -17.8578,3.4034 -1.6137,0.1883 -3.5918,0.4833 -4.3945,0.6557 -0.8029,0.1725 -2.166,0.4174 -3.0301,0.5442 -0.8641,0.1267 -2.3168,0.3982 -3.2272,0.603 -1.4144,0.3182 -1.821,0.3492 -2.801,0.2178 -1.3755,-0.1845 -3.54,-0.8556 -5.5775,-1.7311 -3.8593,-1.6579 -8.0302,-5.5894 -9.7113,-9.1543 -1.58,-3.3498 -1.4088,-5.9554 0.5608,-8.5697 0.8273,-1.0976 3.4399,-3.6086 5.7082,-5.4855 2.164,-1.7906 6.0803,-4.0335 8.3345,-4.7749 3.1829,-1.0457 6.6943,-1.6725 10.1891,-1.8197 5.1994,-0.2188 9.5366,0.6887 13.8921,2.9078 2.0533,1.0468 3.2635,1.9665 5.4667,4.1553 1.0105,1.0038 1.9475,1.7817 2.6018,2.1607 0.9773,0.5661 1.0159,0.6189 0.916,1.1704 -0.2868,1.5587 -2.3393,3.7121 -4.9746,5.2193 -1.6878,0.9653 -6.6341,3.2964 -8.9789,4.2314 -5.962,2.3772 -11.2174,3.0197 -15.7621,1.9268 -1.9074,-0.4589 -4.4652,-1.7736 -5.6472,-2.9019 -1.972,-1.883 -2.922,-5.2759 -2.1908,-7.8283 0.8627,-3.0115 5.9005,-6.0448 11.6959,-7.0433 3.9278,-0.6765 7.7755,-0.4919 11.3469,0.5445 2.0569,0.5967 5.2028,2.4175 6.3027,3.6509 1.4804,1.6533 1.7857,3.2049 0.9042,4.5969 -0.3756,0.5931 -0.7132,0.8895 -1.76,1.545 l -1.2951,0.8115 -0.4906,-0.1567 c -0.9257,-0.2954 -1.5584,-0.9617 -2.1763,-2.2946 -1.0115,-2.1828 -2.3754,-3.2768 -4.8477,-3.8884 -1.932,-0.4775 -5.0221,-0.3211 -6.9102,0.3497 -0.4651,0.1653 -1.3428,0.6174 -1.9499,1.0049 -1.8442,1.177 -2.4528,2.5835 -1.7467,4.037 0.3958,0.8153 1.9876,1.7621 3.3738,2.0057 2.8142,0.4951 5.9037,-0.421 6.746,-2.0005 0.6845,-1.2839 -0.3953,-2.5327 -2.2042,-2.5491 -0.7322,-0.01 -0.9709,0.053 -1.433,0.3587 -0.4779,0.3154 -0.5083,0.4019 -0.2181,0.6218 0.1878,0.1392 0.4165,0.2109 0.514,0.1551 0.333,-0.1905 0.7354,0.2237 0.5623,0.5782 -0.3951,0.8092 -2.1319,0.9719 -3.2797,0.307 -0.5579,-0.3232 -0.684,-0.4989 -0.6729,-0.9589 0.015,-0.7405 0.45,-1.2386 1.5423,-1.7675 1.2644,-0.6125 2.6321,-0.7918 4.1609,-0.5457 1.0974,0.1768 1.3497,0.2743 2.1936,0.8415 1.139,0.7662 1.6906,1.8724 1.5302,3.072 -0.1395,1.0448 -0.7699,1.7196 -2.3673,2.5334 -1.5157,0.7724 -2.908,1.1355 -4.8931,1.2762 -5.0438,0.3572 -8.9325,-1.9806 -8.6171,-5.1817 0.2437,-2.4796 2.7221,-4.4707 6.7654,-5.4356 3.4828,-0.8311 7.2028,-0.5473 9.9469,0.7588 2.1564,1.0263 3.2857,2.3829 3.8185,4.5882 0.3185,1.3185 0.933,1.5357 1.6347,0.5781 0.8626,-1.1773 0.5028,-3.1214 -0.8505,-4.5981 -0.8643,-0.9423 -3.3444,-2.3729 -4.9626,-2.8537 -2.7348,-0.823 -6.0591,-1.048 -9.0343,-0.6117 -5.9001,0.8654 -10.126,3.6093 -10.7449,6.9769 -0.3771,2.0517 0.2871,3.8879 1.9568,5.4069 1.0241,0.9319 1.6811,1.3085 3.2352,1.8551 5.2742,1.8565 12.6169,0.5706 17.8932,-3.134 l 1.5659,-1.0995 0.7115,0.02 c 2.2849,0.065 4.8985,-1.525 5.7967,-3.5258 0.4131,-0.9209 0.235,-1.7265 -0.6558,-2.9605 -1.2566,-1.7395 -2.6474,-2.9483 -4.8852,-4.2434 -4.0849,-2.3663 -8.4285,-3.2991 -13.9276,-2.9954 -2.7196,0.15 -5.0666,0.577 -7.6924,1.3994 -1.6985,0.5321 -2.3064,0.7928 -4.1207,1.7678 -2.5334,1.3616 -4.1785,2.636 -6.1354,4.7526 -0.9609,1.0394 -1.4816,1.4788 -2.3206,1.9582 -1.7586,1.0059 -2.6455,2.5873 -2.654,4.7372 -0.019,4.89 5.5989,10.5968 11.9837,12.1741 2.9781,0.7361 5.4092,0.7436 11.423,0.035 2.0332,-0.2395 4.8547,-0.5304 6.27,-0.6465 2.6207,-0.2147 5.8483,-0.672 7.7683,-1.0999 1.3954,-0.3111 8.6432,-2.2704 10.8555,-2.9346 2.0892,-0.6271 3.9929,-1.6691 3.8631,-2.1151 -0.1053,-0.3609 -0.6987,-0.2583 -3.1235,0.5412 -1.9957,0.6582 -3.1219,0.839 -3.2133,0.516 -0.066,-0.2334 1.6452,-1.0159 4.4495,-2.0352 2.6059,-0.9473 4.2745,-1.8338 5.7488,-3.0537 1.2,-0.9929 1.5457,-1.585 1.1168,-1.9118 -0.4843,-0.3699 -1.0969,-0.1398 -3.9071,1.4688 -1.3343,0.7631 -3.5863,1.9653 -5.0057,2.67 -2.2828,1.1334 -2.7003,1.381 -3.6112,2.1454 -0.9481,0.7956 -1.147,0.9115 -2.5054,1.4528 -4.6978,1.8732 -10.6185,2.9907 -12.3134,2.3244 -0.6269,-0.2471 -0.8653,-0.238 -3.3398,0.1181 -4.5926,0.6613 -8.3246,0.7571 -11.3431,0.291 -5.8491,-0.9026 -10.7716,-4.6894 -11.8148,-9.0877 -0.4484,-1.8915 0.1262,-5.0989 0.9386,-5.2397 0.4473,-0.077 0.9814,0.3431 1.065,0.8391 0.044,0.2579 0.1052,1.0624 0.1377,1.7874 0.1278,2.8846 1.3423,5.0224 4.0017,7.0429 3.2189,2.4463 8.0829,3.4868 13.6746,2.9252 2.5737,-0.2584 4.2005,-0.6932 8.4979,-2.2687 5.2383,-1.9203 7.709,-3.0273 11.1886,-5.0157 3.9957,-2.2853 6.2943,-4.1266 8.8145,-7.0684 2.8836,-3.3666 2.9351,-6.4068 0.1594,-9.448 -0.8943,-0.9804 -1.2062,-1.2038 -3.6684,-2.6301 -2.4669,-1.429 -2.842,-1.6063 -4.5351,-2.1208 -1.014,-0.3097 -2.4443,-0.6663 -3.1764,-0.7926 -1.5257,-0.2633 -6.523,-0.639 -10.9683,-0.8241 -4.9383,-0.2062 -11.1794,0.1458 -14.0818,0.794 -1.9486,0.4349 -5.6608,1.907 -9.2609,3.6731 -0.6846,0.3355 -1.5676,0.7533 -1.9622,0.9276 l -0.7182,0.3171 0.6514,-0.026 c 0.3592,-0.015 1.8894,-0.3998 3.4007,-0.8556 4.9506,-1.4934 8.7583,-2.2652 13.2298,-2.6818 3.8728,-0.3608 9.2656,-0.1958 12.4607,0.3817 1.4438,0.2608 1.522,0.2923 2.3947,0.976 0.6505,0.51 1.5981,1.0361 3.401,1.8865 4.0669,1.9201 6.1856,3.6344 7.5825,6.1365 0.6852,1.2271 1.1145,1.5245 1.7096,1.1841 0.6107,-0.3493 0.6726,-1.5962 0.1355,-2.7229 -0.7264,-1.5246 -1.7001,-2.4842 -3.9521,-3.8984 -2.0807,-1.3061 -3.3528,-1.8869 -6.0653,-2.7682 -0.8752,-0.2846 -1.5853,-0.5657 -1.5775,-0.6251 0.039,-0.2924 1.1002,-0.4705 2.1232,-0.3558 3.3625,0.3759 7.9136,2.6052 10.1908,4.9909 1.6672,1.7475 2.1573,4.1104 1.1436,5.508 -0.8038,1.1082 -2.3654,2.1307 -3.0274,1.9826 -0.1566,-0.035 -0.3355,-0.3084 -0.3977,-0.6067 -0.062,-0.2984 -0.3674,-0.7477 -0.6796,-0.9989 -0.312,-0.2512 -1.0684,-1.0291 -1.6803,-1.7291 -1.5761,-1.8031 -2.5467,-2.5986 -4.6553,-3.812 -3.1657,-1.8129 -6.6133,-3.2155 -9.038,-3.6571 -4.7578,-0.8662 -11.7877,-0.426 -17.6267,1.1036 -3.5544,0.9313 -6.0269,2.0348 -7.6017,3.3931 -0.4351,0.3754 -1.8449,1.5119 -3.1321,2.5252 -6.2624,4.93 -8.8731,9.1428 -8.0487,12.9871 0.8151,3.8039 4.3734,8.7214 8.8971,12.2966 3.1017,2.4517 9.1915,5.02 13.9936,5.9013 4.1438,0.7602 8.3129,0.6823 16.4739,-0.3078 8.8453,-1.0729 17.2189,-3.3949 22.2064,-6.1569 1.3651,-0.7564 1.5531,-0.9 1.5968,-1.2232 0.047,-0.355 0.029,-0.3674 -0.5604,-0.3779 -0.4801,-0.01 -1.4724,0.3108 -4.6834,1.5057 -7.4799,2.7834 -13.1706,4.1127 -20.993,4.9034 -6.1063,0.6172 -11.4308,0.2628 -14.4154,-0.9589 -0.9514,-0.3895 -1.4883,-1.1474 -0.965,-1.363 0.4289,-0.1767 2.4936,0.099 5.2298,0.6991 2.6333,0.5769 4.3575,0.7053 7.3054,0.5423 7.7815,-0.43 15.267,-2.0516 23.7173,-5.1371 1.5333,-0.5599 3.4677,-1.2596 4.2988,-1.5555 1.7961,-0.6396 3.1332,-1.3804 4.7309,-2.6199 2.3436,-1.8177 4.5936,-4.589 4.8353,-5.956 0.1244,-0.7051 -0.1785,-1.0205 -0.9116,-0.9521 -0.5337,0.05 -1.087,0.5332 -3.1917,2.791 -2.0245,2.1716 -3.7718,3.5356 -6.1522,4.8026 -7.1152,3.787 -19.9786,6.9079 -29.3966,7.1316 -2.2029,0.052 -3.4477,-0.1 -3.4058,-0.4145 0.04,-0.2996 1.3191,-0.5241 4.8467,-0.8519 7.6711,-0.7129 13.1939,-1.8084 19.5128,-3.869 5.9721,-1.9477 8.2148,-3.297 12.9332,-7.781 0.9303,-0.8841 2.1711,-1.9625 2.7567,-2.3965 1.8638,-1.3812 2.7291,-2.8979 3.6216,-6.3445 1.1394,-4.4014 0.3863,-8.8153 -2.009,-11.7716 -1.2549,-1.548 -2.1853,-2.256 -5.3853,-4.0931 -3.4037,-1.9508 -5.492,-2.8834 -9.8749,-4.3965 -3.0602,-1.0567 -3.7091,-1.3898 -3.4971,-1.7937 0.1815,-0.3458 0.7674,-0.3061 2.9026,0.1951 3.7088,0.8711 7.1223,2.1832 11.761,4.5226 5.0209,2.5316 6.6567,3.8104 7.961,6.2073 1.8838,3.4695 2.1944,8.1775 0.8892,13.4821 -0.2706,1.0986 -0.6189,2.9928 -0.775,4.2101 -0.2159,1.689 -0.443,2.4757 -0.9586,3.3243 -1.3009,2.1423 -3.3103,4.2355 -6.1116,6.3667 -0.9476,0.7209 -1.6863,1.43 -2.2237,2.1345 l -0.8046,1.055 -2.3271,1.314 c -2.0236,1.1426 -2.6355,1.4246 -4.6796,2.1624 -5.6615,2.0435 -11.2849,3.2434 -19.3342,4.124 -1.7907,0.1959 -4.4172,0.4973 -5.8365,0.6699 -4.2913,0.5219 -7.186,0.4415 -11.7829,-0.327 -7.2855,-1.2183 -10.9666,-2.9838 -14.889,-7.1399 -2.2283,-2.3616 -3.4567,-3.9018 -4.8926,-6.1383 -2.7455,-4.2744 -3.5538,-6.5468 -3.3158,-9.313 0.3126,-3.6352 2.5074,-6.2529 9.2681,-11.0542 2.1882,-1.554 2.8788,-2.1974 2.6603,-2.4786 -0.3302,-0.4242 -5.2037,3.3552 -7.8908,6.1196 -4.4842,4.6132 -5.965,8.9129 -4.6705,13.5606 0.5539,1.9887 2.7164,6.4411 3.7264,7.6721 0.5242,0.6393 1.516,1.9037 2.2047,2.8101 2.2129,2.9136 4.4097,4.4935 7.9935,5.7489 v 0 c 2.0775,0.728 4.9888,1.3298 8.6092,1.7808 6.1477,0.7656 9.0781,0.8376 12.0176,0.2948 1.1334,-0.2093 3.8092,-0.5726 5.9461,-0.8076 8.984,-0.9872 15.2616,-2.3383 21.5651,-4.6408 6.354,-2.3211 10.1572,-4.6487 14.358,-8.7881 3.3609,-3.312 5.4238,-7.5703 6.3299,-13.0673 1.0004,-6.0713 -0.1191,-13.3952 -2.4743,-16.1849 -0.6639,-0.786 -1.3159,-1.3709 -2.1204,-1.8531 z m -15.6685,1.6451 c -1.8431,-1.0867 -4.0744,-2.0906 -6.6538,-3.0213 -4.6756,-1.687 -6.9664,-2.1663 -10.3324,-2.1609 -1.179,0 -4.0138,-0.064 -6.2988,-0.1475 -4.9358,-0.1788 -6.2013,-0.1648 -7.6815,0.085 -1.4491,0.2443 -4.1785,0.9636 -7.2278,1.9055 l -2.4451,0.7555 0.8681,-0.052 c 0.4769,-0.029 1.8929,-0.1744 3.1472,-0.3239 3.3726,-0.4018 5.9007,-0.563 8.9104,-0.5685 2.8254,-0.01 8.4568,0.1956 11.0042,0.3916 4.7258,0.3644 8.9106,1.5336 12.826,3.5858 5.2186,2.7353 7.5772,5.9806 7.0762,9.7354 -0.5512,4.1279 -3.9282,7.3117 -13.0433,12.2942 -4.0276,2.2016 -5.5374,2.8717 -9.6008,4.2617 -2.882,0.9859 -3.6854,1.3437 -4.079,1.8182 -0.1764,0.2127 -0.2708,0.4161 -0.2093,0.4517 0.062,0.036 0.5291,0.028 1.0392,-0.016 1.3201,-0.1152 5.2558,-1.0785 7.4422,-1.8216 1.625,-0.5524 2.3518,-0.8932 5.7133,-2.677 2.1187,-1.1244 6.0272,-3.3104 8.6849,-4.8577 l 4.8326,-2.8133 0.7419,-0.9324 c 1.1659,-1.4653 1.7811,-2.9548 2.055,-4.9767 0.2634,-1.9426 0.078,-3.4091 -0.6276,-4.9505 -0.9885,-2.1621 -3.0528,-4.1623 -6.1415,-5.964 z M 72.1126,85.614 C 71.9324,85.4906 71.6479,85.381 71.3029,85.2876 69.841,84.903 66.5808,84.4787 65.2644,84.501 c -0.7375,0.013 -2.1618,0.146 -3.1653,0.2972 -2.3401,0.352 -5.4102,0.954 -5.2731,1.0334 0.058,0.034 1.5449,0.093 3.3037,0.1325 1.7581,0.039 4.7468,0.1787 6.6412,0.3098 3.5373,0.2448 4.8997,0.2214 5.4496,-0.093 0.2661,-0.1522 0.2037,-0.3675 -0.1072,-0.5672 z" sodipodi:nodetypes="ssssssssssssscssssssscsssssssssssccssssssssssccssssssssssssssssssscsssssssssssssscsssssscssssssssssssssssssssssscssssssssssssssssssssssssssscsscssssssssssssssssssssssssssscssscscssssssssssssssssssssssssssssssssssssssssssssscssssscssssssssssssscssssssssssssssssssssssssssssssssssssssssssscssssssssssssssccsssssssssssssscsssssssssssssscssssscssssssssssss" transform="rotate(-60,81.32622,119.12518)"></path><path id="path190573-3" style="opacity:0.3;fill:none;fill-rule:evenodd;stroke:#ffffff;stroke-width:0.820522;stroke-linecap:round;stroke-linejoin:round;stroke-miterlimit:4;stroke-dasharray:none;stroke-opacity:1;paint-order:stroke fill markers;stop-color:#000000" d="m 33.908323,72.926622 -0.03901,9.59417 0.03901,-9.59417 7.151747,-4.11538 z m 63.775861,-36.699233 7.152436,-4.115791 -0.0391,9.59412 0.0391,-9.59412 z m -64.23914,150.448851 -0.03907,9.59368 7.151797,-4.11547 -7.151797,4.11547 z m 70.889286,-31.22144 -7.152425,4.11583 7.152425,-4.11583 0.0391,-9.59367 z" sodipodi:nodetypes="cccccccccccccccccccc"></path><path id="path256058" style="fill:#333333;fill-opacity:1;fill-rule:evenodd;stroke-width:0.0645268;stroke-linecap:round;stroke-linejoin:round;paint-order:stroke fill markers;stop-color:#000000" inkscape:transform-center-x="5.6844536" inkscape:transform-center-y="1.4064984e-05" d="M 139.1506,-66.055749 2.7233584,12.710165 6.4186165,14.843391 142.84586,-63.92252 Z" sodipodi:nodetypes="ccccc"></path><path id="path253781" style="fill:#333333;fill-opacity:1;fill-rule:evenodd;stroke-width:0.1;stroke-linecap:round;stroke-linejoin:round;paint-order:stroke fill markers;stop-color:#000000" inkscape:transform-center-x="8.809474" inkscape:transform-center-y="2.0691184e-05" d="M 176.65144,235.1949 -34.775917,357.26202 -13.998225,369.25814 197.42908,247.19111 Z" sodipodi:nodetypes="ccccc"></path><path id="path253783" style="fill:#808080;fill-opacity:1;fill-rule:evenodd;stroke-width:0.1;stroke-linecap:round;stroke-linejoin:round;paint-order:stroke fill markers;stop-color:#000000" inkscape:transform-center-x="4.4047597" inkscape:transform-center-y="-7.6291666" d="m 197.42847,-119.01165 -20.77792,-11.99592 7.4e-4,366.20273 20.77779,11.99595 z" sodipodi:nodetypes="ccccc"></path><path id="path255900" style="fill:#808080;fill-opacity:1;fill-rule:evenodd;stroke-width:0.0763511;stroke-linecap:round;stroke-linejoin:round;paint-order:stroke fill markers;stop-color:#000000" inkscape:transform-center-x="3.3630924" inkscape:transform-center-y="-5.8249986" d="M 6.4186165,14.843391 2.7234088,12.710078 2.7240436,292.30998 6.419075,294.44319 Z" sodipodi:nodetypes="ccccc"></path><path id="path254718" style="fill:#4d4d4d;fill-opacity:1;fill-rule:evenodd;stroke-width:0.1;stroke-linecap:round;stroke-linejoin:round;paint-order:stroke fill markers;stop-color:#000000" inkscape:transform-center-x="4.4047076" inkscape:transform-center-y="7.6292111" d="m -34.776758,-8.9406191 7.56e-4,366.2026591 211.427472,-122.06711 -7.8e-4,-366.20267 z M 2.7232081,12.709996 139.15063,-66.055737 139.15104,213.54405 2.7240556,292.31003 Z"></path><path id="path296630" style="fill:none;fill-rule:evenodd;stroke:#ffffff;stroke-width:0.820522;stroke-linecap:round;stroke-linejoin:round;stroke-miterlimit:4;stroke-dasharray:none;stroke-opacity:1;paint-order:stroke fill markers;stop-color:#000000" d="m 30.700219,71.074422 -0.03901,9.59417 0.03901,-9.59417 7.151741,-4.115388 z m 63.77586,-36.699233 7.152441,-4.115791 -0.0391,9.594119 0.0391,-9.594119 z m -64.239137,150.448861 -0.03907,9.59367 7.151797,-4.11547 -7.151797,4.11547 z m 70.889278,-31.22145 -7.152417,4.11583 7.152417,-4.11583 0.0391,-9.59367 z" sodipodi:nodetypes="cccccccccccccccccccc"></path><path id="path296704" style="fill:#ffffff;fill-opacity:1;fill-rule:evenodd;stroke-width:0.212785;stroke-linecap:round;stroke-linejoin:round;paint-order:stroke fill markers;stop-color:#000000" d="m 65.189116,65.9789 c -2.846253,1.618863 -4.851212,2.897947 -4.108635,2.672765 1.43923,-0.438421 5.183856,-1.837903 7.369929,-2.754693 3.613084,-1.51504 5.488258,-1.822544 9.019126,-1.47818 2.87342,0.28049 4.14142,0.83105 3.771592,1.636209 -0.355637,0.773978 -1.157006,0.967987 -4.14355,1.00404 -4.258434,0.05102 -6.460743,0.452332 -10.569912,1.924823 -3.655381,1.309904 -6.674459,3.280701 -10.782357,7.038387 -1.3567,1.241476 -1.080605,1.173865 2.379155,-0.578415 5.103222,-2.584439 9.11121,-3.958078 12.711085,-4.357445 3.319788,-0.368241 7.414542,-0.892159 9.274613,-1.186101 1.937467,-0.306189 2.812745,-0.06642 3.760062,1.030378 0.373742,0.432861 1.729383,1.63782 3.012401,2.677172 3.611295,2.926647 4.549532,4.124781 3.63133,4.639548 -0.489839,0.281833 -1.334891,-0.166099 -4.680196,-2.445658 -1.695204,-1.154819 -3.520441,-2.293022 -4.056786,-2.528439 -1.699334,-0.746472 -3.750943,-0.639783 -6.750265,0.348799 -0.839903,0.276953 -1.695919,0.356618 -2.985772,0.279107 -2.385351,-0.143848 -3.409218,-0.05786 -5.458404,0.457836 -2.225018,0.559443 -4.019593,1.244541 -6.898496,2.632547 -2.804917,1.351856 -3.358009,1.784238 -6.91493,5.395609 l -2.320734,2.355628 1.180805,-0.439014 c 0.753885,-0.279967 2.446899,-1.179354 4.683377,-2.488047 3.556007,-2.08238 5.600943,-3.086317 7.7723,-3.815419 3.820533,-1.284759 6.797889,-1.091488 6.791697,0.441036 -0.0026,0.628367 -0.269689,0.840916 -1.146162,0.909811 -2.357619,0.185317 -4.44475,0.503132 -5.472379,0.835438 -2.082696,0.673135 -4.73637,2.007233 -6.816196,3.425998 -2.936528,2.003216 -3.548623,2.580396 -4.648791,4.386943 -0.313424,0.514867 -1.11406,1.617008 -1.779101,2.449293 -0.665001,0.831615 -1.657346,2.192807 -2.205645,3.025289 -1.242318,1.885558 -3.574024,5.980989 -4.101799,7.204525 l -0.395658,0.9183 0.39381,-0.4561 c 0.216945,-0.25176 1.050785,-1.331612 1.853441,-2.400254 1.49884,-1.995068 5.467878,-6.802642 7.19025,-8.709878 2.970139,-3.289431 6.750064,-5.880853 10.244848,-7.022398 0.623466,-0.203074 1.866582,-0.398614 2.761746,-0.434084 1.546724,-0.0602 1.716029,-0.109449 3.40044,-0.973735 1.082772,-0.554621 1.910544,-0.886959 2.126573,-0.852532 0.593413,0.09458 6.208204,1.945673 7.561491,2.493513 1.395448,0.564214 5.611465,2.770858 7.254765,3.796177 2.858692,1.7836 7.09513,7.364866 8.766405,11.549539 0.912166,2.284102 1.3098,4.257162 1.935643,9.596172 0.301599,2.5744 0.453458,1.57539 0.362949,-2.39245 v 0 C 97.972042,97.411194 97.398953,94.835235 94.718574,90.318982 92.039275,85.804699 90.720439,84.417348 88.013185,83.262848 86.946683,82.808292 84.796848,81.788909 83.235747,80.998221 81.674365,80.20761 79.375534,79.243303 78.127205,78.854672 c -2.521534,-0.783774 -3.180039,-1.168811 -3.112588,-1.817839 0.07658,-0.736246 1.018326,-1.095392 2.571717,-0.981544 1.771903,0.129968 3.44308,0.704412 5.656387,1.944853 4.37882,2.453059 5.172502,2.741555 7.030226,2.558488 0.359267,-0.03587 0.889362,0.11718 1.178267,0.339178 1.152605,0.886232 2.987546,3.757822 5.01875,7.85447 0.770627,1.554246 1.594939,2.970895 1.831654,3.147718 0.327171,0.244316 0.393226,0.245508 0.277162,0.0019 -0.08412,-0.175699 -0.64911,-2.071711 -1.256105,-4.212758 -0.607062,-2.14154 -1.55835,-5.08446 -2.113985,-6.539869 -0.555881,-1.455193 -1.129437,-3.075562 -1.274733,-3.601701 -0.316924,-1.147269 -0.346254,-3.006871 -0.05459,-3.497239 0.114597,-0.198492 0.234824,-0.284732 0.281623,-0.207594 0.04439,0.07089 0.241906,0.07961 0.438812,0.01616 0.289543,-0.09252 0.326947,-0.14829 0.197943,-0.280852 -0.08759,-0.09211 -0.26315,-0.109209 -0.390305,-0.03817 -0.152568,0.08825 -0.499553,-0.468551 -1.027526,-1.639927 -0.438295,-0.97185 -1.173511,-2.219782 -1.633552,-2.772995 -1.981646,-2.383092 -3.446798,-3.348169 -6.023212,-3.96929 -1.001841,-0.241358 -1.81851,-0.656852 -2.896017,-1.472949 -2.037187,-1.542091 -4.044189,-2.090461 -7.161437,-1.957233 -2.714955,0.115841 -3.16325,0.269711 -7.420428,2.560761 -1.065103,0.573022 -2.107143,1.149887 -3.055859,1.6901 z M 51.870202,86.521535 c -0.567417,0.220188 -1.912579,1.781484 -3.566302,4.199817 -0.536754,0.785685 -0.976435,1.448436 -0.976501,1.474149 -6.4e-4,0.133111 1.267264,-1.094966 2.608831,-2.525428 1.655644,-1.765859 2.223192,-2.506282 2.22487,-2.905187 9.36e-4,-0.241022 -0.101659,-0.317118 -0.291048,-0.243091 z m 33.94193,-18.715544 c 0.278385,-0.209581 0.743562,-0.255092 1.363087,-0.122343 1.189757,0.25528 4.081699,2.53809 4.819409,3.804742 0.714666,1.227838 0.880031,2.476738 0.489502,3.701562 -0.359771,1.128739 -0.700777,1.185778 -0.974775,0.164559 -0.453964,-1.692309 -1.209745,-2.646658 -3.664176,-4.628259 -1.845168,-1.489884 -2.361439,-2.016471 -2.324859,-2.368433 0.02491,-0.241151 0.12486,-0.426057 0.291985,-0.551728 z M 60.954185,86.541616 c -1.226309,0.724626 -2.471188,1.530214 -3.214848,2.119079 -2.655103,2.103574 -5.414684,5.073706 -9.021939,9.710258 -1.881178,2.417497 -1.967794,2.557317 -4.202923,6.788877 -1.506992,2.85338 -2.161012,4.20518 -1.926397,3.98222 0.195369,-0.18639 1.379316,-1.60705 2.631011,-3.15845 v 0 c 1.251796,-1.55157 3.273138,-4.15684 4.492155,-5.79004 4.562203,-6.111367 7.249719,-8.633281 12.951075,-12.152719 2.661727,-1.643639 3.119132,-1.969496 3.333724,-2.37838 0.510595,-0.972376 -0.34822,-1.289465 -1.939527,-0.715641 -0.668445,0.240382 -1.876096,0.875092 -3.102321,1.595379 z m 7.664344,-1.053234 c -0.819672,0.452718 -1.627258,1.095893 -2.59119,2.012072 -0.429805,0.408645 -2.057901,1.606591 -3.61864,2.660869 -3.883805,2.624747 -5.359763,3.807183 -7.668298,6.144682 -1.632854,1.653385 -2.905341,3.286196 -3.861908,4.955215 -0.979889,1.71722 -1.760702,2.70483 -4.227877,5.3819 -1.563845,1.69646 -1.975603,2.23585 -2.845484,3.72433 -0.56281,0.95481 -1.395336,2.53079 -1.856517,3.49798 -0.782538,1.63959 -0.811495,1.73315 -0.432778,1.38819 0.223209,-0.2046 1.242956,-1.39386 2.26556,-2.64486 1.902319,-2.32712 3.581286,-3.94637 4.261431,-4.10922 0.194668,-0.0456 1.231727,-0.8074 2.304762,-1.69096 3.404695,-2.80391 7.870195,-6.37118 9.192223,-7.344001 1.689907,-1.243204 6.358258,-3.751817 7.65859,-4.114666 5.482523,-1.531408 10.433356,0.591297 13.312132,5.708107 0.368685,0.65538 1.127949,1.86654 1.686467,2.69176 1.15021,1.69938 1.59981,3.07925 1.943102,5.96224 0.127389,1.06936 0.36202,2.13217 0.580941,2.62818 0.757619,1.71717 0.55366,4.47623 -0.707413,9.57189 -1.686229,6.81283 -2.41096,8.8941 -5.981469,17.167 -0.643779,1.49166 -1.37735,3.35224 -1.629399,4.1336 -0.252061,0.78158 -0.721521,2.08451 -1.043759,2.89624 -0.322323,0.81169 -0.81355,2.20551 -1.091383,3.09635 -0.431636,1.38399 -0.608088,1.75162 -1.211881,2.53463 -0.847536,1.09896 -2.510976,2.63793 -4.287928,3.96471 -3.365432,2.5133 -8.855662,4.15966 -12.783508,3.83308 -3.691011,-0.30658 -5.861924,-1.75764 -7.141179,-4.77052 -0.536895,-1.26526 -1.405185,-4.78334 -1.896482,-7.6862 -0.468702,-2.76937 -0.452961,-7.28244 0.03207,-9.60533 0.685844,-3.27933 1.898722,-6.63369 3.518643,-9.73387 2.410211,-4.61222 5.36473,-7.91459 9.464278,-10.57702 1.933208,-1.2548 3.334795,-1.84301 6.331948,-2.65664 1.374563,-0.37323 2.516744,-0.79574 3.172121,-1.17288 0.979103,-0.56297 1.043916,-0.57037 1.471593,-0.20808 1.206476,1.02773 2.045126,3.88195 2.032748,6.91778 -0.0079,1.94432 -0.462282,7.3935 -0.82495,9.89166 -0.922288,6.35183 -2.993561,11.2244 -6.212391,14.61378 -1.35112,1.4224 -3.768587,2.98017 -5.33672,3.43967 -2.616728,0.76629 -6.030066,-0.10743 -7.874908,-2.01687 -2.176683,-2.25286 -2.2847,-8.13238 -0.251729,-13.6506 1.378038,-3.73982 3.461757,-6.97972 6.145001,-9.55445 1.545209,-1.48298 4.695018,-3.29701 6.313111,-3.63287 2.172,-0.45541 3.668373,0.056 4.433131,1.51539 0.325839,0.62183 0.41373,1.0624 0.45801,2.2967 l 0.05523,1.52734 -0.381008,0.34652 c -0.718672,0.65398 -1.612028,0.86881 -3.07533,0.73743 -2.396111,-0.21541 -4.025492,0.41876 -5.791302,2.25404 -1.379528,1.43441 -2.78913,4.18871 -3.15225,6.15926 -0.0894,0.48543 -0.136718,1.47159 -0.104686,2.1911 0.09722,2.18563 1.010978,3.41594 2.622797,3.53119 0.90397,0.0649 2.519822,-0.84026 3.423894,-1.91893 1.83587,-2.18962 2.587251,-5.32326 1.640513,-6.84246 -0.769636,-1.23475 -2.391032,-0.92401 -3.309683,0.63434 -0.37476,0.62911 -0.43955,0.86733 -0.405858,1.42037 0.0342,0.57157 0.09391,0.64115 0.429448,0.49978 0.214424,-0.0931 0.390896,-0.25524 0.39132,-0.36759 0.0015,-0.38364 0.56143,-0.52502 0.781883,-0.19787 0.503236,0.74677 -0.224261,2.33223 -1.373981,2.99381 -0.558849,0.32155 -0.77408,0.34287 -1.16688,0.10329 -0.633792,-0.38323 -0.84766,-1.00901 -0.75955,-2.21942 0.101759,-1.40125 0.63033,-2.67536 1.60786,-3.87629 0.701811,-0.86198 0.9124,-1.03173 1.82556,-1.47896 1.233024,-0.60335 2.466848,-0.5279 3.425529,0.2108 0.835073,0.64321 1.104269,1.52656 1.01034,3.31685 -0.08893,1.69883 -0.470629,3.08615 -1.341329,4.87564 -2.212558,4.54666 -6.181501,6.74548 -8.796032,4.87178 -2.025549,-1.45085 -2.51069,-4.59275 -1.324669,-8.57681 1.021648,-3.43174 3.127422,-6.51146 5.63059,-8.23486 1.967001,-1.35435 3.706501,-1.65406 5.882749,-1.01282 1.301102,0.38342 1.796453,-0.0402 1.318,-1.12664 -0.588277,-1.33569 -2.451817,-1.99615 -4.407326,-1.5625 -1.248203,0.27736 -3.727191,1.70988 -4.952638,2.87095 -2.08014,1.95691 -3.937148,4.72333 -5.0469,7.51808 -2.20059,5.54234 -1.937252,10.57403 0.669722,12.79381 1.588277,1.35243 3.51057,1.69531 5.660916,1.00881 1.319095,-0.42095 1.973743,-0.80163 3.224182,-1.87418 4.244878,-3.63934 6.802602,-10.64126 6.232479,-17.06296 l -0.169248,-1.90587 0.37307,-0.60617 c 1.198741,-1.94629 1.128561,-5.00473 -0.155081,-6.78299 -0.590972,-0.8182 -1.377692,-1.06676 -2.891769,-0.91231 -2.134751,0.2185 -3.877002,0.81856 -6.117491,2.10901 -4.091813,2.35432 -7.071358,5.64974 -9.557892,10.56395 -1.229898,2.43024 -2.033606,4.6763 -2.634287,7.36151 -0.388439,1.73699 -0.466612,2.39381 -0.52939,4.45253 -0.08752,2.87479 0.193592,4.93669 1.048171,7.68971 0.419699,1.35187 0.53988,2.02251 0.535556,2.98881 -0.0082,2.02594 0.917913,3.58471 2.775534,4.66703 4.225363,2.46145 11.97655,0.44961 16.534931,-4.29114 2.12653,-2.21106 3.348577,-4.3127 5.74181,-9.87511 0.809188,-1.88055 1.96801,-4.4695 2.575117,-5.75323 1.124412,-2.37694 2.342181,-5.40077 2.931604,-7.2775 0.42828,-1.364 2.355378,-8.62043 2.886316,-10.86843 0.501514,-2.12286 0.550964,-4.29251 0.09982,-4.40309 -0.365199,-0.0893 -0.573047,0.47593 -1.093058,2.97562 -0.427831,2.05743 -0.834357,3.12314 -1.159781,3.0408 -0.235129,-0.0595 -0.0572,-1.93273 0.462213,-4.87098 0.482567,-2.73042 0.549136,-4.61872 0.229819,-6.50546 -0.259878,-1.53568 -0.5998,-2.13111 -1.097266,-1.92308 -0.562497,0.23446 -0.66952,0.88005 -0.681531,4.11805 -0.0063,1.5371 -0.09115,4.08848 -0.190561,5.67007 -0.159849,2.54366 -0.154169,3.02903 0.05237,4.20009 0.21496,1.21888 0.215881,1.44908 0.0055,2.89614 -0.72666,5.00501 -2.719229,10.69124 -4.14371,11.82591 -0.527422,0.4194 -0.638762,0.63038 -1.567621,2.95141 -1.723599,4.30795 -3.506631,7.58787 -5.419539,9.96891 -3.706222,4.61417 -9.44694,6.98378 -13.777579,5.68806 -1.862283,-0.55741 -4.352673,-2.65873 -4.068412,-3.43269 0.156968,-0.42587 0.787832,-0.67837 1.259181,-0.50277 0.245349,0.0908 0.972668,0.4401 1.616787,0.77445 2.562034,1.33162 5.020673,1.34873 8.100181,0.0559 3.728003,-1.56451 7.061103,-5.25661 9.370593,-10.37996 1.063069,-2.35809 1.499925,-3.98433 2.284199,-8.49375 0.956121,-5.49665 1.232781,-8.18984 1.250579,-12.19746 0.01872,-4.60302 -0.426591,-7.51432 -1.714167,-11.16778 -1.473762,-4.18057 -4.0809,-5.74527 -8.102506,-4.86204 -1.296201,0.28428 -1.645622,0.4427 -4.111934,1.86188 -2.471,1.42189 -2.812098,1.65809 -4.104216,2.86711 -0.775208,0.7233 -1.799183,1.78367 -2.274612,2.35454 -0.990874,1.18965 -3.814893,5.32958 -6.197843,9.08677 -2.647722,4.1736 -5.463432,9.75455 -6.353273,12.59221 -0.597668,1.90498 -1.17889,5.85589 -1.449451,9.85672 -0.05175,0.76063 -0.131427,1.73423 -0.177778,2.16311 l -0.08448,0.78054 0.303182,-0.57714 c 0.16661,-0.31857 0.598462,-1.83617 0.95938,-3.37289 1.181978,-5.03404 2.417429,-8.71751 4.292391,-12.79824 1.623939,-3.53435 4.463231,-8.12215 6.560911,-10.60044 0.94776,-1.11996 1.014139,-1.17194 2.042596,-1.58586 0.766921,-0.30835 1.696319,-0.86598 3.334278,-2.00207 3.696308,-2.56198 6.240291,-3.53967 9.105618,-3.49838 1.405299,0.0202 1.877502,-0.20294 1.88026,-0.88851 0.0028,-0.70353 -1.04605,-1.38059 -2.290351,-1.47879 -1.683546,-0.13323 -3.00143,0.23023 -5.352166,1.47341 -2.171483,1.14886 -3.310502,1.96016 -5.429981,3.86861 -0.68407,0.61564 -1.28256,1.09006 -1.330101,1.0536 -0.233728,-0.17998 0.142632,-1.18805 0.753469,-2.01664 2.006788,-2.72406 6.212968,-5.55078 9.417645,-6.33004 2.346978,-0.5701 4.638359,0.18691 5.341867,1.76361 0.557829,1.25021 0.66254,3.11384 0.203281,3.6131 -0.108605,0.11813 -0.434816,0.13638 -0.724264,0.0411 -0.289426,-0.0955 -0.831229,-0.0557 -1.204877,0.0891 -0.373522,0.14464 -1.425422,0.41072 -2.337591,0.59064 -2.349581,0.46339 -3.523802,0.90621 -5.62894,2.1256 -3.152884,1.8351 -6.091352,4.11954 -7.686141,5.99859 -3.129051,3.68728 -6.262779,9.99545 -7.857607,15.81697 -0.970671,3.54385 -1.25126,6.23685 -0.862334,8.27982 0.107552,0.5645 0.386891,2.35368 0.620833,3.97507 1.138308,7.8884 3.481349,12.25574 7.222809,13.46393 3.701827,1.19606 9.739652,0.57322 15.09772,-1.55681 3.674081,-1.4603 8.943198,-5.45007 12.107473,-9.16817 2.730256,-3.20853 4.747339,-6.85803 7.970387,-14.42071 3.493492,-8.19671 5.669381,-16.60946 5.77117,-22.30976 0.02749,-1.56041 -0.0029,-1.79502 -0.260921,-1.99446 -0.283939,-0.21821 -0.303679,-0.20882 -0.607485,0.29634 -0.248711,0.41078 -0.46704,1.43054 -1.037729,4.80879 -1.329452,7.86949 -3.023598,13.46242 -6.25003,20.63217 -2.51864,5.59681 -5.487809,10.03077 -8.038131,12.00466 -0.813018,0.62918 -1.737828,0.7152 -1.662891,0.15421 0.06142,-0.45979 1.332533,-2.11002 3.220334,-4.17959 1.81626,-1.99206 2.789559,-3.42106 4.122348,-6.05551 3.518359,-6.95398 5.856761,-14.24741 7.40979,-23.10834 0.281762,-1.60782 0.643007,-3.63291 0.802299,-4.50061 0.34414,-1.87527 0.37114,-3.40363 0.09655,-5.40703 -0.402377,-2.93848 -1.67739,-6.27268 -2.740399,-7.1655 -0.548432,-0.460278 -0.973029,-0.355664 -1.280341,0.31342 -0.223549,0.4872 -0.08174,1.20797 0.821228,4.1596 0.868411,2.83907 1.176015,5.03427 1.083073,7.72926 -0.277961,8.05544 -4.006883,20.75593 -8.522153,29.024 -1.056418,1.93377 -1.810456,2.93579 -2.061868,2.74226 -0.239461,-0.18444 0.205663,-1.40443 1.685581,-4.62332 3.218161,-6.99982 5.03083,-12.33045 6.405749,-18.83308 1.299291,-6.14584 1.252112,-8.76273 -0.271942,-15.09097 -0.300506,-1.24772 -0.614027,-2.86149 -0.697079,-3.58563 -0.264258,-2.304699 -1.145108,-3.81242 -3.683699,-6.308649 -3.242023,-3.187449 -7.441123,-4.742196 -11.199005,-4.145955 -1.968057,0.312775 -3.046402,0.764525 -6.237377,2.617257 -3.391292,1.972292 -5.243099,3.314511 -8.744932,6.353667 -2.445229,2.12186 -3.058151,2.51727 -3.301939,2.13172 -0.208725,-0.33008 0.11861,-0.81763 1.620261,-2.41617 2.608795,-2.776366 5.451857,-5.076493 9.797187,-7.924026 4.70288,-3.082427 6.628251,-3.859674 9.356179,-3.790778 3.946575,0.103331 8.179123,2.188344 12.120441,5.97098 0.816117,0.783649 2.28239,2.032381 3.258556,2.776224 1.354764,1.031468 1.922515,1.621491 2.399624,2.492315 1.20484,2.197765 2.012901,4.984555 2.457928,8.476155 0.150518,1.1811 0.395262,2.17537 0.73668,2.99303 l 0.511358,1.22431 -0.0256,2.67232 c -0.02228,2.32379 -0.08401,2.99471 -0.467103,5.13386 -1.061029,5.92475 -2.833587,11.3947 -6.095611,18.80591 -0.725697,1.64873 -1.777928,4.07405 -2.3381,5.3895 -1.693676,3.97732 -3.21065,6.44401 -6.17464,10.04079 -4.697829,5.70028 -8.067348,8.00546 -13.627837,9.3243 -3.159358,0.74896 -5.107409,1.04269 -7.762222,1.16797 -5.07449,0.24047 -7.446598,-0.19572 -9.723198,-1.78494 -2.991872,-2.08831 -4.16147,-5.29792 -4.939169,-13.55351 -0.251701,-2.67203 -0.463602,-3.59181 -0.816379,-3.54319 -0.532465,0.0739 0.303838,6.18414 1.354329,9.89344 1.753049,6.19003 4.736299,9.62229 9.408577,10.82508 1.999212,0.51465 6.936353,0.86807 8.507432,0.60889 0.815749,-0.13433 2.406651,-0.36105 3.535969,-0.50428 3.629701,-0.45963 6.096332,-1.57217 8.975441,-4.04813 v 0 c 1.669219,-1.43516 3.646041,-3.65552 5.846819,-6.56538 3.73688,-4.94126 5.264432,-7.44307 6.264103,-10.26015 0.38544,-1.08621 1.408717,-3.58516 2.273648,-5.55327 3.637061,-8.27398 5.605772,-14.38609 6.7635,-20.99633 1.166869,-6.66327 1.052709,-11.12074 -0.431717,-16.82844 -1.187827,-4.56662 -3.84417,-8.4823 -8.151665,-12.015501 -4.757698,-3.902023 -11.660133,-6.594458 -15.253684,-5.949645 -1.012645,0.181954 -1.845184,0.454153 -2.665031,0.90977 z m -6.409551,14.391869 c -1.862661,1.052819 -3.847713,2.483229 -5.943423,4.251709 -3.798785,3.20569 -5.359271,4.94993 -7.037595,7.86767 -0.5895,1.02105 -2.062326,3.44405 -3.277139,5.38117 -2.622746,4.18513 -3.243369,5.28809 -3.767137,6.69488 -0.51298,1.3771 -1.254749,4.10048 -1.963689,7.2122 l -0.56827,2.49527 0.389019,-0.77779 c 0.213337,-0.42751 0.795417,-1.7265 1.293097,-2.8875 1.33833,-3.12166 2.462774,-5.39167 3.962863,-8.00089 1.404039,-2.45187 4.397793,-7.226 5.841234,-9.33412 2.67848,-3.91046 5.783437,-6.95 9.518394,-9.31474 4.978139,-3.15179 8.967952,-3.571747 11.969203,-1.26047 3.299268,2.54131 4.368019,7.05777 4.12544,17.44293 -0.10716,4.5888 -0.281733,6.23138 -1.10966,10.44539 -0.587183,2.98884 -0.679021,3.8635 -0.464891,4.44161 0.096,0.25912 0.224951,0.44257 0.286531,0.40711 0.06218,-0.0357 0.288799,-0.44421 0.505746,-0.90797 0.560282,-1.20084 1.693892,-5.0909 2.143549,-7.35593 0.334104,-1.6835 0.402363,-2.48332 0.5383,-6.28636 0.08559,-2.39705 0.14671,-6.87491 0.135554,-9.9502 l -0.02009,-5.59181 -0.436531,-1.1087 C 77.64345,102.00137 76.661105,100.72383 75.047036,99.475679 73.496395,98.276268 72.133669,97.70358 70.445978,97.543946 68.079295,97.318963 65.31492,98.1066 62.210253,99.880642 Z M 47.698133,110.34897 c -0.196969,0.0944 -0.434132,0.28595 -0.687521,0.53802 -1.064024,1.07374 -3.061578,3.68501 -3.700465,4.8362 -0.357492,0.64519 -0.95446,1.94517 -1.325268,2.88983 -0.865207,2.20259 -1.878913,5.16236 -1.741597,5.08334 0.05844,-0.0332 0.85299,-1.29142 1.766594,-2.79485 0.912827,-1.50305 2.528161,-4.02149 3.588897,-5.59654 1.980652,-2.94099 2.641587,-4.13257 2.64426,-4.76599 0.0012,-0.30655 -0.216379,-0.36018 -0.54481,-0.19077 z" sodipodi:nodetypes="ssssssssssssscssssssscsssssssssssccssssssssssccssssssssssssssssssscsssssssssssssscsssssscssssssssssssssssssssssscssssssssssssssssssssssssssscsscssssssssssssssssssssssssssscssscscssssssssssssssssssssssssssssssssssssssssssssscssssscssssssssssssscssssssssssssssssssssssssssssssssssssssssssscssssssssssssssccsssssssssssssscsssssssssssssscssssscssssssssssss"></path><path id="path282032" style="mix-blend-mode:normal;fill:#2188ff;fill-opacity:1;fill-rule:evenodd;stroke-width:0.0645268;stroke-linecap:round;stroke-linejoin:round;paint-order:stroke fill markers;filter:url(#filter282034);stop-color:#000000" inkscape:transform-center-x="5.6844515" inkscape:transform-center-y="8.152651e-05" d="M 149.5396,146.5124 13.1128,67.7458 l 10e-5,4.2668 136.4269,78.7665 z" sodipodi:nodetypes="ccccc" transform="rotate(-60,81.32622,119.12518)"></path></g></svg> 