<?xml version="1.0" encoding="UTF-8" standalone="no"?> <svg xmlns:inkscape="http://www.inkscape.org/namespaces/inkscape" xmlns:sodipodi="http://sodipodi.sourceforge.net/DTD/sodipodi-0.dtd" xmlns="http://www.w3.org/2000/svg" xmlns:svg="http://www.w3.org/2000/svg" width="211.66701mm" height="211.66667mm" viewBox="0 0 211.66701 211.66667" version="1.1" id="svg53944" inkscape:version="1.1.1 (3bf5ae0d25, 2021-09-20)" sodipodi:docname="f_skew.svg"><defs id="defs53941"><rect x="2079.7087" y="-1772.8665" width="3121.4348" height="422.91153" id="rect13790-6"></rect><rect x="2079.7087" y="-1772.8665" width="3121.4348" height="422.91153" id="rect80197"></rect><rect x="2079.7087" y="-1772.8665" width="3545.8816" height="443.42642" id="rect131360-16"></rect><rect x="2079.7087" y="-1772.8665" width="3121.4348" height="422.91153" id="rect13790-6-9"></rect><rect x="2079.7087" y="-1772.8665" width="3121.4348" height="422.91153" id="rect80197-2"></rect><rect x="2079.7087" y="-1772.8665" width="3545.8816" height="443.42642" id="rect131360-16-8"></rect></defs><g inkscape:label="Слой 1" inkscape:groupmode="layer" id="layer1" transform="translate(77.71801,-59.81926)"><g id="g81637" transform="translate(-422.63963,1885.3565)"><g transform="matrix(0.4000455,0,0,0.4000455,409.55199,-1714.9513)" id="g2596" style="opacity:0.05"><g id="g2598"><path d="m 52.20752,18.89355 c 20.8125,0 24.97461,103.8457 40.58398,103.8457 h 94 C 112.70166,122.95801 85.06543,18.41113 52.20752,18.89355 Z" id="path2600" style="fill:#919bc9"></path></g></g><g transform="matrix(0.4000455,0,0,0.4000455,409.55199,-1714.9513)" id="g2602" style="fill:#ffffff;fill-opacity:1;stroke:#ffffff;stroke-width:1.39181;stroke-miterlimit:4;stroke-dasharray:none;stroke-opacity:1"><g id="g2604" style="fill:#ffffff;fill-opacity:1;stroke:#ffffff;stroke-width:1.39181;stroke-miterlimit:4;stroke-dasharray:none;stroke-opacity:1"><g id="g2606" style="fill:#ffffff;fill-opacity:1;stroke:#ffffff;stroke-width:1.39181;stroke-miterlimit:4;stroke-dasharray:none;stroke-opacity:1"><path id="line2608" d="M 5,6.0351601 V 131.03516"></path><path d="M 5,0 C 6.05371,2.83984 7.85156,6.36328 9.75488,8.54688 L 5,6.82715 0.24512,8.54688 C 2.14844,6.36328 3.94678,2.83984 5,0 Z" id="path2610" style="fill:#ffffff;fill-opacity:1;stroke:#ffffff;stroke-width:1.39181;stroke-miterlimit:4;stroke-dasharray:none;stroke-opacity:1"></path></g></g><g id="g2612" style="fill:#ffffff;fill-opacity:1;stroke:#ffffff;stroke-width:1.39181;stroke-miterlimit:4;stroke-dasharray:none;stroke-opacity:1"><g id="g2614" style="fill:#ffffff;fill-opacity:1;stroke:#ffffff;stroke-width:1.39181;stroke-miterlimit:4;stroke-dasharray:none;stroke-opacity:1"><path id="line2616" d="M 0,126.03516 H 200"></path><path d="m 206.03516,126.03516 c -2.83984,1.05371 -6.36328,2.85156 -8.54688,4.75488 l 1.71973,-4.75488 -1.71973,-4.75488 c 2.1836,1.90331 5.70703,3.70214 8.54688,4.75488 z" id="path2618" style="fill:#ffffff;fill-opacity:1;stroke:#ffffff;stroke-width:1.39181;stroke-miterlimit:4;stroke-dasharray:none;stroke-opacity:1"></path></g></g></g><path d="m 444.55614,-1665.85 c -6.24446,0 -7.9095,-41.5434 -16.23544,-41.5434 -8.32594,0 -9.99097,41.5434 -16.23544,41.5434" id="path2620" style="opacity:0.5;fill:none;stroke:#fefefe;stroke-width:0.5;stroke-linecap:round;stroke-linejoin:round;stroke-miterlimit:4;stroke-dasharray:0.5, 2;stroke-dashoffset:0;stroke-opacity:1"></path><path d="m 484.27709,-1665.85 c -29.63931,0.087 -40.69506,-41.7358 -53.83971,-41.5434 -8.32497,0.1219 -9.99097,41.5434 -16.23544,41.5434" id="path2622" style="fill:none;stroke:#ff0000;stroke-width:0.556786;stroke-miterlimit:4;stroke-dasharray:none"></path></g><g id="g81621" transform="translate(-422.63963,1885.3565)"><g transform="matrix(0.4000455,0,0,0.4000455,313.69675,-1785.0494)" id="g2590" style="opacity:0.05;stroke-width:1.39181;stroke-miterlimit:4;stroke-dasharray:none"><g id="g2592" style="stroke-width:1.39181;stroke-miterlimit:4;stroke-dasharray:none"><path d="m 385.81885,18.89307 c -32.8584,-0.48242 -60.49414,104.06396 -134.58398,103.84521 h 94 c 15.60937,0 19.77148,-103.84521 40.58398,-103.84521 z" id="path2594" style="fill:#919bc9;stroke-width:1.39181;stroke-miterlimit:4;stroke-dasharray:none"></path></g></g><g transform="matrix(0.4000455,0,0,0.4000455,313.69675,-1785.0494)" id="g2624" style="fill:#ffffff;fill-opacity:1;stroke:#ffffff;stroke-width:1.39181;stroke-miterlimit:4;stroke-dasharray:none;stroke-opacity:1"><g id="g2626" style="fill:#ffffff;fill-opacity:1;stroke:#ffffff;stroke-width:1.39181;stroke-miterlimit:4;stroke-dasharray:none;stroke-opacity:1"><g id="g2628" style="fill:#ffffff;fill-opacity:1;stroke:#ffffff;stroke-width:1.39181;stroke-miterlimit:4;stroke-dasharray:none;stroke-opacity:1"><path id="line2630" d="M 244.61084,6.0351601 V 131.03516"></path><path d="m 244.61084,0 c 1.05371,2.83984 2.85156,6.36328 4.75488,8.54688 l -4.75488,-1.71973 -4.75488,1.71973 C 241.75928,6.36328 243.55713,2.83984 244.61084,0 Z" id="path2632" style="fill:#ffffff;fill-opacity:1;stroke:#ffffff;stroke-width:1.39181;stroke-miterlimit:4;stroke-dasharray:none;stroke-opacity:1"></path></g></g><g id="g2634" style="fill:#ffffff;fill-opacity:1;stroke:#ffffff;stroke-width:1.39181;stroke-miterlimit:4;stroke-dasharray:none;stroke-opacity:1"><g id="g2636" style="fill:#ffffff;fill-opacity:1;stroke:#ffffff;stroke-width:1.39181;stroke-miterlimit:4;stroke-dasharray:none;stroke-opacity:1"><path id="line2638" d="m 239.61084,126.03516 h 200"></path><path d="m 445.646,126.03516 c -2.83984,1.05371 -6.36328,2.85156 -8.54688,4.75488 l 1.71973,-4.75488 -1.71973,-4.75488 c 2.18359,1.90331 5.70703,3.70214 8.54688,4.75488 z" id="path2640" style="fill:#ffffff;fill-opacity:1;stroke:#ffffff;stroke-width:1.39181;stroke-miterlimit:4;stroke-dasharray:none;stroke-opacity:1"></path></g></g></g><path d="m 453.92309,-1735.9481 c 6.24446,0 7.90948,-41.5434 16.23543,-41.5434 8.32595,0 9.99099,41.5434 16.23545,41.5434" id="path2642" style="opacity:0.5;fill:none;stroke:#ffffff;stroke-width:0.5;stroke-linecap:round;stroke-linejoin:round;stroke-miterlimit:4;stroke-dasharray:0.5, 2;stroke-dashoffset:0;stroke-opacity:1"></path><path d="m 414.20213,-1735.9481 c 29.63931,0.087 40.69526,-41.7358 53.83971,-41.5434 8.32517,0.1219 9.99099,41.5434 16.23545,41.5434" id="path2644" style="fill:none;stroke:#ff0000;stroke-width:0.556786;stroke-miterlimit:4;stroke-dasharray:none"></path></g><g aria-label="Positive" transform="matrix(0.07888169,0,0,0.07888169,-152.07958,295.9277)" id="text13787-3" style="font-size:111.806px;line-height:1.1;white-space:pre;shape-inside:url(#rect13790-6-9);fill:#ffffff"><path d="m 2089.3243,-1677.743 v -78.8232 h 32.6474 q 12.634,0 19.3424,6.0375 6.7084,6.0375 6.7084,16.6591 0,10.6216 -6.7084,16.7709 -6.7084,6.0375 -19.3424,6.0375 h -22.2494 v 33.3182 z m 10.398,-41.8154 h 21.2431 q 8.2736,0 12.5223,-3.6896 4.2486,-3.8014 4.2486,-10.6216 0,-6.8202 -4.2486,-10.5098 -4.2487,-3.6896 -12.5223,-3.6896 h -21.2431 z" style="font-weight:500;font-family:Mulish;-inkscape-font-specification:'Mulish Medium'" id="path12614"></path><path d="m 2182.5703,-1676.7367 q -8.2737,0 -14.3112,-3.466 -6.0375,-3.5778 -9.3917,-10.0626 -3.3542,-6.5965 -3.3542,-15.6528 0,-8.9445 3.3542,-15.4292 3.3542,-6.5966 9.3917,-10.0626 6.0375,-3.5778 14.3112,-3.5778 8.2736,0 14.3112,3.5778 6.1493,3.466 9.3917,10.0626 3.3541,6.4847 3.3541,15.4292 0,9.0563 -3.3541,15.6528 -3.2424,6.4848 -9.3917,10.0626 -6.0376,3.466 -14.3112,3.466 z m 0,-8.0501 q 7.6028,0 12.1868,-5.3667 4.5841,-5.3667 4.5841,-15.7646 0,-10.398 -4.5841,-15.6528 -4.584,-5.2549 -12.1868,-5.2549 -7.7146,0 -12.2987,5.2549 -4.4722,5.2548 -4.4722,15.6528 0,10.3979 4.4722,15.7646 4.5841,5.3667 12.2987,5.3667 z" style="font-weight:500;font-family:Mulish;-inkscape-font-specification:'Mulish Medium'" id="path12616"></path><path d="m 2242.2745,-1676.7367 q -6.8202,0 -12.7459,-1.7889 -5.8139,-1.7889 -9.6153,-5.1431 l 3.2424,-7.0438 q 4.1368,3.1306 9.0563,4.8077 5.0312,1.5652 10.2861,1.5652 6.373,0 9.6153,-2.3479 3.3542,-2.3479 3.3542,-6.2611 0,-3.1306 -2.1243,-5.0313 -2.1243,-1.9007 -6.7084,-2.7951 l -10.6215,-2.1243 q -7.1556,-1.6771 -10.8452,-5.3667 -3.5778,-3.8014 -3.5778,-9.7272 0,-4.9194 2.6833,-8.7208 2.6834,-3.9132 7.6029,-6.0375 5.0312,-2.2362 11.7396,-2.2362 6.1493,0 11.4042,1.7889 5.3667,1.7889 8.8327,5.2549 l -3.3542,6.8202 q -3.466,-3.0188 -7.8264,-4.5841 -4.2487,-1.6771 -8.7209,-1.6771 -6.4847,0 -9.6153,2.5716 -3.1306,2.4597 -3.1306,6.4847 0,3.0188 1.9007,5.0313 1.9007,1.9007 6.1493,2.907 l 10.6216,2.1243 q 7.491,1.5652 11.2924,5.143 3.8014,3.5778 3.8014,9.5036 0,5.2548 -2.9069,9.0562 -2.7952,3.8014 -7.9383,5.8139 -5.0312,2.0126 -11.8514,2.0126 z" style="font-weight:500;font-family:Mulish;-inkscape-font-specification:'Mulish Medium'" id="path12618"></path><path d="m 2278.835,-1677.743 v -56.2384 h 10.1744 v 56.2384 z m -0.8944,-68.5371 v -10.957 h 12.075 v 10.957 z" style="font-weight:500;font-family:Mulish;-inkscape-font-specification:'Mulish Medium'" id="path12620"></path><path d="m 2327.0232,-1676.7367 q -8.8327,0 -13.4167,-4.8077 -4.4722,-4.9195 -4.4722,-14.7584 v -29.8522 h -10.957 v -7.8264 h 10.957 v -15.0938 l 10.1743,-2.7952 v 17.889 h 15.8765 v 7.8264 h -15.8765 v 28.9578 q 0,6.4847 2.2361,9.2799 2.348,2.6833 6.7084,2.6833 2.2361,0 3.8014,-0.3354 1.6771,-0.4472 3.0188,-1.0063 v 8.3855 q -1.6771,0.6708 -3.9133,1.0062 -2.1243,0.4473 -4.1368,0.4473 z" style="font-weight:500;font-family:Mulish;-inkscape-font-specification:'Mulish Medium'" id="path12622"></path><path d="m 2345.8065,-1677.743 v -56.2384 h 10.1744 v 56.2384 z m -0.8944,-68.5371 v -10.957 h 12.075 v 10.957 z" style="font-weight:500;font-family:Mulish;-inkscape-font-specification:'Mulish Medium'" id="path12624"></path><path d="m 2389.5224,-1677.743 -24.0382,-56.2384 h 10.9569 l 19.5661,48.3002 h -3.1306 l 19.9015,-48.3002 h 10.398 l -24.1501,56.2384 z" style="font-weight:500;font-family:Mulish;-inkscape-font-specification:'Mulish Medium'" id="path12626"></path><path d="m 2457.3884,-1676.7367 q -13.4168,0 -21.2432,-7.7147 -7.7146,-7.7146 -7.7146,-21.2431 0,-8.9445 3.3542,-15.4292 3.466,-6.5966 9.5035,-10.1744 6.0375,-3.6896 14.0876,-3.6896 7.7146,0 13.0813,3.3542 5.3666,3.2424 8.1618,9.2799 2.7951,6.0375 2.7951,14.3112 v 3.3542 h -43.0453 v -6.0376 h 36.1134 l -1.9007,1.4535 q 0,-8.7209 -3.9132,-13.5285 -3.8014,-4.8077 -11.2924,-4.8077 -8.1619,0 -12.6341,5.7021 -4.4723,5.5903 -4.4723,15.3175 v 1.0062 q 0,10.2862 5.0313,15.541 5.1431,5.2549 14.1994,5.2549 5.0312,0 9.3917,-1.4535 4.3604,-1.4534 8.3854,-4.8076 l 3.3542,7.0438 q -3.8014,3.466 -9.5035,5.3667 -5.5903,1.9007 -11.7396,1.9007 z" style="font-weight:500;font-family:Mulish;-inkscape-font-specification:'Mulish Medium'" id="path12628"></path></g><g aria-label="Negative" transform="matrix(0.07888169,0,0,0.07888169,-154.54022,366.0258)" id="text80195" style="font-size:111.806px;line-height:1.1;white-space:pre;shape-inside:url(#rect80197-2);fill:#ffffff"><path d="m 2089.3243,-1677.743 v -78.8232 h 8.05 l 49.4183,65.2947 h -2.6834 v -65.2947 h 9.7272 v 78.8232 h -7.9383 l -49.4182,-65.2947 h 2.5715 v 65.2947 z" style="font-weight:500;font-family:Mulish;-inkscape-font-specification:'Mulish Medium'" id="path12597"></path><path d="m 2197.4406,-1676.7367 q -13.4167,0 -21.2431,-7.7147 -7.7146,-7.7146 -7.7146,-21.2431 0,-8.9445 3.3541,-15.4292 3.466,-6.5966 9.5035,-10.1744 6.0376,-3.6896 14.0876,-3.6896 7.7146,0 13.0813,3.3542 5.3667,3.2424 8.1618,9.2799 2.7952,6.0375 2.7952,14.3112 v 3.3542 h -43.0453 v -6.0376 h 36.1133 l -1.9007,1.4535 q 0,-8.7209 -3.9132,-13.5285 -3.8014,-4.8077 -11.2924,-4.8077 -8.1618,0 -12.6341,5.7021 -4.4722,5.5903 -4.4722,15.3175 v 1.0062 q 0,10.2862 5.0313,15.541 5.143,5.2549 14.1993,5.2549 5.0313,0 9.3917,-1.4535 4.3605,-1.4534 8.3855,-4.8076 l 3.3542,7.0438 q -3.8015,3.466 -9.5036,5.3667 -5.5903,1.9007 -11.7396,1.9007 z" style="font-weight:500;font-family:Mulish;-inkscape-font-specification:'Mulish Medium'" id="path12599"></path><path d="m 2257.8156,-1652.6985 q -7.3791,0 -13.5285,-1.7888 -6.1493,-1.7889 -11.0688,-5.4785 l 2.6834,-7.491 q 3.466,2.3479 6.8201,3.8014 3.3542,1.4534 6.932,2.1243 3.6896,0.6708 7.6028,0.6708 8.2737,0 12.4105,-4.2486 4.1368,-4.2486 4.1368,-12.0751 v -15.7646 h 1.1181 q -1.7889,6.3729 -7.3792,10.1743 -5.4785,3.6896 -12.9695,3.6896 -7.6028,0 -13.3049,-3.3541 -5.5903,-3.466 -8.7209,-9.7272 -3.1306,-6.3729 -3.1306,-14.8702 0,-8.609 3.1306,-14.8702 3.1306,-6.2611 8.7209,-9.6153 5.7021,-3.466 13.3049,-3.466 7.491,0 12.9695,3.6896 5.4785,3.6896 7.2674,10.1744 l -1.0063,-1.0063 1.0063,-11.8514 h 9.8389 q -0.3354,3.3542 -0.6708,6.7083 -0.2237,3.3542 -0.2237,6.5966 v 42.2627 q 0,12.5222 -6.5965,19.1188 -6.4848,6.5965 -19.3425,6.5965 z m -1.0062,-34.4362 q 7.7146,0 12.2987,-5.2549 4.584,-5.2549 4.584,-14.6466 0,-9.5035 -4.584,-14.6466 -4.5841,-5.143 -12.2987,-5.143 -7.8264,0 -12.5223,5.143 -4.584,5.1431 -4.584,14.6466 0,9.3917 4.584,14.6466 4.6959,5.2549 12.5223,5.2549 z" style="font-weight:500;font-family:Mulish;-inkscape-font-specification:'Mulish Medium'" id="path12601"></path><path d="m 2322.2159,-1676.7367 q -7.3792,0 -12.9695,-3.466 -5.5903,-3.466 -8.7209,-10.0626 -3.1305,-6.5965 -3.1305,-15.6528 0,-9.0563 3.1305,-15.541 3.1306,-6.5966 8.7209,-10.0626 5.5903,-3.466 12.9695,-3.466 7.491,0 12.9695,3.8014 5.5903,3.6896 7.3792,10.1744 h -1.3417 l 1.2299,-12.9695 h 9.8389 q -0.3354,3.3542 -0.6708,6.7083 -0.2236,3.3542 -0.2236,6.5966 v 42.9335 h -10.1744 v -12.8577 h 1.2299 q -1.7889,6.373 -7.3792,10.1744 -5.4785,3.6896 -12.8577,3.6896 z m 2.3479,-8.0501 q 7.6028,0 12.1869,-5.3667 4.584,-5.3667 4.584,-15.7646 0,-10.398 -4.584,-15.6528 -4.5841,-5.2549 -12.1869,-5.2549 -7.6028,0 -12.2986,5.2549 -4.5841,5.2548 -4.5841,15.6528 0,10.3979 4.5841,15.7646 4.584,5.3667 12.2986,5.3667 z" style="font-weight:500;font-family:Mulish;-inkscape-font-specification:'Mulish Medium'" id="path12603"></path><path d="m 2389.4113,-1676.7367 q -8.8327,0 -13.4168,-4.8077 -4.4722,-4.9195 -4.4722,-14.7584 v -29.8522 h -10.957 v -7.8264 h 10.957 v -15.0938 l 10.1743,-2.7952 v 17.889 h 15.8765 v 7.8264 h -15.8765 v 28.9578 q 0,6.4847 2.2362,9.2799 2.3479,2.6833 6.7083,2.6833 2.2361,0 3.8014,-0.3354 1.6771,-0.4472 3.0188,-1.0063 v 8.3855 q -1.6771,0.6708 -3.9132,1.0062 -2.1243,0.4473 -4.1368,0.4473 z" style="font-weight:500;font-family:Mulish;-inkscape-font-specification:'Mulish Medium'" id="path12605"></path><path d="m 2408.1945,-1677.743 v -56.2384 h 10.1744 v 56.2384 z m -0.8944,-68.5371 v -10.957 h 12.075 v 10.957 z" style="font-weight:500;font-family:Mulish;-inkscape-font-specification:'Mulish Medium'" id="path12607"></path><path d="m 2451.9105,-1677.743 -24.0383,-56.2384 h 10.957 l 19.566,48.3002 h -3.1305 l 19.9014,-48.3002 h 10.398 l -24.1501,56.2384 z" style="font-weight:500;font-family:Mulish;-inkscape-font-specification:'Mulish Medium'" id="path12609"></path><path d="m 2519.7764,-1676.7367 q -13.4167,0 -21.2431,-7.7147 -7.7147,-7.7146 -7.7147,-21.2431 0,-8.9445 3.3542,-15.4292 3.466,-6.5966 9.5035,-10.1744 6.0376,-3.6896 14.0876,-3.6896 7.7146,0 13.0813,3.3542 5.3667,3.2424 8.1618,9.2799 2.7952,6.0375 2.7952,14.3112 v 3.3542 h -43.0453 v -6.0376 h 36.1133 l -1.9007,1.4535 q 0,-8.7209 -3.9132,-13.5285 -3.8014,-4.8077 -11.2924,-4.8077 -8.1618,0 -12.6341,5.7021 -4.4722,5.5903 -4.4722,15.3175 v 1.0062 q 0,10.2862 5.0312,15.541 5.1431,5.2549 14.1994,5.2549 5.0313,0 9.3917,-1.4535 4.3604,-1.4534 8.3855,-4.8076 l 3.3541,7.0438 q -3.8014,3.466 -9.5035,5.3667 -5.5903,1.9007 -11.7396,1.9007 z" style="font-weight:500;font-family:Mulish;-inkscape-font-specification:'Mulish Medium'" id="path12611"></path></g></g></svg> 