<?xml version="1.0" encoding="UTF-8" standalone="no"?> <svg xmlns:inkscape="http://www.inkscape.org/namespaces/inkscape" xmlns:sodipodi="http://sodipodi.sourceforge.net/DTD/sodipodi-0.dtd" xmlns="http://www.w3.org/2000/svg" xmlns:svg="http://www.w3.org/2000/svg" width="78.864105" height="30" viewBox="0 0 78.864105 30" fill="none" version="1.1" id="svg12" sodipodi:docname="ton_logo_dark_background.svg" inkscape:version="1.1.1 (3bf5ae0d25, 2021-09-20)"><defs id="defs16"></defs><path d="M 46.731857,21.428571 V 11.897143 H 43.063286 V 9.3428571 h 10.508678 v 2.5542859 h -3.668678 v 9.531428 z" fill="#ffffff" id="path2" style="stroke-width:0.535714"></path><path d="m 53.875179,15.377143 c 0,-1.257161 0.245357,-2.348572 0.737142,-3.274286 0.49125,-0.937125 1.194108,-1.662857 2.108572,-2.1771427 0.913928,-0.5142857 1.993928,-0.7714286 3.24,-0.7714286 1.256786,0 2.342678,0.2571429 3.257143,0.7714286 0.913928,0.5142857 1.616785,1.2400177 2.108571,2.1771427 0.5025,0.925714 0.754286,2.017125 0.754286,3.274286 0,1.245696 -0.251786,2.337161 -0.754286,3.274286 -0.491786,0.937125 -1.194643,1.668589 -2.108571,2.194285 -0.914465,0.514286 -2.000357,0.771429 -3.257143,0.771429 -1.246072,0 -2.326072,-0.257143 -3.24,-0.771429 -0.903214,-0.525696 -1.606072,-1.25716 -2.108572,-2.194285 -0.491785,-0.937125 -0.737142,-2.02859 -0.737142,-3.274286 z m 3.308571,0 c 0,0.754286 0.102857,1.399982 0.308571,1.937143 0.205715,0.53716 0.508393,0.948589 0.908572,1.234285 0.411428,0.285697 0.931071,0.428572 1.56,0.428572 0.936964,0 1.639821,-0.314304 2.108571,-0.942857 0.468215,-0.640018 0.702857,-1.525715 0.702857,-2.657143 0,-0.754286 -0.102857,-1.399982 -0.308571,-1.937143 -0.205714,-0.537161 -0.520179,-0.942857 -0.942857,-1.217143 -0.411429,-0.285696 -0.931607,-0.428571 -1.56,-0.428571 -0.9375,0 -1.634464,0.314303 -2.091429,0.942857 -0.4575,0.617143 -0.685714,1.497161 -0.685714,2.64 z" fill="#ffffff" id="path4" style="stroke-width:0.535714"></path><path d="M 67.978393,21.428571 V 9.3428571 h 2.331428 l 6.12,7.5942859 H 75.932679 V 9.3428571 h 2.931428 V 21.428571 h -2.331428 l -6.085715,-7.594285 h 0.497143 v 7.594285 z" fill="#ffffff" id="path6" style="stroke-width:0.535714"></path><circle cx="15" cy="15" r="15" fill="#0088cc" id="circle8" style="stroke-width:0.535714"></circle><path fill-rule="evenodd" clip-rule="evenodd" d="m 10.826143,9.9130179 h 8.413071 c 0.297643,0 0.595072,0.043714 0.905893,0.1886251 0.372589,0.173625 0.570161,0.447428 0.708589,0.649875 0.01077,0.01575 0.02084,0.03198 0.03016,0.04859 0.16275,0.289714 0.246643,0.602518 0.246643,0.939 0,0.319714 -0.07607,0.668036 -0.246643,0.971625 -0.0016,0.0029 -0.0033,0.0058 -0.0049,0.0087 l -5.31525,9.130446 c -0.117215,0.201322 -0.332947,0.324857 -0.565929,0.324054 -0.232982,-8.57e-4 -0.447857,-0.125893 -0.563625,-0.328072 l -5.2176429,-9.111 c -0.0015,-0.0024 -0.003,-0.0049 -0.0045,-0.0074 -0.1194377,-0.196782 -0.3040984,-0.501068 -0.336402,-0.8938 -0.029678,-0.361072 0.051482,-0.722893 0.2329286,-1.036607 0.1814464,-0.313768 0.4546072,-0.56459 0.7831607,-0.718125 C 10.243982,9.9143036 10.600982,9.9130179 10.826143,9.9130179 Z m 3.521732,1.3043571 h -3.521732 c -0.231375,0 -0.320197,0.01425 -0.382286,0.04329 -0.08587,0.04007 -0.157982,0.105964 -0.206196,0.189375 -0.04821,0.08341 -0.07002,0.180053 -0.06209,0.27675 0.0046,0.0555 0.02716,0.118928 0.1605,0.338839 0.0028,0.0046 0.0055,0.0093 0.0082,0.01393 l 4.003607,6.991017 z m 1.304357,0 v 7.88775 l 4.096339,-7.036661 c 0.04623,-0.084 0.07757,-0.205393 0.07757,-0.329357 0,-0.100553 -0.02084,-0.187875 -0.06745,-0.277928 -0.04891,-0.07029 -0.0787,-0.107518 -0.103607,-0.133018 -0.02137,-0.0218 -0.03782,-0.03348 -0.06107,-0.0443 -0.09686,-0.04516 -0.195964,-0.06648 -0.354804,-0.06648 z" fill="#ffffff" id="path10" style="stroke-width:0.535714"></path></svg> 